{"glyphs":{"0":{"ha":681,"x_min":56,"x_max":625,"o":"m 340 -15 q 185 33 249 -15 q 88 158 121 82 q 56 318 56 235 q 88 478 56 401 q 185 603 121 554 q 340 651 249 651 q 497 603 433 651 q 592 478 560 554 q 625 318 625 401 q 592 158 625 235 q 497 33 560 82 q 340 -15 433 -15 m 340 26 q 449 65 411 26 q 500 169 486 103 q 514 318 514 236 q 500 467 514 401 q 449 572 486 533 q 340 610 411 610 q 233 572 271 610 q 181 467 194 533 q 167 318 167 401 q 181 169 167 236 q 233 65 194 103 q 340 26 271 26 z "},"1":{"ha":425,"x_min":42,"x_max":383,"o":"m 42 -4 l 42 28 l 64 31 q 126 44 104 36 q 156 78 147 51 q 164 168 164 106 l 164 468 q 150 545 164 521 q 110 577 136 569 q 47 583 85 585 l 47 625 q 109 626 78 624 q 169 633 140 629 q 221 645 197 639 q 261 660 244 651 l 261 168 q 269 78 261 106 q 299 44 278 51 q 361 31 321 36 l 383 28 l 383 -4 l 213 0 l 42 -4 z "},"2":{"ha":593,"x_min":61,"x_max":492,"o":"m 444 -122 l 442 -100 q 429 -38 438 -60 q 394 -8 421 -17 q 304 0 367 0 l 104 0 l 104 28 l 188 119 q 278 218 233 169 q 351 322 322 267 q 381 447 381 378 q 344 565 381 521 q 246 608 307 608 q 138 563 174 608 q 103 461 103 518 q 128 376 103 410 q 179 333 153 343 l 165 303 q 90 367 118 324 q 61 465 61 410 q 89 562 61 519 q 165 628 117 604 q 272 651 213 651 q 393 624 344 651 q 467 553 442 596 q 492 464 492 510 q 456 344 492 401 q 369 236 421 286 q 272 144 318 186 l 210 89 l 485 110 l 478 49 l 476 -122 l 444 -122 z "},"3":{"ha":619,"x_min":-8,"x_max":525,"o":"m 219 -408 q 108 -389 160 -408 q 24 -334 57 -369 q -8 -254 -8 -299 q 10 -199 -8 -221 q 58 -178 28 -178 q 101 -194 83 -178 q 118 -237 118 -211 q 112 -268 118 -254 q 106 -300 106 -282 q 128 -349 106 -326 q 214 -371 151 -371 q 356 -292 304 -371 q 408 -82 408 -212 q 370 76 408 25 q 272 128 332 128 q 211 119 238 128 q 168 101 185 111 l 154 138 q 185 152 174 146 q 214 172 196 158 q 285 235 247 196 q 351 328 324 274 q 379 454 379 383 q 338 569 379 529 q 235 608 297 608 q 129 565 171 608 q 88 463 88 522 q 116 371 88 403 q 175 328 144 339 l 164 296 q 75 365 104 319 q 46 465 46 410 q 75 562 46 519 q 155 628 104 604 q 268 651 206 651 q 431 597 372 651 q 490 456 490 542 q 459 342 490 401 q 339 221 428 282 l 256 164 q 275 166 267 165 q 293 167 283 167 q 415 130 363 167 q 496 34 467 93 q 525 -94 525 -25 q 492 -249 525 -178 q 390 -365 458 -321 q 219 -408 322 -408 z "},"4":{"ha":683,"x_min":-7,"x_max":653,"o":"m 619 -4 l 449 0 l 278 -3 l 278 29 l 300 31 q 362 44 340 36 q 392 78 383 51 q 401 168 401 106 l 403 294 l -7 294 l -7 335 l 467 946 l 497 946 l 497 340 l 653 340 l 653 294 l 497 294 l 497 168 q 506 78 497 106 q 535 44 514 51 q 597 31 557 36 l 619 28 l 619 -4 m 43 340 l 403 340 l 406 797 l 43 340 z "},"5":{"ha":663,"x_min":65,"x_max":572,"o":"m 282 -15 q 164 8 213 -15 q 90 66 115 31 q 65 139 65 101 q 85 202 65 179 q 135 225 104 225 q 176 208 161 225 q 192 168 192 192 q 186 137 192 151 q 181 101 181 122 q 208 45 181 67 q 275 24 236 24 q 376 69 336 24 q 437 189 417 115 q 457 344 457 263 q 434 483 457 431 q 376 560 411 536 q 306 585 342 585 q 226 556 258 585 q 176 492 193 528 l 150 492 l 186 994 l 222 994 l 219 957 l 275 956 l 318 956 q 425 960 375 956 q 501 981 475 965 l 515 981 l 515 967 q 483 893 515 917 q 394 862 450 869 q 265 854 338 854 l 211 854 l 189 574 q 250 615 214 600 q 328 631 286 631 q 449 597 393 631 q 538 501 504 564 q 572 347 572 438 q 533 155 572 236 q 427 29 493 74 q 282 -15 361 -15 z "},"6":{"ha":738,"x_min":79,"x_max":643,"o":"m 365 -15 q 192 46 254 -15 q 104 210 129 107 q 79 443 79 314 q 121 733 79 606 q 242 933 163 860 q 436 1006 322 1006 q 519 996 479 1006 q 586 966 560 986 q 613 911 613 946 q 595 862 613 879 q 550 843 578 844 q 514 852 532 843 q 490 883 496 861 q 463 944 481 924 q 408 965 444 965 q 302 910 354 965 q 217 746 250 856 q 188 471 185 636 l 188 461 q 399 596 256 596 q 512 565 456 596 q 606 470 568 535 q 643 300 643 406 q 610 142 643 214 q 515 28 576 71 q 365 -15 453 -15 m 354 26 q 482 99 432 26 q 532 306 532 172 q 492 491 532 429 q 378 553 451 553 q 291 521 332 553 q 225 431 250 489 q 200 292 200 372 q 240 98 200 169 q 354 26 279 26 z "},"7":{"ha":664,"x_min":63,"x_max":589,"o":"m 240 -408 q 205 -391 218 -408 q 192 -346 192 -374 q 208 -274 192 -312 l 529 511 l 93 511 l 93 372 l 63 372 l 63 694 l 93 694 l 93 625 l 589 625 l 589 603 l 322 -321 q 284 -391 307 -374 q 240 -408 261 -408 z "},"8":{"ha":682,"x_min":69,"x_max":613,"o":"m 329 -15 q 184 17 242 -15 q 98 101 126 49 q 69 217 69 154 q 99 340 69 286 q 174 435 129 393 q 263 513 218 476 l 232 536 q 138 637 176 579 q 100 772 100 694 q 135 900 100 849 q 228 978 171 951 q 350 1006 286 1006 q 472 977 424 1006 q 543 902 519 949 q 567 801 567 856 q 542 697 567 742 q 479 619 517 653 q 406 557 442 585 l 433 535 q 517 463 476 503 q 585 370 558 422 q 613 247 613 318 q 578 112 613 171 q 479 19 543 53 q 329 -15 415 -15 m 325 619 l 371 583 q 436 639 403 607 q 492 711 469 671 q 515 801 515 751 q 499 876 515 840 q 447 934 482 911 q 358 957 413 957 q 244 915 290 957 q 199 808 199 874 q 219 729 199 764 q 269 667 239 694 q 325 619 299 640 m 121 215 q 173 83 121 136 q 331 29 225 29 q 471 73 419 29 q 522 193 522 117 q 496 295 522 250 q 428 378 469 340 q 343 450 388 417 l 297 486 q 214 413 254 451 q 147 325 174 374 q 121 215 121 276 z "},"9":{"ha":771,"x_min":76,"x_max":672,"o":"m 311 -411 q 238 -403 274 -411 q 179 -373 203 -394 q 156 -314 156 -351 q 174 -267 156 -285 q 218 -247 192 -249 q 251 -255 236 -247 q 279 -286 265 -262 q 317 -348 301 -328 q 358 -368 332 -368 q 458 -320 411 -368 q 533 -172 504 -272 q 557 88 561 -71 q 472 8 525 32 q 363 -15 419 -15 q 227 22 290 -15 q 124 129 164 58 q 79 304 85 200 q 113 474 76 394 q 217 602 150 553 q 372 651 285 651 q 521 613 463 651 q 613 507 579 575 q 659 349 646 439 q 672 156 672 260 q 631 -142 672 -14 q 508 -340 589 -269 q 311 -411 428 -411 m 372 26 q 486 67 449 26 q 537 178 524 107 q 550 339 550 249 q 508 538 550 467 q 375 610 465 610 q 236 531 288 610 q 190 310 185 453 q 240 98 197 169 q 372 26 283 26 z "},"A":{"ha":1035,"x_min":-21,"x_max":1056,"o":"m -21 -4 l -21 31 l -8 32 q 72 51 40 39 q 126 92 103 64 q 169 171 149 121 l 506 986 l 553 986 l 881 171 q 940 71 908 103 q 1028 33 972 39 l 1056 31 l 1056 -4 l 883 0 l 661 -4 l 661 31 l 689 33 q 758 54 738 39 q 779 97 779 69 q 760 172 779 125 l 688 353 l 296 353 l 221 172 q 204 127 211 147 q 197 92 197 107 q 220 51 197 65 q 296 33 243 38 l 324 31 l 324 -4 l 147 0 l -21 -4 m 314 397 l 671 397 l 496 838 l 314 397 z "},"Á":{"ha":1035,"x_min":-21,"x_max":1056,"o":"m -21 -4 l -21 31 l -8 32 q 72 51 40 39 q 126 92 103 64 q 169 171 149 121 l 506 986 l 553 986 l 881 171 q 940 71 908 103 q 1028 33 972 39 l 1056 31 l 1056 -4 l 883 0 l 661 -4 l 661 31 l 689 33 q 758 54 738 39 q 779 97 779 69 q 760 172 779 125 l 688 353 l 296 353 l 221 172 q 204 127 211 147 q 197 92 197 107 q 220 51 197 65 q 296 33 243 38 l 324 31 l 324 -4 l 147 0 l -21 -4 m 314 397 l 671 397 l 496 838 l 314 397 m 513 1056 l 549 1306 l 661 1306 l 529 1056 l 513 1056 z "},"Ă":{"ha":1035,"x_min":-21,"x_max":1056,"o":"m -21 -4 l -21 31 l -8 32 q 72 51 40 39 q 126 92 103 64 q 169 171 149 121 l 506 986 l 553 986 l 881 171 q 940 71 908 103 q 1028 33 972 39 l 1056 31 l 1056 -4 l 883 0 l 661 -4 l 661 31 l 689 33 q 758 54 738 39 q 779 97 779 69 q 760 172 779 125 l 688 353 l 296 353 l 221 172 q 204 127 211 147 q 197 92 197 107 q 220 51 197 65 q 296 33 243 38 l 324 31 l 324 -4 l 147 0 l -21 -4 m 314 397 l 671 397 l 496 838 l 314 397 m 521 1094 q 416 1141 451 1094 q 381 1256 381 1188 l 381 1301 l 415 1301 l 415 1294 q 443 1202 415 1226 q 521 1178 471 1178 q 599 1202 571 1178 q 626 1294 626 1226 l 626 1301 l 661 1301 l 661 1256 q 626 1141 661 1188 q 521 1094 590 1094 z "},"Ǎ":{"ha":1035,"x_min":-21,"x_max":1056,"o":"m -21 -4 l -21 31 l -8 32 q 72 51 40 39 q 126 92 103 64 q 169 171 149 121 l 506 986 l 553 986 l 881 171 q 940 71 908 103 q 1028 33 972 39 l 1056 31 l 1056 -4 l 883 0 l 661 -4 l 661 31 l 689 33 q 758 54 738 39 q 779 97 779 69 q 760 172 779 125 l 688 353 l 296 353 l 221 172 q 204 127 211 147 q 197 92 197 107 q 220 51 197 65 q 296 33 243 38 l 324 31 l 324 -4 l 147 0 l -21 -4 m 314 397 l 671 397 l 496 838 l 314 397 m 375 1306 l 408 1306 l 517 1176 l 525 1176 l 633 1306 l 667 1306 l 536 1056 l 506 1056 l 375 1306 z "},"Â":{"ha":1035,"x_min":-21,"x_max":1056,"o":"m -21 -4 l -21 31 l -8 32 q 72 51 40 39 q 126 92 103 64 q 169 171 149 121 l 506 986 l 553 986 l 881 171 q 940 71 908 103 q 1028 33 972 39 l 1056 31 l 1056 -4 l 883 0 l 661 -4 l 661 31 l 689 33 q 758 54 738 39 q 779 97 779 69 q 760 172 779 125 l 688 353 l 296 353 l 221 172 q 204 127 211 147 q 197 92 197 107 q 220 51 197 65 q 296 33 243 38 l 324 31 l 324 -4 l 147 0 l -21 -4 m 314 397 l 671 397 l 496 838 l 314 397 m 372 1057 l 503 1306 l 533 1306 l 664 1057 l 631 1057 l 522 1185 l 514 1185 l 406 1057 l 372 1057 z "},"Ä":{"ha":1035,"x_min":-21,"x_max":1056,"o":"m -21 -4 l -21 31 l -8 32 q 72 51 40 39 q 126 92 103 64 q 169 171 149 121 l 506 986 l 553 986 l 881 171 q 940 71 908 103 q 1028 33 972 39 l 1056 31 l 1056 -4 l 883 0 l 661 -4 l 661 31 l 689 33 q 758 54 738 39 q 779 97 779 69 q 760 172 779 125 l 688 353 l 296 353 l 221 172 q 204 127 211 147 q 197 92 197 107 q 220 51 197 65 q 296 33 243 38 l 324 31 l 324 -4 l 147 0 l -21 -4 m 314 397 l 671 397 l 496 838 l 314 397 m 393 1142 q 341 1165 360 1142 q 322 1221 322 1188 q 341 1276 322 1253 q 393 1299 360 1299 q 446 1276 429 1299 q 463 1221 463 1253 q 446 1165 463 1188 q 393 1142 429 1142 m 657 1142 q 605 1165 624 1142 q 586 1221 586 1188 q 605 1276 586 1253 q 657 1299 624 1299 q 710 1276 693 1299 q 726 1221 726 1253 q 710 1165 726 1188 q 657 1142 693 1142 z "},"À":{"ha":1035,"x_min":-21,"x_max":1056,"o":"m -21 -4 l -21 31 l -8 32 q 72 51 40 39 q 126 92 103 64 q 169 171 149 121 l 506 986 l 553 986 l 881 171 q 940 71 908 103 q 1028 33 972 39 l 1056 31 l 1056 -4 l 883 0 l 661 -4 l 661 31 l 689 33 q 758 54 738 39 q 779 97 779 69 q 760 172 779 125 l 688 353 l 296 353 l 221 172 q 204 127 211 147 q 197 92 197 107 q 220 51 197 65 q 296 33 243 38 l 324 31 l 324 -4 l 147 0 l -21 -4 m 314 397 l 671 397 l 496 838 l 314 397 m 528 1056 l 511 1056 l 379 1306 l 492 1306 l 528 1056 z "},"Ā":{"ha":1035,"x_min":-21,"x_max":1056,"o":"m -21 -4 l -21 31 l -8 32 q 72 51 40 39 q 126 92 103 64 q 169 171 149 121 l 506 986 l 553 986 l 881 171 q 940 71 908 103 q 1028 33 972 39 l 1056 31 l 1056 -4 l 883 0 l 661 -4 l 661 31 l 689 33 q 758 54 738 39 q 779 97 779 69 q 760 172 779 125 l 688 353 l 296 353 l 221 172 q 204 127 211 147 q 197 92 197 107 q 220 51 197 65 q 296 33 243 38 l 324 31 l 324 -4 l 147 0 l -21 -4 m 314 397 l 671 397 l 496 838 l 314 397 m 357 1158 l 357 1214 l 672 1214 l 672 1158 l 357 1158 z "},"Ą":{"ha":993,"x_min":-42,"x_max":1035,"o":"m 688 -408 q 581 -370 628 -408 q 533 -265 533 -332 q 556 -172 533 -218 q 610 -87 579 -126 q 665 -22 642 -49 q 714 38 699 14 q 734 81 729 61 q 739 124 739 101 q 735 162 739 142 q 722 204 732 182 l 664 354 l 279 354 l 206 172 q 190 129 196 149 q 185 94 185 110 q 205 53 185 68 q 275 33 225 38 l 303 31 l 303 -4 l 126 0 l -42 -4 l -42 31 l -29 32 q 51 51 19 39 q 105 92 82 64 q 149 171 128 121 l 489 996 l 528 996 l 860 171 q 919 71 888 103 q 1007 33 951 39 l 1035 31 l 1035 -4 l 871 0 l 851 0 q 730 -26 785 0 q 642 -98 675 -51 q 610 -208 610 -144 q 635 -293 610 -256 q 713 -331 661 -331 q 789 -305 753 -331 q 847 -236 825 -279 l 871 -254 q 843 -325 865 -289 q 783 -385 821 -361 q 688 -408 744 -408 m 297 397 l 647 397 l 476 839 l 297 397 z "},"Å":{"ha":1035,"x_min":-21,"x_max":1056,"o":"m -21 -4 l -21 31 l -8 32 q 72 51 40 39 q 126 92 103 64 q 169 171 149 121 l 506 986 l 553 986 l 881 171 q 940 71 908 103 q 1028 33 972 39 l 1056 31 l 1056 -4 l 883 0 l 661 -4 l 661 31 l 689 33 q 758 54 738 39 q 779 97 779 69 q 760 172 779 125 l 688 353 l 296 353 l 221 172 q 204 127 211 147 q 197 92 197 107 q 220 51 197 65 q 296 33 243 38 l 324 31 l 324 -4 l 147 0 l -21 -4 m 314 397 l 671 397 l 496 838 l 314 397 m 522 1064 q 435 1099 468 1064 q 403 1182 403 1133 q 433 1263 403 1226 q 521 1300 464 1300 q 588 1281 563 1300 q 626 1235 614 1263 q 638 1182 638 1208 q 601 1092 638 1121 q 522 1064 564 1064 m 522 1107 q 570 1126 549 1107 q 592 1182 592 1144 q 570 1238 592 1218 q 521 1257 549 1257 q 473 1240 497 1257 q 449 1182 449 1222 q 471 1127 449 1147 q 522 1107 493 1107 z "},"Ǻ":{"ha":1035,"x_min":-21,"x_max":1056,"o":"m -21 -4 l -21 31 l -8 32 q 72 51 40 39 q 126 92 103 64 q 169 171 149 121 l 506 986 l 553 986 l 881 171 q 940 71 908 103 q 1028 33 972 39 l 1056 31 l 1056 -4 l 883 0 l 661 -4 l 661 31 l 689 33 q 758 54 738 39 q 779 97 779 69 q 760 172 779 125 l 688 353 l 296 353 l 221 172 q 204 127 211 147 q 197 92 197 107 q 220 51 197 65 q 296 33 243 38 l 324 31 l 324 -4 l 147 0 l -21 -4 m 314 397 l 671 397 l 496 838 l 314 397 m 522 1064 q 435 1099 468 1064 q 403 1182 403 1133 q 433 1263 403 1226 q 521 1300 464 1300 q 588 1281 563 1300 q 626 1235 614 1263 q 638 1182 638 1208 q 601 1092 638 1121 q 522 1064 564 1064 m 522 1107 q 570 1126 549 1107 q 592 1182 592 1144 q 570 1238 592 1218 q 521 1257 549 1257 q 473 1240 497 1257 q 449 1182 449 1222 q 471 1127 449 1147 q 522 1107 493 1107 m 515 1331 l 551 1581 l 664 1581 l 532 1331 l 515 1331 z "},"ǻ":{"ha":1035,"x_min":-21,"x_max":1056,"o":"m -21 -4 l -21 31 l -8 32 q 72 51 40 39 q 126 92 103 64 q 169 171 149 121 l 506 986 l 553 986 l 881 171 q 940 71 908 103 q 1028 33 972 39 l 1056 31 l 1056 -4 l 883 0 l 661 -4 l 661 31 l 689 33 q 758 54 738 39 q 779 97 779 69 q 760 172 779 125 l 688 353 l 296 353 l 221 172 q 204 127 211 147 q 197 92 197 107 q 220 51 197 65 q 296 33 243 38 l 324 31 l 324 -4 l 147 0 l -21 -4 m 314 397 l 671 397 l 496 838 l 314 397 m 522 1064 q 435 1099 468 1064 q 403 1182 403 1133 q 433 1263 403 1226 q 521 1300 464 1300 q 588 1281 563 1300 q 626 1235 614 1263 q 638 1182 638 1208 q 601 1092 638 1121 q 522 1064 564 1064 m 522 1107 q 570 1126 549 1107 q 592 1182 592 1144 q 570 1238 592 1218 q 521 1257 549 1257 q 473 1240 497 1257 q 449 1182 449 1222 q 471 1127 449 1147 q 522 1107 493 1107 m 515 1331 l 551 1581 l 664 1581 l 532 1331 l 515 1331 z "},"Ã":{"ha":1035,"x_min":-21,"x_max":1056,"o":"m -21 -4 l -21 31 l -8 32 q 72 51 40 39 q 126 92 103 64 q 169 171 149 121 l 506 986 l 553 986 l 881 171 q 940 71 908 103 q 1028 33 972 39 l 1056 31 l 1056 -4 l 883 0 l 661 -4 l 661 31 l 689 33 q 758 54 738 39 q 779 97 779 69 q 760 172 779 125 l 688 353 l 296 353 l 221 172 q 204 127 211 147 q 197 92 197 107 q 220 51 197 65 q 296 33 243 38 l 324 31 l 324 -4 l 147 0 l -21 -4 m 314 397 l 671 397 l 496 838 l 314 397 m 624 1113 q 572 1125 597 1113 q 529 1147 547 1138 l 493 1169 q 448 1195 468 1185 q 408 1206 428 1206 q 356 1179 378 1206 q 326 1128 333 1153 l 300 1128 q 313 1183 300 1149 q 351 1244 325 1217 q 419 1272 378 1272 q 472 1258 446 1272 q 513 1236 499 1244 l 564 1206 q 596 1190 575 1200 q 635 1179 617 1179 q 681 1200 663 1179 q 710 1250 700 1221 l 736 1250 q 697 1150 729 1188 q 624 1113 665 1113 z "},"Æ":{"ha":1413,"x_min":-21,"x_max":1357,"o":"m -21 -4 l -21 26 l 15 31 q 77 43 49 35 q 135 80 106 51 q 203 171 165 108 l 604 838 q 633 888 621 865 q 644 926 644 911 q 600 956 644 954 l 550 958 l 550 990 l 701 986 l 1297 986 l 1300 886 l 1311 758 l 1278 758 q 1252 860 1268 822 q 1207 917 1236 899 q 1128 942 1178 936 q 1001 949 1079 949 l 821 949 l 821 538 l 974 538 q 1022 551 1001 538 q 1056 600 1043 564 q 1072 706 1069 636 l 1107 706 l 1103 519 l 1107 314 l 1072 314 q 1047 460 1072 417 q 974 503 1022 503 l 821 503 l 821 149 q 849 64 821 93 q 956 35 876 35 l 1085 35 q 1193 44 1150 35 q 1263 81 1236 54 q 1302 159 1289 108 q 1322 292 1315 210 l 1357 292 l 1347 125 l 1343 0 l 726 0 l 511 -4 l 511 24 l 611 33 q 665 54 646 38 q 692 121 685 71 q 700 276 700 171 l 700 431 l 404 431 l 250 174 q 228 128 235 149 q 221 93 221 108 q 243 48 221 63 q 296 31 265 33 l 339 26 l 339 -4 q 260 -1 307 -1 q 163 0 213 0 q 64 -1 113 0 q -21 -4 15 -1 m 700 922 l 426 467 l 700 467 l 700 922 z "},"B":{"ha":953,"x_min":56,"x_max":869,"o":"m 56 -4 l 56 31 l 83 33 q 158 48 132 39 q 193 87 183 57 q 203 185 203 117 l 203 801 q 193 900 203 871 q 158 938 183 929 q 83 953 132 947 l 56 956 l 56 990 l 261 986 l 431 986 q 518 983 468 986 q 619 970 568 981 q 713 935 669 960 q 784 869 757 911 q 811 760 811 826 q 781 650 811 696 q 706 574 751 604 q 613 528 661 544 q 738 497 679 522 q 833 420 796 472 q 869 281 869 368 q 838 145 869 200 q 754 59 807 90 q 638 14 701 28 q 508 0 574 0 l 261 0 l 56 -4 m 472 947 l 315 947 l 315 538 l 500 538 q 634 593 586 538 q 682 760 682 649 q 657 879 682 839 q 585 933 632 919 q 472 947 539 947 m 431 39 l 508 39 q 630 58 578 39 q 710 130 682 78 q 739 279 739 182 q 707 421 739 374 q 610 483 675 468 q 444 499 544 499 l 315 499 l 315 179 q 344 67 315 96 q 431 39 372 39 z "},"C":{"ha":1000,"x_min":86,"x_max":903,"o":"m 542 -15 q 298 50 400 -15 q 141 230 196 115 q 86 493 86 344 q 122 697 86 604 q 222 860 158 790 q 370 967 286 929 q 550 1006 454 1006 q 690 987 635 1006 q 772 954 744 968 q 806 940 790 946 q 826 933 821 933 q 851 945 842 933 q 864 986 861 957 l 899 986 l 896 824 l 899 661 l 864 661 q 764 885 843 806 q 554 964 685 964 q 400 927 463 964 q 300 826 338 890 q 245 676 263 761 q 228 493 228 590 q 259 243 228 347 q 362 83 290 139 q 554 26 433 26 q 711 68 644 26 q 819 179 778 110 q 868 332 860 249 l 901 332 l 899 163 l 903 0 l 869 0 l 865 15 q 852 49 860 33 q 826 65 844 65 q 803 60 817 65 q 774 46 790 54 q 679 6 738 28 q 542 -15 621 -15 z "},"Ć":{"ha":1000,"x_min":86,"x_max":903,"o":"m 542 -15 q 298 50 400 -15 q 141 230 196 115 q 86 493 86 344 q 122 697 86 604 q 222 860 158 790 q 370 967 286 929 q 550 1006 454 1006 q 690 987 635 1006 q 772 954 744 968 q 806 940 790 946 q 826 933 821 933 q 851 945 842 933 q 864 986 861 957 l 899 986 l 896 824 l 899 661 l 864 661 q 764 885 843 806 q 554 964 685 964 q 400 927 463 964 q 300 826 338 890 q 245 676 263 761 q 228 493 228 590 q 259 243 228 347 q 362 83 290 139 q 554 26 433 26 q 711 68 644 26 q 819 179 778 110 q 868 332 860 249 l 901 332 l 899 163 l 903 0 l 869 0 l 865 15 q 852 49 860 33 q 826 65 844 65 q 803 60 817 65 q 774 46 790 54 q 679 6 738 28 q 542 -15 621 -15 m 540 1056 l 576 1306 l 689 1306 l 557 1056 l 540 1056 z "},"Č":{"ha":1000,"x_min":86,"x_max":903,"o":"m 542 -15 q 298 50 400 -15 q 141 230 196 115 q 86 493 86 344 q 122 697 86 604 q 222 860 158 790 q 370 967 286 929 q 550 1006 454 1006 q 690 987 635 1006 q 772 954 744 968 q 806 940 790 946 q 826 933 821 933 q 851 945 842 933 q 864 986 861 957 l 899 986 l 896 824 l 899 661 l 864 661 q 764 885 843 806 q 554 964 685 964 q 400 927 463 964 q 300 826 338 890 q 245 676 263 761 q 228 493 228 590 q 259 243 228 347 q 362 83 290 139 q 554 26 433 26 q 711 68 644 26 q 819 179 778 110 q 868 332 860 249 l 901 332 l 899 163 l 903 0 l 869 0 l 865 15 q 852 49 860 33 q 826 65 844 65 q 803 60 817 65 q 774 46 790 54 q 679 6 738 28 q 542 -15 621 -15 m 403 1306 l 436 1306 l 544 1176 l 553 1176 l 661 1306 l 694 1306 l 564 1056 l 533 1056 l 403 1306 z "},"Ç":{"ha":1000,"x_min":86,"x_max":903,"o":"m 542 -15 q 298 50 400 -15 q 141 230 196 115 q 86 493 86 344 q 122 697 86 604 q 222 860 158 790 q 370 967 286 929 q 550 1006 454 1006 q 690 987 635 1006 q 772 954 744 968 q 806 940 790 946 q 826 933 821 933 q 851 945 842 933 q 864 986 861 957 l 899 986 l 896 824 l 899 661 l 864 661 q 764 885 843 806 q 554 964 685 964 q 400 927 463 964 q 300 826 338 890 q 245 676 263 761 q 228 493 228 590 q 259 243 228 347 q 362 83 290 139 q 554 26 433 26 q 711 68 644 26 q 819 179 778 110 q 868 332 860 249 l 901 332 l 899 163 l 903 0 l 869 0 l 865 15 q 852 49 860 33 q 826 65 844 65 q 803 60 817 65 q 774 46 790 54 q 679 6 738 28 q 542 -15 621 -15 m 479 -406 q 381 -369 417 -406 q 336 -292 346 -332 l 367 -282 q 401 -340 374 -314 q 471 -367 428 -367 q 544 -324 519 -367 q 569 -231 569 -281 q 545 -148 569 -182 q 475 -114 521 -114 q 428 -130 451 -114 q 389 -169 404 -146 l 361 -151 q 414 -97 381 -115 q 485 -79 447 -79 l 511 0 l 553 0 l 524 -83 q 608 -137 575 -96 q 640 -235 640 -178 q 592 -358 640 -311 q 479 -406 544 -406 z "},"Ċ":{"ha":1000,"x_min":86,"x_max":903,"o":"m 542 -15 q 298 50 400 -15 q 141 230 196 115 q 86 493 86 344 q 122 697 86 604 q 222 860 158 790 q 370 967 286 929 q 550 1006 454 1006 q 690 987 635 1006 q 772 954 744 968 q 806 940 790 946 q 826 933 821 933 q 851 945 842 933 q 864 986 861 957 l 899 986 l 896 824 l 899 661 l 864 661 q 764 885 843 806 q 554 964 685 964 q 400 927 463 964 q 300 826 338 890 q 245 676 263 761 q 228 493 228 590 q 259 243 228 347 q 362 83 290 139 q 554 26 433 26 q 711 68 644 26 q 819 179 778 110 q 868 332 860 249 l 901 332 l 899 163 l 903 0 l 869 0 l 865 15 q 852 49 860 33 q 826 65 844 65 q 803 60 817 65 q 774 46 790 54 q 679 6 738 28 q 542 -15 621 -15 m 547 1103 q 490 1128 511 1103 q 469 1188 469 1153 q 490 1248 469 1224 q 547 1272 511 1272 q 606 1248 588 1272 q 625 1188 625 1224 q 606 1128 625 1153 q 547 1103 588 1103 z "},"D":{"ha":1100,"x_min":56,"x_max":1042,"o":"m 56 -4 l 56 31 l 83 33 q 158 48 132 39 q 194 87 183 57 q 204 185 204 117 l 204 801 q 194 900 204 871 q 159 938 185 929 q 85 953 133 947 l 57 956 l 57 990 l 263 986 l 458 986 q 776 936 646 986 q 974 778 906 886 q 1042 497 1042 671 q 1000 281 1042 374 q 886 125 958 188 q 722 31 814 63 q 528 0 629 0 l 261 0 l 56 -4 m 415 42 l 533 42 q 806 152 703 42 q 908 494 908 263 q 869 737 908 636 q 740 891 829 838 q 499 944 650 944 l 324 944 l 324 203 q 329 126 324 163 q 354 65 335 89 q 415 42 374 42 z "},"Ď":{"ha":1100,"x_min":56,"x_max":1042,"o":"m 56 -4 l 56 31 l 83 33 q 158 48 132 39 q 194 87 183 57 q 204 185 204 117 l 204 801 q 194 900 204 871 q 159 938 185 929 q 85 953 133 947 l 57 956 l 57 990 l 263 986 l 458 986 q 776 936 646 986 q 974 778 906 886 q 1042 497 1042 671 q 1000 281 1042 374 q 886 125 958 188 q 722 31 814 63 q 528 0 629 0 l 261 0 l 56 -4 m 415 42 l 533 42 q 806 152 703 42 q 908 494 908 263 q 869 737 908 636 q 740 891 829 838 q 499 944 650 944 l 324 944 l 324 203 q 329 126 324 163 q 354 65 335 89 q 415 42 374 42 m 357 1306 l 390 1306 l 499 1176 l 507 1176 l 615 1306 l 649 1306 l 518 1056 l 488 1056 l 357 1306 z "},"Đ":{"ha":1100,"x_min":56,"x_max":1042,"o":"m 56 -4 l 56 31 l 83 33 q 158 48 132 39 q 194 87 183 57 q 204 185 204 117 l 204 801 q 194 900 204 871 q 159 938 185 929 q 85 953 133 947 l 57 956 l 57 990 l 263 986 l 458 986 q 776 936 646 986 q 974 778 906 886 q 1042 497 1042 671 q 1000 281 1042 374 q 886 125 958 188 q 722 31 814 63 q 528 0 629 0 l 261 0 l 56 -4 m 415 42 l 533 42 q 806 152 703 42 q 908 494 908 263 q 869 737 908 636 q 740 891 829 838 q 499 944 650 944 l 324 944 l 324 203 q 329 126 324 163 q 354 65 335 89 q 415 42 374 42 m 56 488 l 56 532 l 581 532 l 581 488 l 56 488 z "},"Ð":{"ha":1100,"x_min":56,"x_max":1042,"o":"m 56 -4 l 56 31 l 83 33 q 158 48 132 39 q 194 87 183 57 q 204 185 204 117 l 204 801 q 194 900 204 871 q 159 938 185 929 q 85 953 133 947 l 57 956 l 57 990 l 263 986 l 458 986 q 776 936 646 986 q 974 778 906 886 q 1042 497 1042 671 q 1000 281 1042 374 q 886 125 958 188 q 722 31 814 63 q 528 0 629 0 l 261 0 l 56 -4 m 415 42 l 533 42 q 806 152 703 42 q 908 494 908 263 q 869 737 908 636 q 740 891 829 838 q 499 944 650 944 l 324 944 l 324 203 q 329 126 324 163 q 354 65 335 89 q 415 42 374 42 m 56 488 l 56 532 l 581 532 l 581 488 l 56 488 z "},"E":{"ha":901,"x_min":56,"x_max":846,"o":"m 56 -4 l 56 31 l 83 33 q 158 48 132 39 q 193 87 183 57 q 203 185 203 117 l 203 801 q 193 900 203 871 q 158 938 183 929 q 83 953 132 947 l 56 956 l 56 990 l 261 986 l 800 986 l 803 886 l 814 758 l 781 758 q 755 858 771 821 q 710 915 739 896 q 631 940 681 933 q 504 946 582 946 l 321 946 l 321 539 l 476 539 q 525 552 504 539 q 559 601 546 565 q 575 706 572 638 l 610 706 l 606 519 l 610 314 l 575 314 q 550 458 575 415 q 476 500 525 500 l 321 500 l 321 149 q 350 60 321 82 q 458 39 379 39 l 588 39 q 713 57 668 39 q 781 130 758 75 q 811 292 803 185 l 846 292 l 836 125 l 832 0 l 261 0 l 56 -4 z "},"É":{"ha":901,"x_min":56,"x_max":846,"o":"m 56 -4 l 56 31 l 83 33 q 158 48 132 39 q 193 87 183 57 q 203 185 203 117 l 203 801 q 193 900 203 871 q 158 938 183 929 q 83 953 132 947 l 56 956 l 56 990 l 261 986 l 800 986 l 803 886 l 814 758 l 781 758 q 755 858 771 821 q 710 915 739 896 q 631 940 681 933 q 504 946 582 946 l 321 946 l 321 539 l 476 539 q 525 552 504 539 q 559 601 546 565 q 575 706 572 638 l 610 706 l 606 519 l 610 314 l 575 314 q 550 458 575 415 q 476 500 525 500 l 321 500 l 321 149 q 350 60 321 82 q 458 39 379 39 l 588 39 q 713 57 668 39 q 781 130 758 75 q 811 292 803 185 l 846 292 l 836 125 l 832 0 l 261 0 l 56 -4 m 497 1056 l 533 1306 l 646 1306 l 514 1056 l 497 1056 z "},"Ě":{"ha":901,"x_min":56,"x_max":846,"o":"m 56 -4 l 56 31 l 83 33 q 158 48 132 39 q 193 87 183 57 q 203 185 203 117 l 203 801 q 193 900 203 871 q 158 938 183 929 q 83 953 132 947 l 56 956 l 56 990 l 261 986 l 800 986 l 803 886 l 814 758 l 781 758 q 755 858 771 821 q 710 915 739 896 q 631 940 681 933 q 504 946 582 946 l 321 946 l 321 539 l 476 539 q 525 552 504 539 q 559 601 546 565 q 575 706 572 638 l 610 706 l 606 519 l 610 314 l 575 314 q 550 458 575 415 q 476 500 525 500 l 321 500 l 321 149 q 350 60 321 82 q 458 39 379 39 l 588 39 q 713 57 668 39 q 781 130 758 75 q 811 292 803 185 l 846 292 l 836 125 l 832 0 l 261 0 l 56 -4 m 360 1306 l 393 1306 l 501 1176 l 510 1176 l 618 1306 l 651 1306 l 521 1056 l 490 1056 l 360 1306 z "},"Ê":{"ha":901,"x_min":56,"x_max":846,"o":"m 56 -4 l 56 31 l 83 33 q 158 48 132 39 q 193 87 183 57 q 203 185 203 117 l 203 801 q 193 900 203 871 q 158 938 183 929 q 83 953 132 947 l 56 956 l 56 990 l 261 986 l 800 986 l 803 886 l 814 758 l 781 758 q 755 858 771 821 q 710 915 739 896 q 631 940 681 933 q 504 946 582 946 l 321 946 l 321 539 l 476 539 q 525 552 504 539 q 559 601 546 565 q 575 706 572 638 l 610 706 l 606 519 l 610 314 l 575 314 q 550 458 575 415 q 476 500 525 500 l 321 500 l 321 149 q 350 60 321 82 q 458 39 379 39 l 588 39 q 713 57 668 39 q 781 130 758 75 q 811 292 803 185 l 846 292 l 836 125 l 832 0 l 261 0 l 56 -4 m 357 1057 l 488 1306 l 518 1306 l 649 1057 l 615 1057 l 507 1185 l 499 1185 l 390 1057 l 357 1057 z "},"Ë":{"ha":901,"x_min":56,"x_max":846,"o":"m 56 -4 l 56 31 l 83 33 q 158 48 132 39 q 193 87 183 57 q 203 185 203 117 l 203 801 q 193 900 203 871 q 158 938 183 929 q 83 953 132 947 l 56 956 l 56 990 l 261 986 l 800 986 l 803 886 l 814 758 l 781 758 q 755 858 771 821 q 710 915 739 896 q 631 940 681 933 q 504 946 582 946 l 321 946 l 321 539 l 476 539 q 525 552 504 539 q 559 601 546 565 q 575 706 572 638 l 610 706 l 606 519 l 610 314 l 575 314 q 550 458 575 415 q 476 500 525 500 l 321 500 l 321 149 q 350 60 321 82 q 458 39 379 39 l 588 39 q 713 57 668 39 q 781 130 758 75 q 811 292 803 185 l 846 292 l 836 125 l 832 0 l 261 0 l 56 -4 m 378 1142 q 326 1165 344 1142 q 307 1221 307 1188 q 326 1276 307 1253 q 378 1299 344 1299 q 431 1276 414 1299 q 447 1221 447 1253 q 431 1165 447 1188 q 378 1142 414 1142 m 642 1142 q 590 1165 608 1142 q 571 1221 571 1188 q 590 1276 571 1253 q 642 1299 608 1299 q 694 1276 678 1299 q 711 1221 711 1253 q 694 1165 711 1188 q 642 1142 678 1142 z "},"Ė":{"ha":901,"x_min":56,"x_max":846,"o":"m 56 -4 l 56 31 l 83 33 q 158 48 132 39 q 193 87 183 57 q 203 185 203 117 l 203 801 q 193 900 203 871 q 158 938 183 929 q 83 953 132 947 l 56 956 l 56 990 l 261 986 l 800 986 l 803 886 l 814 758 l 781 758 q 755 858 771 821 q 710 915 739 896 q 631 940 681 933 q 504 946 582 946 l 321 946 l 321 539 l 476 539 q 525 552 504 539 q 559 601 546 565 q 575 706 572 638 l 610 706 l 606 519 l 610 314 l 575 314 q 550 458 575 415 q 476 500 525 500 l 321 500 l 321 149 q 350 60 321 82 q 458 39 379 39 l 588 39 q 713 57 668 39 q 781 130 758 75 q 811 292 803 185 l 846 292 l 836 125 l 832 0 l 261 0 l 56 -4 m 504 1103 q 447 1128 468 1103 q 426 1188 426 1153 q 447 1248 426 1224 q 504 1272 468 1272 q 563 1248 544 1272 q 582 1188 582 1224 q 563 1128 582 1153 q 504 1103 544 1103 z "},"È":{"ha":901,"x_min":56,"x_max":846,"o":"m 56 -4 l 56 31 l 83 33 q 158 48 132 39 q 193 87 183 57 q 203 185 203 117 l 203 801 q 193 900 203 871 q 158 938 183 929 q 83 953 132 947 l 56 956 l 56 990 l 261 986 l 800 986 l 803 886 l 814 758 l 781 758 q 755 858 771 821 q 710 915 739 896 q 631 940 681 933 q 504 946 582 946 l 321 946 l 321 539 l 476 539 q 525 552 504 539 q 559 601 546 565 q 575 706 572 638 l 610 706 l 606 519 l 610 314 l 575 314 q 550 458 575 415 q 476 500 525 500 l 321 500 l 321 149 q 350 60 321 82 q 458 39 379 39 l 588 39 q 713 57 668 39 q 781 130 758 75 q 811 292 803 185 l 846 292 l 836 125 l 832 0 l 261 0 l 56 -4 m 513 1056 l 496 1056 l 364 1306 l 476 1306 l 513 1056 z "},"Ē":{"ha":901,"x_min":56,"x_max":846,"o":"m 56 -4 l 56 31 l 83 33 q 158 48 132 39 q 193 87 183 57 q 203 185 203 117 l 203 801 q 193 900 203 871 q 158 938 183 929 q 83 953 132 947 l 56 956 l 56 990 l 261 986 l 800 986 l 803 886 l 814 758 l 781 758 q 755 858 771 821 q 710 915 739 896 q 631 940 681 933 q 504 946 582 946 l 321 946 l 321 539 l 476 539 q 525 552 504 539 q 559 601 546 565 q 575 706 572 638 l 610 706 l 606 519 l 610 314 l 575 314 q 550 458 575 415 q 476 500 525 500 l 321 500 l 321 149 q 350 60 321 82 q 458 39 379 39 l 588 39 q 713 57 668 39 q 781 130 758 75 q 811 292 803 185 l 846 292 l 836 125 l 832 0 l 261 0 l 56 -4 m 342 1158 l 342 1214 l 657 1214 l 657 1158 l 342 1158 z "},"Ę":{"ha":901,"x_min":56,"x_max":867,"o":"m 56 -4 l 56 31 l 83 33 q 158 48 132 39 q 193 87 183 57 q 203 185 203 117 l 203 801 q 193 900 203 871 q 158 938 183 929 q 83 953 132 947 l 56 956 l 56 990 l 261 986 l 800 986 l 803 886 l 814 758 l 781 758 q 755 858 771 821 q 710 915 739 896 q 631 940 681 933 q 504 946 582 946 l 321 946 l 321 539 l 476 539 q 525 552 504 539 q 559 601 546 565 q 575 706 572 638 l 610 706 l 606 519 l 610 314 l 575 314 q 550 458 575 415 q 476 500 525 500 l 321 500 l 321 149 q 350 60 321 82 q 458 39 379 39 l 588 39 q 713 57 668 39 q 781 130 758 75 q 811 292 803 185 l 846 292 l 836 125 l 832 0 q 731 -29 782 0 q 644 -106 679 -58 q 610 -214 610 -154 q 641 -302 610 -272 q 715 -332 672 -332 q 789 -306 754 -332 q 843 -236 824 -279 l 867 -254 q 842 -325 863 -289 q 784 -385 822 -361 q 686 -408 746 -408 q 579 -367 622 -408 q 536 -265 536 -326 q 586 -125 536 -199 q 729 0 636 -51 l 261 0 l 56 -4 z "},"F":{"ha":843,"x_min":56,"x_max":836,"o":"m 56 -4 l 56 31 l 83 33 q 158 48 132 39 q 193 87 183 57 q 203 185 203 117 l 203 801 q 193 900 203 871 q 158 938 183 929 q 83 953 132 947 l 56 956 l 56 990 l 261 986 l 819 986 l 824 885 l 836 761 l 803 761 q 770 869 797 831 q 704 923 743 907 q 624 942 665 939 q 549 946 583 946 l 321 946 l 321 539 l 476 539 q 525 552 504 539 q 559 601 546 565 q 575 706 572 638 l 610 706 l 606 519 l 610 314 l 575 314 q 550 458 575 415 q 476 500 525 500 l 321 500 l 321 185 q 332 85 321 117 q 369 45 343 54 q 440 33 396 36 l 488 31 l 488 -4 l 263 0 l 261 0 l 56 -4 z "},"Ƒ":{"ha":843,"x_min":-68,"x_max":836,"o":"m 92 -403 q 15 -387 51 -403 q -45 -344 -22 -372 q -68 -281 -68 -317 q -50 -230 -68 -253 q 4 -207 -32 -207 q 49 -223 31 -207 q 67 -264 67 -239 q 64 -285 67 -276 q 58 -301 61 -294 q 53 -317 56 -310 q 51 -331 51 -324 q 62 -357 51 -344 q 100 -369 72 -369 q 160 -351 139 -369 q 190 -306 181 -332 q 201 -254 199 -279 q 203 -217 203 -229 l 203 801 q 193 900 203 871 q 158 938 183 929 q 83 953 132 947 l 56 956 l 56 990 l 261 986 l 819 986 l 824 885 l 836 761 l 803 761 q 770 870 797 832 q 704 925 743 908 q 624 945 665 942 q 549 949 583 949 l 321 949 l 321 525 l 492 525 q 540 538 519 525 q 574 588 561 551 q 590 692 588 624 l 625 692 l 621 506 l 625 300 l 590 300 q 565 447 590 403 q 492 490 540 490 l 321 490 l 321 -192 q 300 -304 321 -262 q 245 -367 279 -346 q 171 -396 211 -389 q 92 -403 131 -403 z "},"G":{"ha":1090,"x_min":86,"x_max":1074,"o":"m 547 -15 q 315 47 419 -15 q 148 224 210 110 q 86 493 86 338 q 124 700 86 606 q 226 863 161 794 q 376 968 292 931 q 556 1006 461 1006 q 665 990 617 1006 q 744 961 714 975 q 795 940 781 946 q 828 935 810 935 q 855 952 847 935 q 863 986 863 969 l 897 986 l 894 826 l 897 664 l 863 664 q 813 826 860 758 q 697 928 767 893 q 551 964 626 964 q 308 842 389 964 q 228 493 228 719 q 314 140 228 254 q 556 26 400 26 q 693 51 633 26 q 788 117 753 76 q 822 203 822 158 l 822 242 q 794 329 822 303 q 689 363 765 356 l 629 368 l 629 401 l 860 396 l 1074 401 l 1074 368 l 1011 363 q 950 333 974 360 q 926 242 926 307 l 926 217 q 937 157 926 185 q 957 110 947 129 l 976 75 l 944 54 q 909 94 926 83 q 879 104 892 104 q 839 93 857 104 q 800 67 821 82 q 744 31 776 50 q 664 -2 711 11 q 547 -15 617 -15 z "},"Ğ":{"ha":1090,"x_min":86,"x_max":1074,"o":"m 547 -15 q 315 47 419 -15 q 148 224 210 110 q 86 493 86 338 q 124 700 86 606 q 226 863 161 794 q 376 968 292 931 q 556 1006 461 1006 q 665 990 617 1006 q 744 961 714 975 q 795 940 781 946 q 828 935 810 935 q 855 952 847 935 q 863 986 863 969 l 897 986 l 894 826 l 897 664 l 863 664 q 813 826 860 758 q 697 928 767 893 q 551 964 626 964 q 308 842 389 964 q 228 493 228 719 q 314 140 228 254 q 556 26 400 26 q 693 51 633 26 q 788 117 753 76 q 822 203 822 158 l 822 242 q 794 329 822 303 q 689 363 765 356 l 629 368 l 629 401 l 860 396 l 1074 401 l 1074 368 l 1011 363 q 950 333 974 360 q 926 242 926 307 l 926 217 q 937 157 926 185 q 957 110 947 129 l 976 75 l 944 54 q 909 94 926 83 q 879 104 892 104 q 839 93 857 104 q 800 67 821 82 q 744 31 776 50 q 664 -2 711 11 q 547 -15 617 -15 m 556 1094 q 451 1141 486 1094 q 415 1256 415 1188 l 415 1301 l 450 1301 l 450 1294 q 478 1202 450 1226 q 556 1178 506 1178 q 633 1202 606 1178 q 661 1294 661 1226 l 661 1301 l 696 1301 l 696 1256 q 660 1141 696 1188 q 556 1094 625 1094 z "},"Ģ":{"ha":1090,"x_min":86,"x_max":1074,"o":"m 547 -15 q 315 47 419 -15 q 148 224 210 110 q 86 493 86 338 q 124 700 86 606 q 226 863 161 794 q 376 968 292 931 q 556 1006 461 1006 q 665 990 617 1006 q 744 961 714 975 q 795 940 781 946 q 828 935 810 935 q 855 952 847 935 q 863 986 863 969 l 897 986 l 894 826 l 897 664 l 863 664 q 813 826 860 758 q 697 928 767 893 q 551 964 626 964 q 308 842 389 964 q 228 493 228 719 q 314 140 228 254 q 556 26 400 26 q 693 51 633 26 q 788 117 753 76 q 822 203 822 158 l 822 242 q 794 329 822 303 q 689 363 765 356 l 629 368 l 629 401 l 860 396 l 1074 401 l 1074 368 l 1011 363 q 950 333 974 360 q 926 242 926 307 l 926 217 q 937 157 926 185 q 957 110 947 129 l 976 75 l 944 54 q 909 94 926 83 q 879 104 892 104 q 839 93 857 104 q 800 67 821 82 q 744 31 776 50 q 664 -2 711 11 q 547 -15 617 -15 m 546 -400 l 532 -379 q 599 -319 569 -353 q 628 -237 628 -286 q 623 -201 628 -218 q 607 -189 618 -185 q 606 -191 606 -190 q 606 -192 606 -192 q 608 -200 606 -194 q 610 -212 610 -206 q 595 -239 610 -226 q 561 -251 581 -251 q 516 -234 533 -251 q 499 -189 499 -217 q 517 -140 499 -158 q 567 -121 536 -121 q 627 -151 604 -121 q 650 -235 650 -182 q 620 -335 650 -299 q 546 -400 590 -371 z "},"Ġ":{"ha":1090,"x_min":86,"x_max":1074,"o":"m 547 -15 q 315 47 419 -15 q 148 224 210 110 q 86 493 86 338 q 124 700 86 606 q 226 863 161 794 q 376 968 292 931 q 556 1006 461 1006 q 665 990 617 1006 q 744 961 714 975 q 795 940 781 946 q 828 935 810 935 q 855 952 847 935 q 863 986 863 969 l 897 986 l 894 826 l 897 664 l 863 664 q 813 826 860 758 q 697 928 767 893 q 551 964 626 964 q 308 842 389 964 q 228 493 228 719 q 314 140 228 254 q 556 26 400 26 q 693 51 633 26 q 788 117 753 76 q 822 203 822 158 l 822 242 q 794 329 822 303 q 689 363 765 356 l 629 368 l 629 401 l 860 396 l 1074 401 l 1074 368 l 1011 363 q 950 333 974 360 q 926 242 926 307 l 926 217 q 937 157 926 185 q 957 110 947 129 l 976 75 l 944 54 q 909 94 926 83 q 879 104 892 104 q 839 93 857 104 q 800 67 821 82 q 744 31 776 50 q 664 -2 711 11 q 547 -15 617 -15 m 554 1103 q 497 1128 518 1103 q 476 1188 476 1153 q 497 1248 476 1224 q 554 1272 518 1272 q 613 1248 594 1272 q 632 1188 632 1224 q 613 1128 632 1153 q 554 1103 594 1103 z "},"H":{"ha":1171,"x_min":56,"x_max":1115,"o":"m 56 -4 l 56 31 l 83 33 q 158 48 132 39 q 193 87 183 57 q 203 185 203 117 l 203 801 q 193 900 203 871 q 158 938 183 929 q 83 953 132 947 l 56 956 l 56 990 l 261 986 l 263 986 l 468 990 l 468 956 l 440 953 q 367 938 393 947 q 331 900 340 929 q 321 801 321 871 l 321 533 l 850 533 l 850 801 q 840 900 850 871 q 805 938 831 929 q 731 953 779 947 l 703 956 l 703 990 l 908 986 l 910 986 l 1115 990 l 1115 956 l 1088 953 q 1014 938 1040 947 q 978 900 988 929 q 968 801 968 871 l 968 185 q 978 87 968 117 q 1014 48 988 57 q 1088 33 1040 39 l 1115 31 l 1115 -4 l 910 0 l 908 0 l 703 -4 l 703 31 l 731 33 q 805 48 779 39 q 840 87 831 57 q 850 185 850 117 l 850 489 l 321 489 l 321 185 q 331 87 321 117 q 367 48 340 57 q 440 33 393 39 l 468 31 l 468 -4 l 263 0 l 261 0 l 56 -4 z "},"Ħ":{"ha":1171,"x_min":56,"x_max":1115,"o":"m 56 -4 l 56 31 l 83 33 q 158 48 132 39 q 193 87 183 57 q 203 185 203 117 l 203 801 q 193 900 203 871 q 158 938 183 929 q 83 953 132 947 l 56 956 l 56 990 l 261 986 l 263 986 l 468 990 l 468 956 l 440 953 q 367 938 393 947 q 331 900 340 929 q 321 801 321 871 l 321 533 l 850 533 l 850 801 q 840 900 850 871 q 805 938 831 929 q 731 953 779 947 l 703 956 l 703 990 l 908 986 l 910 986 l 1115 990 l 1115 956 l 1088 953 q 1014 938 1040 947 q 978 900 988 929 q 968 801 968 871 l 968 185 q 978 87 968 117 q 1014 48 988 57 q 1088 33 1040 39 l 1115 31 l 1115 -4 l 910 0 l 908 0 l 703 -4 l 703 31 l 731 33 q 805 48 779 39 q 840 87 831 57 q 850 185 850 117 l 850 489 l 321 489 l 321 185 q 331 87 321 117 q 367 48 340 57 q 440 33 393 39 l 468 31 l 468 -4 l 263 0 l 261 0 l 56 -4 m 61 703 l 61 743 l 1106 743 l 1106 703 l 61 703 z "},"I":{"ha":524,"x_min":56,"x_max":468,"o":"m 56 -4 l 56 31 l 83 33 q 158 48 132 39 q 193 87 183 57 q 203 185 203 117 l 203 801 q 193 900 203 871 q 158 938 183 929 q 83 953 132 947 l 56 956 l 56 990 l 261 986 l 263 986 l 468 990 l 468 956 l 440 953 q 367 938 393 947 q 331 900 340 929 q 321 801 321 871 l 321 185 q 331 87 321 117 q 367 48 340 57 q 440 33 393 39 l 468 31 l 468 -4 l 263 0 l 261 0 l 56 -4 z "},"Ĳ":{"ha":1122,"x_min":56,"x_max":1081,"o":"m 56 -4 l 56 31 l 83 33 q 158 48 132 39 q 193 87 183 57 q 203 185 203 117 l 203 801 q 193 900 203 871 q 158 938 183 929 q 83 953 132 947 l 56 956 l 56 990 l 261 986 l 263 986 l 468 990 l 468 956 l 440 953 q 367 938 393 947 q 331 900 340 929 q 321 801 321 871 l 321 185 q 331 87 321 117 q 367 48 340 57 q 440 33 393 39 l 468 31 l 468 -4 l 263 0 l 261 0 l 56 -4 m 704 -15 q 627 0 664 -15 q 567 43 590 15 q 544 107 544 71 q 563 158 544 135 q 617 181 581 181 q 661 165 643 181 q 679 124 679 149 q 676 102 679 111 q 671 86 674 93 q 666 71 668 78 q 664 57 664 64 q 674 31 664 43 q 713 18 685 18 q 772 37 751 18 q 802 82 793 56 q 813 133 811 108 q 815 171 815 158 l 815 801 q 806 900 815 871 q 770 938 796 929 q 696 953 744 947 l 668 956 l 668 990 l 874 986 l 875 986 l 1081 990 l 1081 956 l 1053 953 q 979 938 1006 947 q 943 900 953 929 q 933 801 933 871 l 933 196 q 913 83 933 125 q 858 20 892 42 q 783 -8 824 -1 q 704 -15 743 -15 z "},"Í":{"ha":524,"x_min":56,"x_max":468,"o":"m 56 -4 l 56 31 l 83 33 q 158 48 132 39 q 193 87 183 57 q 203 185 203 117 l 203 801 q 193 900 203 871 q 158 938 183 929 q 83 953 132 947 l 56 956 l 56 990 l 261 986 l 263 986 l 468 990 l 468 956 l 440 953 q 367 938 393 947 q 331 900 340 929 q 321 801 321 871 l 321 185 q 331 87 321 117 q 367 48 340 57 q 440 33 393 39 l 468 31 l 468 -4 l 263 0 l 261 0 l 56 -4 m 253 1056 l 289 1306 l 401 1306 l 269 1056 l 253 1056 z "},"Ǐ":{"ha":524,"x_min":56,"x_max":468,"o":"m 56 -4 l 56 31 l 83 33 q 158 48 132 39 q 193 87 183 57 q 203 185 203 117 l 203 801 q 193 900 203 871 q 158 938 183 929 q 83 953 132 947 l 56 956 l 56 990 l 261 986 l 263 986 l 468 990 l 468 956 l 440 953 q 367 938 393 947 q 331 900 340 929 q 321 801 321 871 l 321 185 q 331 87 321 117 q 367 48 340 57 q 440 33 393 39 l 468 31 l 468 -4 l 263 0 l 261 0 l 56 -4 m 115 1306 l 149 1306 l 257 1176 l 265 1176 l 374 1306 l 407 1306 l 276 1056 l 246 1056 l 115 1306 z "},"Î":{"ha":524,"x_min":56,"x_max":468,"o":"m 56 -4 l 56 31 l 83 33 q 158 48 132 39 q 193 87 183 57 q 203 185 203 117 l 203 801 q 193 900 203 871 q 158 938 183 929 q 83 953 132 947 l 56 956 l 56 990 l 261 986 l 263 986 l 468 990 l 468 956 l 440 953 q 367 938 393 947 q 331 900 340 929 q 321 801 321 871 l 321 185 q 331 87 321 117 q 367 48 340 57 q 440 33 393 39 l 468 31 l 468 -4 l 263 0 l 261 0 l 56 -4 m 113 1057 l 243 1306 l 274 1306 l 404 1057 l 371 1057 l 263 1185 l 254 1185 l 146 1057 l 113 1057 z "},"Ï":{"ha":524,"x_min":56,"x_max":468,"o":"m 56 -4 l 56 31 l 83 33 q 158 48 132 39 q 193 87 183 57 q 203 185 203 117 l 203 801 q 193 900 203 871 q 158 938 183 929 q 83 953 132 947 l 56 956 l 56 990 l 261 986 l 263 986 l 468 990 l 468 956 l 440 953 q 367 938 393 947 q 331 900 340 929 q 321 801 321 871 l 321 185 q 331 87 321 117 q 367 48 340 57 q 440 33 393 39 l 468 31 l 468 -4 l 263 0 l 261 0 l 56 -4 m 133 1142 q 81 1165 100 1142 q 63 1221 63 1188 q 81 1276 63 1253 q 133 1299 100 1299 q 186 1276 169 1299 q 203 1221 203 1253 q 186 1165 203 1188 q 133 1142 169 1142 m 397 1142 q 345 1165 364 1142 q 326 1221 326 1188 q 345 1276 326 1253 q 397 1299 364 1299 q 450 1276 433 1299 q 467 1221 467 1253 q 450 1165 467 1188 q 397 1142 433 1142 z "},"İ":{"ha":524,"x_min":56,"x_max":468,"o":"m 56 -4 l 56 31 l 83 33 q 158 48 132 39 q 193 87 183 57 q 203 185 203 117 l 203 801 q 193 900 203 871 q 158 938 183 929 q 83 953 132 947 l 56 956 l 56 990 l 261 986 l 263 986 l 468 990 l 468 956 l 440 953 q 367 938 393 947 q 331 900 340 929 q 321 801 321 871 l 321 185 q 331 87 321 117 q 367 48 340 57 q 440 33 393 39 l 468 31 l 468 -4 l 263 0 l 261 0 l 56 -4 m 260 1103 q 203 1128 224 1103 q 182 1188 182 1153 q 203 1248 182 1224 q 260 1272 224 1272 q 319 1248 300 1272 q 338 1188 338 1224 q 319 1128 338 1153 q 260 1103 300 1103 z "},"Ì":{"ha":524,"x_min":56,"x_max":468,"o":"m 56 -4 l 56 31 l 83 33 q 158 48 132 39 q 193 87 183 57 q 203 185 203 117 l 203 801 q 193 900 203 871 q 158 938 183 929 q 83 953 132 947 l 56 956 l 56 990 l 261 986 l 263 986 l 468 990 l 468 956 l 440 953 q 367 938 393 947 q 331 900 340 929 q 321 801 321 871 l 321 185 q 331 87 321 117 q 367 48 340 57 q 440 33 393 39 l 468 31 l 468 -4 l 263 0 l 261 0 l 56 -4 m 268 1056 l 251 1056 l 119 1306 l 232 1306 l 268 1056 z "},"Ī":{"ha":524,"x_min":56,"x_max":468,"o":"m 56 -4 l 56 31 l 83 33 q 158 48 132 39 q 193 87 183 57 q 203 185 203 117 l 203 801 q 193 900 203 871 q 158 938 183 929 q 83 953 132 947 l 56 956 l 56 990 l 261 986 l 263 986 l 468 990 l 468 956 l 440 953 q 367 938 393 947 q 331 900 340 929 q 321 801 321 871 l 321 185 q 331 87 321 117 q 367 48 340 57 q 440 33 393 39 l 468 31 l 468 -4 l 263 0 l 261 0 l 56 -4 m 97 1158 l 97 1214 l 413 1214 l 413 1158 l 97 1158 z "},"Į":{"ha":524,"x_min":56,"x_max":468,"o":"m 56 -4 l 56 31 l 83 33 q 158 48 132 39 q 193 87 183 57 q 203 185 203 117 l 203 801 q 193 900 203 871 q 158 938 183 929 q 83 953 132 947 l 56 956 l 56 990 l 261 986 l 263 986 l 468 990 l 468 956 l 440 953 q 367 938 393 947 q 331 900 340 929 q 321 801 321 871 l 321 185 q 331 87 321 117 q 367 48 340 57 q 440 33 393 39 l 468 31 l 468 -4 l 263 0 l 261 0 l 56 -4 m 244 -408 q 138 -367 181 -408 q 94 -267 94 -326 q 124 -163 94 -214 q 196 -64 154 -112 q 274 26 238 -15 l 310 26 q 207 -95 250 -39 q 164 -214 164 -151 q 194 -302 164 -272 q 274 -332 224 -332 q 347 -306 313 -332 q 401 -236 382 -279 l 425 -254 q 401 -325 421 -289 q 342 -385 381 -361 q 244 -408 304 -408 z "},"J":{"ha":599,"x_min":21,"x_max":557,"o":"m 181 -15 q 103 0 140 -15 q 44 43 67 15 q 21 107 21 71 q 39 158 21 135 q 93 181 57 181 q 138 165 119 181 q 156 124 156 149 q 153 102 156 111 q 147 86 150 93 q 142 71 144 78 q 140 57 140 64 q 151 31 140 43 q 189 18 161 18 q 249 37 228 18 q 278 82 269 56 q 290 133 288 108 q 292 171 292 158 l 292 801 q 282 900 292 871 q 247 938 272 929 q 172 953 221 947 l 144 956 l 144 990 l 350 986 l 351 986 l 557 990 l 557 956 l 529 953 q 456 938 482 947 q 419 900 429 929 q 410 801 410 871 l 410 196 q 389 83 410 125 q 334 20 368 42 q 260 -8 300 -1 q 181 -15 219 -15 z "},"K":{"ha":1029,"x_min":56,"x_max":1057,"o":"m 56 -4 l 56 31 l 83 33 q 158 48 132 39 q 193 87 183 57 q 203 185 203 117 l 203 801 q 193 900 203 871 q 158 938 183 929 q 83 953 132 947 l 56 956 l 56 990 l 261 986 l 446 990 l 446 954 l 418 951 q 354 936 376 947 q 324 894 332 925 q 315 801 315 864 l 315 429 l 635 803 q 677 863 664 838 q 690 906 690 888 q 626 950 690 943 l 582 954 l 582 990 l 760 986 l 928 990 l 928 956 l 881 950 q 802 917 839 944 q 725 842 765 889 l 508 586 l 775 238 q 860 132 822 176 q 938 63 899 88 q 1028 33 978 39 l 1057 31 l 1057 -4 l 846 0 l 640 -4 l 640 31 l 661 32 q 728 72 728 36 q 690 149 728 100 l 426 489 l 315 358 l 315 185 q 324 87 315 117 q 357 48 333 57 q 425 33 381 39 l 450 31 l 450 -4 l 263 0 l 261 0 l 56 -4 z "},"Ķ":{"ha":1029,"x_min":56,"x_max":1057,"o":"m 56 -4 l 56 31 l 83 33 q 158 48 132 39 q 193 87 183 57 q 203 185 203 117 l 203 801 q 193 900 203 871 q 158 938 183 929 q 83 953 132 947 l 56 956 l 56 990 l 261 986 l 446 990 l 446 954 l 418 951 q 354 936 376 947 q 324 894 332 925 q 315 801 315 864 l 315 429 l 635 803 q 677 863 664 838 q 690 906 690 888 q 626 950 690 943 l 582 954 l 582 990 l 760 986 l 928 990 l 928 956 l 881 950 q 802 917 839 944 q 725 842 765 889 l 508 586 l 775 238 q 860 132 822 176 q 938 63 899 88 q 1028 33 978 39 l 1057 31 l 1057 -4 l 846 0 l 640 -4 l 640 31 l 661 32 q 728 72 728 36 q 690 149 728 100 l 426 489 l 315 358 l 315 185 q 324 87 315 117 q 357 48 333 57 q 425 33 381 39 l 450 31 l 450 -4 l 263 0 l 261 0 l 56 -4 m 538 -400 l 524 -379 q 590 -319 561 -353 q 619 -237 619 -286 q 615 -201 619 -218 q 599 -189 610 -185 q 597 -191 597 -190 q 597 -192 597 -192 q 599 -200 597 -194 q 601 -212 601 -206 q 587 -239 601 -226 q 553 -251 572 -251 q 508 -234 525 -251 q 490 -189 490 -217 q 509 -140 490 -158 q 558 -121 528 -121 q 619 -151 596 -121 q 642 -235 642 -182 q 612 -335 642 -299 q 538 -400 582 -371 z "},"L":{"ha":904,"x_min":56,"x_max":856,"o":"m 56 -4 l 56 31 l 83 33 q 158 47 132 39 q 193 86 183 56 q 203 185 203 117 l 203 801 q 193 901 203 871 q 158 940 183 931 q 83 953 132 949 l 56 956 l 56 990 l 264 986 l 443 990 l 443 958 l 421 956 q 359 943 381 951 q 329 908 338 935 q 321 818 321 881 l 321 239 q 328 126 321 171 q 371 61 336 82 q 483 40 406 40 l 588 40 q 762 105 708 40 q 825 292 815 169 l 856 292 l 842 -4 l 261 0 l 56 -4 z "},"Ĺ":{"ha":904,"x_min":56,"x_max":856,"o":"m 56 -4 l 56 31 l 83 33 q 158 47 132 39 q 193 86 183 56 q 203 185 203 117 l 203 801 q 193 901 203 871 q 158 940 183 931 q 83 953 132 949 l 56 956 l 56 990 l 264 986 l 443 990 l 443 958 l 421 956 q 359 943 381 951 q 329 908 338 935 q 321 818 321 881 l 321 239 q 328 126 321 171 q 371 61 336 82 q 483 40 406 40 l 588 40 q 762 105 708 40 q 825 292 815 169 l 856 292 l 842 -4 l 261 0 l 56 -4 m 254 1056 l 290 1306 l 403 1306 l 271 1056 l 254 1056 z "},"Ľ":{"ha":904,"x_min":56,"x_max":856,"o":"m 56 -4 l 56 31 l 83 33 q 158 47 132 39 q 193 86 183 56 q 203 185 203 117 l 203 801 q 193 901 203 871 q 158 940 183 931 q 83 953 132 949 l 56 956 l 56 990 l 264 986 l 443 990 l 443 958 l 421 956 q 359 943 381 951 q 329 908 338 935 q 321 818 321 881 l 321 239 q 328 126 321 171 q 371 61 336 82 q 483 40 406 40 l 588 40 q 762 105 708 40 q 825 292 815 169 l 856 292 l 842 -4 l 261 0 l 56 -4 m 596 715 l 625 986 l 735 986 l 644 715 l 596 715 z "},"Ļ":{"ha":904,"x_min":56,"x_max":856,"o":"m 56 -4 l 56 31 l 83 33 q 158 47 132 39 q 193 86 183 56 q 203 185 203 117 l 203 801 q 193 901 203 871 q 158 940 183 931 q 83 953 132 949 l 56 956 l 56 990 l 264 986 l 443 990 l 443 958 l 421 956 q 359 943 381 951 q 329 908 338 935 q 321 818 321 881 l 321 239 q 328 126 321 171 q 371 61 336 82 q 483 40 406 40 l 588 40 q 762 105 708 40 q 825 292 815 169 l 856 292 l 842 -4 l 261 0 l 56 -4 m 490 -400 l 476 -379 q 543 -319 514 -353 q 572 -237 572 -286 q 567 -201 572 -218 q 551 -189 563 -185 q 550 -191 550 -190 q 550 -192 550 -192 q 552 -200 550 -194 q 554 -212 554 -206 q 540 -239 554 -226 q 506 -251 525 -251 q 460 -234 478 -251 q 443 -189 443 -217 q 462 -140 443 -158 q 511 -121 481 -121 q 572 -151 549 -121 q 594 -235 594 -182 q 565 -335 594 -299 q 490 -400 535 -371 z "},"Ŀ":{"ha":904,"x_min":56,"x_max":856,"o":"m 56 -4 l 56 31 l 83 33 q 158 47 132 39 q 193 86 183 56 q 203 185 203 117 l 203 801 q 193 901 203 871 q 158 940 183 931 q 83 953 132 949 l 56 956 l 56 990 l 264 986 l 443 990 l 443 958 l 421 956 q 359 943 381 951 q 329 908 338 935 q 321 818 321 881 l 321 239 q 328 126 321 171 q 371 61 336 82 q 483 40 406 40 l 588 40 q 762 105 708 40 q 825 292 815 169 l 856 292 l 842 -4 l 261 0 l 56 -4 m 717 431 q 653 457 678 431 q 628 519 628 483 q 653 580 628 554 q 717 606 678 606 q 778 580 753 606 q 803 519 803 554 q 778 457 803 483 q 717 431 753 431 z "},"Ł":{"ha":904,"x_min":56,"x_max":856,"o":"m 56 -4 l 56 31 l 83 33 q 158 47 132 39 q 193 86 183 56 q 203 185 203 117 l 203 801 q 193 901 203 871 q 158 940 183 931 q 83 953 132 949 l 56 956 l 56 990 l 264 986 l 443 990 l 443 958 l 421 956 q 359 943 381 951 q 329 908 338 935 q 321 818 321 881 l 321 239 q 328 126 321 171 q 371 61 336 82 q 483 40 406 40 l 588 40 q 762 105 708 40 q 825 292 815 169 l 856 292 l 842 -4 l 261 0 l 56 -4 m 57 388 l 57 433 l 531 676 l 531 600 l 57 388 z "},"M":{"ha":1361,"x_min":49,"x_max":1306,"o":"m 49 -4 l 49 31 l 76 33 q 151 48 125 39 q 186 87 176 57 q 196 185 196 117 l 196 801 q 186 900 196 871 q 151 938 176 929 q 76 953 125 947 l 49 956 l 49 990 l 254 986 l 332 986 l 663 185 l 1028 986 l 1111 986 l 1306 990 l 1306 956 l 1278 953 q 1204 938 1231 947 q 1168 900 1178 929 q 1158 801 1158 871 l 1158 185 q 1168 86 1158 117 q 1204 47 1178 56 q 1278 33 1231 39 l 1306 31 l 1306 -4 l 1100 0 l 893 -4 l 893 31 l 921 33 q 995 47 969 39 q 1031 86 1021 56 q 1040 185 1040 117 l 1040 899 l 629 0 l 603 0 l 244 885 l 244 146 q 256 79 244 101 q 292 48 267 57 q 364 33 318 39 l 392 31 l 392 -4 l 215 0 l 49 -4 z "},"N":{"ha":1085,"x_min":49,"x_max":1057,"o":"m 54 -6 l 54 29 l 82 32 q 156 46 131 38 q 192 85 182 54 q 201 185 201 115 l 201 901 q 164 935 189 917 q 90 954 139 954 l 49 954 l 49 990 l 318 986 q 385 894 343 951 q 480 768 428 838 q 588 626 532 699 q 695 485 643 553 q 789 363 747 417 q 854 276 831 308 l 854 801 q 844 901 854 871 q 809 940 835 931 q 735 953 783 949 l 707 956 l 707 990 l 888 986 l 1057 990 l 1057 956 l 1029 953 q 956 938 982 947 q 919 900 929 929 q 910 801 910 871 l 910 0 l 868 0 q 802 113 846 46 q 701 261 758 181 q 583 426 644 342 q 460 589 521 510 q 346 733 399 668 q 257 842 293 799 l 257 185 q 267 85 257 115 q 303 46 276 54 q 376 32 329 38 l 404 29 l 404 -6 l 226 0 l 54 -6 z "},"Ń":{"ha":1085,"x_min":49,"x_max":1057,"o":"m 54 -6 l 54 29 l 82 32 q 156 46 131 38 q 192 85 182 54 q 201 185 201 115 l 201 901 q 164 935 189 917 q 90 954 139 954 l 49 954 l 49 990 l 318 986 q 385 894 343 951 q 480 768 428 838 q 588 626 532 699 q 695 485 643 553 q 789 363 747 417 q 854 276 831 308 l 854 801 q 844 901 854 871 q 809 940 835 931 q 735 953 783 949 l 707 956 l 707 990 l 888 986 l 1057 990 l 1057 956 l 1029 953 q 956 938 982 947 q 919 900 929 929 q 910 801 910 871 l 910 0 l 868 0 q 802 113 846 46 q 701 261 758 181 q 583 426 644 342 q 460 589 521 510 q 346 733 399 668 q 257 842 293 799 l 257 185 q 267 85 257 115 q 303 46 276 54 q 376 32 329 38 l 404 29 l 404 -6 l 226 0 l 54 -6 m 510 1103 l 564 1308 q 591 1369 575 1353 q 624 1386 607 1386 q 653 1374 640 1386 q 667 1336 667 1361 q 660 1302 667 1319 q 643 1268 654 1285 l 540 1103 l 510 1103 z "},"Ň":{"ha":1085,"x_min":49,"x_max":1057,"o":"m 54 -6 l 54 29 l 82 32 q 156 46 131 38 q 192 85 182 54 q 201 185 201 115 l 201 901 q 164 935 189 917 q 90 954 139 954 l 49 954 l 49 990 l 318 986 q 385 894 343 951 q 480 768 428 838 q 588 626 532 699 q 695 485 643 553 q 789 363 747 417 q 854 276 831 308 l 854 801 q 844 901 854 871 q 809 940 835 931 q 735 953 783 949 l 707 956 l 707 990 l 888 986 l 1057 990 l 1057 956 l 1029 953 q 956 938 982 947 q 919 900 929 929 q 910 801 910 871 l 910 0 l 868 0 q 802 113 846 46 q 701 261 758 181 q 583 426 644 342 q 460 589 521 510 q 346 733 399 668 q 257 842 293 799 l 257 185 q 267 85 257 115 q 303 46 276 54 q 376 32 329 38 l 404 29 l 404 -6 l 226 0 l 54 -6 m 414 1306 l 447 1306 l 556 1176 l 564 1176 l 672 1306 l 706 1306 l 575 1056 l 544 1056 l 414 1306 z "},"Ņ":{"ha":1085,"x_min":49,"x_max":1057,"o":"m 54 -6 l 54 29 l 82 32 q 156 46 131 38 q 192 85 182 54 q 201 185 201 115 l 201 901 q 164 935 189 917 q 90 954 139 954 l 49 954 l 49 990 l 318 986 q 385 894 343 951 q 480 768 428 838 q 588 626 532 699 q 695 485 643 553 q 789 363 747 417 q 854 276 831 308 l 854 801 q 844 901 854 871 q 809 940 835 931 q 735 953 783 949 l 707 956 l 707 990 l 888 986 l 1057 990 l 1057 956 l 1029 953 q 956 938 982 947 q 919 900 929 929 q 910 801 910 871 l 910 0 l 868 0 q 802 113 846 46 q 701 261 758 181 q 583 426 644 342 q 460 589 521 510 q 346 733 399 668 q 257 842 293 799 l 257 185 q 267 85 257 115 q 303 46 276 54 q 376 32 329 38 l 404 29 l 404 -6 l 226 0 l 54 -6 m 597 -400 l 583 -379 q 650 -319 621 -353 q 679 -237 679 -286 q 674 -201 679 -218 q 658 -189 669 -185 q 657 -191 657 -190 q 657 -192 657 -192 q 659 -200 657 -194 q 661 -212 661 -206 q 647 -239 661 -226 q 613 -251 632 -251 q 567 -234 585 -251 q 550 -189 550 -217 q 569 -140 550 -158 q 618 -121 588 -121 q 678 -151 656 -121 q 701 -235 701 -182 q 672 -335 701 -299 q 597 -400 642 -371 z "},"Ñ":{"ha":1085,"x_min":49,"x_max":1057,"o":"m 54 -6 l 54 29 l 82 32 q 156 46 131 38 q 192 85 182 54 q 201 185 201 115 l 201 901 q 164 935 189 917 q 90 954 139 954 l 49 954 l 49 990 l 318 986 q 385 894 343 951 q 480 768 428 838 q 588 626 532 699 q 695 485 643 553 q 789 363 747 417 q 854 276 831 308 l 854 801 q 844 901 854 871 q 809 940 835 931 q 735 953 783 949 l 707 956 l 707 990 l 888 986 l 1057 990 l 1057 956 l 1029 953 q 956 938 982 947 q 919 900 929 929 q 910 801 910 871 l 910 0 l 868 0 q 802 113 846 46 q 701 261 758 181 q 583 426 644 342 q 460 589 521 510 q 346 733 399 668 q 257 842 293 799 l 257 185 q 267 85 257 115 q 303 46 276 54 q 376 32 329 38 l 404 29 l 404 -6 l 226 0 l 54 -6 m 663 1113 q 611 1125 636 1113 q 568 1147 586 1138 l 532 1169 q 487 1195 507 1185 q 447 1206 467 1206 q 394 1179 417 1206 q 365 1128 372 1153 l 339 1128 q 351 1183 339 1149 q 390 1244 364 1217 q 458 1272 417 1272 q 511 1258 485 1272 q 551 1236 538 1244 l 603 1206 q 635 1190 614 1200 q 674 1179 656 1179 q 720 1200 701 1179 q 749 1250 739 1221 l 775 1250 q 736 1150 768 1188 q 663 1113 704 1113 z "},"Ŋ":{"ha":1086,"x_min":49,"x_max":1058,"o":"m 728 -367 q 642 -339 676 -367 q 608 -260 608 -311 q 626 -211 608 -232 q 675 -190 644 -190 q 724 -211 707 -190 q 742 -260 742 -232 q 745 -297 742 -283 q 769 -310 749 -310 q 827 -279 806 -310 q 859 -197 849 -249 q 869 -81 869 -144 l 869 0 q 801 117 846 47 q 697 271 756 188 q 572 441 638 354 q 444 608 507 528 q 330 753 382 689 q 244 857 278 818 l 244 185 q 254 87 244 117 q 290 48 264 57 q 364 33 317 39 l 392 31 l 392 -4 l 224 -1 l 56 -4 l 56 31 l 83 33 q 158 48 132 39 q 193 87 183 57 q 203 185 203 117 l 203 901 q 161 933 188 917 q 81 950 135 950 l 50 950 l 49 990 l 319 986 q 392 889 346 950 q 493 753 438 828 q 607 603 549 679 q 718 457 665 526 q 811 335 771 388 q 869 260 851 283 l 869 801 q 860 900 869 871 q 824 938 850 929 q 750 953 799 947 l 722 956 l 722 990 l 890 988 l 1058 990 l 1058 956 l 1031 953 q 957 938 983 947 q 921 900 931 929 q 911 801 911 871 l 911 -83 q 884 -261 911 -200 q 815 -344 857 -322 q 728 -367 772 -367 z "},"O":{"ha":1136,"x_min":86,"x_max":1050,"o":"m 568 -15 q 376 22 464 -15 q 223 128 288 60 q 122 290 158 196 q 86 496 86 383 q 122 701 86 608 q 223 863 158 794 q 376 968 288 931 q 568 1006 464 1006 q 760 968 672 1006 q 913 863 849 931 q 1014 701 978 794 q 1050 496 1050 608 q 1014 290 1050 383 q 913 128 978 196 q 760 22 849 60 q 568 -15 672 -15 m 568 26 q 764 83 689 26 q 874 245 839 140 q 908 496 908 350 q 874 747 908 642 q 764 908 839 851 q 568 964 689 964 q 373 908 449 964 q 263 747 297 851 q 228 496 228 642 q 263 245 228 350 q 373 83 297 140 q 568 26 449 26 z "},"Ó":{"ha":1136,"x_min":86,"x_max":1050,"o":"m 568 -15 q 376 22 464 -15 q 223 128 288 60 q 122 290 158 196 q 86 496 86 383 q 122 701 86 608 q 223 863 158 794 q 376 968 288 931 q 568 1006 464 1006 q 760 968 672 1006 q 913 863 849 931 q 1014 701 978 794 q 1050 496 1050 608 q 1014 290 1050 383 q 913 128 978 196 q 760 22 849 60 q 568 -15 672 -15 m 568 26 q 764 83 689 26 q 874 245 839 140 q 908 496 908 350 q 874 747 908 642 q 764 908 839 851 q 568 964 689 964 q 373 908 449 964 q 263 747 297 851 q 228 496 228 642 q 263 245 228 350 q 373 83 297 140 q 568 26 449 26 m 561 1056 l 597 1306 l 710 1306 l 578 1056 l 561 1056 z "},"Ǒ":{"ha":1136,"x_min":86,"x_max":1050,"o":"m 568 -15 q 376 22 464 -15 q 223 128 288 60 q 122 290 158 196 q 86 496 86 383 q 122 701 86 608 q 223 863 158 794 q 376 968 288 931 q 568 1006 464 1006 q 760 968 672 1006 q 913 863 849 931 q 1014 701 978 794 q 1050 496 1050 608 q 1014 290 1050 383 q 913 128 978 196 q 760 22 849 60 q 568 -15 672 -15 m 568 26 q 764 83 689 26 q 874 245 839 140 q 908 496 908 350 q 874 747 908 642 q 764 908 839 851 q 568 964 689 964 q 373 908 449 964 q 263 747 297 851 q 228 496 228 642 q 263 245 228 350 q 373 83 297 140 q 568 26 449 26 m 424 1306 l 457 1306 l 565 1176 l 574 1176 l 682 1306 l 715 1306 l 585 1056 l 554 1056 l 424 1306 z "},"Ô":{"ha":1136,"x_min":86,"x_max":1050,"o":"m 568 -15 q 376 22 464 -15 q 223 128 288 60 q 122 290 158 196 q 86 496 86 383 q 122 701 86 608 q 223 863 158 794 q 376 968 288 931 q 568 1006 464 1006 q 760 968 672 1006 q 913 863 849 931 q 1014 701 978 794 q 1050 496 1050 608 q 1014 290 1050 383 q 913 128 978 196 q 760 22 849 60 q 568 -15 672 -15 m 568 26 q 764 83 689 26 q 874 245 839 140 q 908 496 908 350 q 874 747 908 642 q 764 908 839 851 q 568 964 689 964 q 373 908 449 964 q 263 747 297 851 q 228 496 228 642 q 263 245 228 350 q 373 83 297 140 q 568 26 449 26 m 421 1057 l 551 1306 l 582 1306 l 713 1057 l 679 1057 l 571 1185 l 563 1185 l 454 1057 l 421 1057 z "},"Ö":{"ha":1136,"x_min":86,"x_max":1050,"o":"m 568 -15 q 376 22 464 -15 q 223 128 288 60 q 122 290 158 196 q 86 496 86 383 q 122 701 86 608 q 223 863 158 794 q 376 968 288 931 q 568 1006 464 1006 q 760 968 672 1006 q 913 863 849 931 q 1014 701 978 794 q 1050 496 1050 608 q 1014 290 1050 383 q 913 128 978 196 q 760 22 849 60 q 568 -15 672 -15 m 568 26 q 764 83 689 26 q 874 245 839 140 q 908 496 908 350 q 874 747 908 642 q 764 908 839 851 q 568 964 689 964 q 373 908 449 964 q 263 747 297 851 q 228 496 228 642 q 263 245 228 350 q 373 83 297 140 q 568 26 449 26 m 442 1142 q 390 1165 408 1142 q 371 1221 371 1188 q 390 1276 371 1253 q 442 1299 408 1299 q 494 1276 478 1299 q 511 1221 511 1253 q 494 1165 511 1188 q 442 1142 478 1142 m 706 1142 q 653 1165 672 1142 q 635 1221 635 1188 q 653 1276 635 1253 q 706 1299 672 1299 q 758 1276 742 1299 q 775 1221 775 1253 q 758 1165 775 1188 q 706 1142 742 1142 z "},"Ò":{"ha":1136,"x_min":86,"x_max":1050,"o":"m 568 -15 q 376 22 464 -15 q 223 128 288 60 q 122 290 158 196 q 86 496 86 383 q 122 701 86 608 q 223 863 158 794 q 376 968 288 931 q 568 1006 464 1006 q 760 968 672 1006 q 913 863 849 931 q 1014 701 978 794 q 1050 496 1050 608 q 1014 290 1050 383 q 913 128 978 196 q 760 22 849 60 q 568 -15 672 -15 m 568 26 q 764 83 689 26 q 874 245 839 140 q 908 496 908 350 q 874 747 908 642 q 764 908 839 851 q 568 964 689 964 q 373 908 449 964 q 263 747 297 851 q 228 496 228 642 q 263 245 228 350 q 373 83 297 140 q 568 26 449 26 m 576 1056 l 560 1056 l 428 1306 l 540 1306 l 576 1056 z "},"Ő":{"ha":1136,"x_min":86,"x_max":1050,"o":"m 568 -15 q 376 22 464 -15 q 223 128 288 60 q 122 290 158 196 q 86 496 86 383 q 122 701 86 608 q 223 863 158 794 q 376 968 288 931 q 568 1006 464 1006 q 760 968 672 1006 q 913 863 849 931 q 1014 701 978 794 q 1050 496 1050 608 q 1014 290 1050 383 q 913 128 978 196 q 760 22 849 60 q 568 -15 672 -15 m 568 26 q 764 83 689 26 q 874 245 839 140 q 908 496 908 350 q 874 747 908 642 q 764 908 839 851 q 568 964 689 964 q 373 908 449 964 q 263 747 297 851 q 228 496 228 642 q 263 245 228 350 q 373 83 297 140 q 568 26 449 26 m 638 1057 l 674 1307 l 786 1307 l 654 1057 l 638 1057 m 453 1056 l 489 1306 l 601 1306 l 469 1056 l 453 1056 z "},"Ō":{"ha":1136,"x_min":86,"x_max":1050,"o":"m 568 -15 q 376 22 464 -15 q 223 128 288 60 q 122 290 158 196 q 86 496 86 383 q 122 701 86 608 q 223 863 158 794 q 376 968 288 931 q 568 1006 464 1006 q 760 968 672 1006 q 913 863 849 931 q 1014 701 978 794 q 1050 496 1050 608 q 1014 290 1050 383 q 913 128 978 196 q 760 22 849 60 q 568 -15 672 -15 m 568 26 q 764 83 689 26 q 874 245 839 140 q 908 496 908 350 q 874 747 908 642 q 764 908 839 851 q 568 964 689 964 q 373 908 449 964 q 263 747 297 851 q 228 496 228 642 q 263 245 228 350 q 373 83 297 140 q 568 26 449 26 m 406 1158 l 406 1214 l 721 1214 l 721 1158 l 406 1158 z "},"Ø":{"ha":1136,"x_min":86,"x_max":1060,"o":"m 568 -15 q 376 22 464 -15 q 223 128 288 60 q 122 290 158 196 q 86 496 86 383 q 122 701 86 608 q 223 863 158 794 q 376 968 288 931 q 568 1006 464 1006 q 760 968 672 1006 q 913 863 849 931 q 1014 701 978 794 q 1050 496 1050 608 q 1014 290 1050 383 q 913 128 978 196 q 760 22 849 60 q 568 -15 672 -15 m 568 26 q 764 83 689 26 q 874 245 839 140 q 908 496 908 350 q 874 747 908 642 q 764 908 839 851 q 568 964 689 964 q 373 908 449 964 q 263 747 297 851 q 228 496 228 642 q 263 245 228 350 q 373 83 297 140 q 568 26 449 26 m 88 -21 l 982 1007 l 1060 1007 l 165 -21 l 88 -21 z "},"Õ":{"ha":1136,"x_min":86,"x_max":1050,"o":"m 568 -15 q 376 22 464 -15 q 223 128 288 60 q 122 290 158 196 q 86 496 86 383 q 122 701 86 608 q 223 863 158 794 q 376 968 288 931 q 568 1006 464 1006 q 760 968 672 1006 q 913 863 849 931 q 1014 701 978 794 q 1050 496 1050 608 q 1014 290 1050 383 q 913 128 978 196 q 760 22 849 60 q 568 -15 672 -15 m 568 26 q 764 83 689 26 q 874 245 839 140 q 908 496 908 350 q 874 747 908 642 q 764 908 839 851 q 568 964 689 964 q 373 908 449 964 q 263 747 297 851 q 228 496 228 642 q 263 245 228 350 q 373 83 297 140 q 568 26 449 26 m 672 1113 q 621 1125 646 1113 q 578 1147 596 1138 l 542 1169 q 497 1195 517 1185 q 457 1206 476 1206 q 404 1179 426 1206 q 375 1128 382 1153 l 349 1128 q 361 1183 349 1149 q 400 1244 374 1217 q 468 1272 426 1272 q 521 1258 494 1272 q 561 1236 547 1244 l 613 1206 q 644 1190 624 1200 q 683 1179 665 1179 q 730 1200 711 1179 q 758 1250 749 1221 l 785 1250 q 746 1150 778 1188 q 672 1113 714 1113 z "},"Œ":{"ha":1403,"x_min":86,"x_max":1347,"o":"m 561 -15 q 373 22 460 -15 q 222 128 286 60 q 122 289 158 196 q 86 493 86 382 q 126 700 86 606 q 233 863 165 794 q 390 969 301 932 q 575 1007 478 1007 q 644 1001 610 1007 q 710 986 678 996 l 1288 986 l 1290 886 l 1301 758 l 1268 758 q 1242 860 1258 822 q 1197 917 1226 899 q 1119 942 1168 936 q 992 949 1069 949 l 853 949 l 853 538 l 964 538 q 1013 551 992 538 q 1047 600 1033 564 q 1063 706 1060 636 l 1097 706 l 1093 519 l 1097 314 l 1063 314 q 1038 460 1063 417 q 964 503 1013 503 l 853 503 l 853 149 q 872 64 853 93 q 947 35 892 35 l 1075 35 q 1183 44 1140 35 q 1253 81 1226 54 q 1292 159 1279 108 q 1313 292 1306 210 l 1347 292 l 1338 125 l 1333 0 l 790 0 l 672 -3 q 561 -15 618 -15 m 561 26 q 664 38 626 26 q 717 84 701 50 q 733 185 733 118 l 733 801 q 693 933 733 900 q 575 965 653 965 q 378 906 456 965 q 265 741 301 847 q 228 493 228 635 q 310 151 228 275 q 561 26 393 26 z "},"P":{"ha":882,"x_min":56,"x_max":847,"o":"m 56 -4 l 56 31 l 83 33 q 158 48 132 39 q 193 87 183 57 q 203 185 203 117 l 203 801 q 193 900 203 871 q 158 938 183 929 q 83 953 132 947 l 56 956 l 56 990 l 261 986 l 450 986 q 606 976 533 986 q 732 937 678 965 q 817 854 786 908 q 847 714 847 800 q 754 514 847 590 q 483 438 661 438 l 321 438 l 321 185 q 333 87 321 117 q 375 48 344 57 q 461 33 406 39 l 492 31 l 492 -4 l 257 0 l 56 -4 m 504 947 l 321 947 l 321 479 l 483 479 q 629 507 579 479 q 697 588 679 535 q 715 714 715 640 q 695 840 715 793 q 642 910 675 886 q 573 940 610 933 q 504 947 536 947 z "},"Þ":{"ha":771,"x_min":56,"x_max":785,"o":"m 57 -4 l 57 31 l 85 33 q 158 48 133 39 q 193 87 183 57 q 203 185 203 117 l 203 801 q 193 900 203 871 q 158 938 183 929 q 83 953 132 947 l 56 956 l 56 990 l 260 986 l 461 990 l 461 956 l 433 953 q 360 938 386 947 q 324 900 333 929 q 314 801 314 871 l 314 772 l 435 772 q 551 765 490 772 q 665 731 613 757 q 751 653 718 706 q 785 514 785 601 q 688 322 785 396 q 414 249 592 249 l 314 249 l 314 185 q 324 87 314 117 q 361 48 335 57 q 435 33 388 39 l 463 31 l 463 -4 l 265 0 l 57 -4 m 435 738 l 314 738 l 314 285 l 414 285 q 560 313 510 285 q 628 392 610 340 q 646 514 646 443 q 599 688 646 639 q 435 738 553 738 z "},"Q":{"ha":1117,"x_min":86,"x_max":1103,"o":"m 907 -408 q 793 -387 842 -408 q 707 -337 744 -367 q 638 -281 669 -307 q 490 -178 557 -214 q 343 -139 424 -143 q 293 -173 317 -156 q 250 -210 269 -190 q 209 -243 231 -229 q 164 -257 188 -257 q 135 -245 146 -257 q 124 -211 124 -233 q 183 -133 124 -160 q 336 -107 243 -107 l 538 -14 q 305 60 407 -7 q 144 239 203 126 q 86 496 86 351 q 122 701 86 608 q 223 863 158 794 q 376 968 288 931 q 568 1006 464 1006 q 760 968 672 1006 q 913 863 849 931 q 1014 701 978 794 q 1050 496 1050 608 q 994 244 1050 354 q 841 66 939 133 q 617 -12 743 -1 l 450 -90 q 460 -90 453 -90 q 610 -124 549 -90 q 728 -204 672 -158 q 831 -276 779 -246 q 936 -307 883 -307 q 1024 -279 983 -307 q 1075 -172 1064 -251 l 1103 -172 q 1047 -347 1093 -286 q 907 -408 1001 -408 m 568 26 q 764 83 689 26 q 874 245 839 140 q 908 496 908 350 q 874 747 908 642 q 764 908 839 851 q 568 964 689 964 q 373 908 449 964 q 263 747 297 851 q 228 496 228 642 q 263 245 228 350 q 373 83 297 140 q 568 26 449 26 z "},"R":{"ha":965,"x_min":56,"x_max":979,"o":"m 843 -15 q 730 37 767 -15 q 682 165 693 89 q 660 276 675 221 q 615 378 646 332 q 527 453 583 425 q 381 481 471 481 l 321 481 l 321 185 q 331 87 321 117 q 367 48 340 57 q 440 33 393 39 l 468 31 l 468 -4 l 263 0 l 261 0 l 56 -4 l 56 31 l 83 33 q 158 48 132 39 q 193 87 183 57 q 203 185 203 117 l 203 801 q 193 900 203 871 q 158 938 183 929 q 83 953 132 947 l 56 956 l 56 990 l 261 986 l 456 986 q 631 965 550 986 q 760 890 711 943 q 810 743 810 838 q 773 608 810 660 q 676 528 736 556 q 544 490 615 501 q 712 420 647 483 q 794 235 776 357 q 826 113 807 157 q 867 52 844 69 q 914 35 890 35 q 944 40 929 35 q 969 51 958 46 l 979 17 q 919 -5 957 6 q 843 -15 882 -15 m 458 950 l 321 950 l 321 518 l 438 518 q 624 572 571 518 q 678 735 678 626 q 629 894 678 838 q 458 950 581 950 z "},"Ŕ":{"ha":965,"x_min":56,"x_max":979,"o":"m 843 -15 q 730 37 767 -15 q 682 165 693 89 q 660 276 675 221 q 615 378 646 332 q 527 453 583 425 q 381 481 471 481 l 321 481 l 321 185 q 331 87 321 117 q 367 48 340 57 q 440 33 393 39 l 468 31 l 468 -4 l 263 0 l 261 0 l 56 -4 l 56 31 l 83 33 q 158 48 132 39 q 193 87 183 57 q 203 185 203 117 l 203 801 q 193 900 203 871 q 158 938 183 929 q 83 953 132 947 l 56 956 l 56 990 l 261 986 l 456 986 q 631 965 550 986 q 760 890 711 943 q 810 743 810 838 q 773 608 810 660 q 676 528 736 556 q 544 490 615 501 q 712 420 647 483 q 794 235 776 357 q 826 113 807 157 q 867 52 844 69 q 914 35 890 35 q 944 40 929 35 q 969 51 958 46 l 979 17 q 919 -5 957 6 q 843 -15 882 -15 m 458 950 l 321 950 l 321 518 l 438 518 q 624 572 571 518 q 678 735 678 626 q 629 894 678 838 q 458 950 581 950 m 428 1056 l 464 1306 l 576 1306 l 444 1056 l 428 1056 z "},"Ř":{"ha":965,"x_min":56,"x_max":979,"o":"m 843 -15 q 730 37 767 -15 q 682 165 693 89 q 660 276 675 221 q 615 378 646 332 q 527 453 583 425 q 381 481 471 481 l 321 481 l 321 185 q 331 87 321 117 q 367 48 340 57 q 440 33 393 39 l 468 31 l 468 -4 l 263 0 l 261 0 l 56 -4 l 56 31 l 83 33 q 158 48 132 39 q 193 87 183 57 q 203 185 203 117 l 203 801 q 193 900 203 871 q 158 938 183 929 q 83 953 132 947 l 56 956 l 56 990 l 261 986 l 456 986 q 631 965 550 986 q 760 890 711 943 q 810 743 810 838 q 773 608 810 660 q 676 528 736 556 q 544 490 615 501 q 712 420 647 483 q 794 235 776 357 q 826 113 807 157 q 867 52 844 69 q 914 35 890 35 q 944 40 929 35 q 969 51 958 46 l 979 17 q 919 -5 957 6 q 843 -15 882 -15 m 458 950 l 321 950 l 321 518 l 438 518 q 624 572 571 518 q 678 735 678 626 q 629 894 678 838 q 458 950 581 950 m 290 1306 l 324 1306 l 432 1176 l 440 1176 l 549 1306 l 582 1306 l 451 1056 l 421 1056 l 290 1306 z "},"Ŗ":{"ha":965,"x_min":56,"x_max":979,"o":"m 843 -15 q 730 37 767 -15 q 682 165 693 89 q 660 276 675 221 q 615 378 646 332 q 527 453 583 425 q 381 481 471 481 l 321 481 l 321 185 q 331 87 321 117 q 367 48 340 57 q 440 33 393 39 l 468 31 l 468 -4 l 263 0 l 261 0 l 56 -4 l 56 31 l 83 33 q 158 48 132 39 q 193 87 183 57 q 203 185 203 117 l 203 801 q 193 900 203 871 q 158 938 183 929 q 83 953 132 947 l 56 956 l 56 990 l 261 986 l 456 986 q 631 965 550 986 q 760 890 711 943 q 810 743 810 838 q 773 608 810 660 q 676 528 736 556 q 544 490 615 501 q 712 420 647 483 q 794 235 776 357 q 826 113 807 157 q 867 52 844 69 q 914 35 890 35 q 944 40 929 35 q 969 51 958 46 l 979 17 q 919 -5 957 6 q 843 -15 882 -15 m 458 950 l 321 950 l 321 518 l 438 518 q 624 572 571 518 q 678 735 678 626 q 629 894 678 838 q 458 950 581 950 m 549 -400 l 535 -379 q 601 -319 572 -353 q 631 -237 631 -286 q 626 -201 631 -218 q 610 -189 621 -185 q 608 -191 608 -190 q 608 -192 608 -192 q 610 -200 608 -194 q 613 -212 613 -206 q 598 -239 613 -226 q 564 -251 583 -251 q 519 -234 536 -251 q 501 -189 501 -217 q 520 -140 501 -158 q 569 -121 539 -121 q 630 -151 607 -121 q 653 -235 653 -182 q 623 -335 653 -299 q 549 -400 593 -371 z "},"S":{"ha":779,"x_min":83,"x_max":703,"o":"m 429 -15 q 328 3 374 -15 q 247 39 283 21 q 197 64 217 56 q 161 72 176 72 q 134 56 142 72 q 122 21 126 40 l 118 0 l 83 0 l 90 164 l 86 343 l 121 343 l 136 278 q 191 158 151 217 q 291 63 231 100 q 429 25 351 25 q 512 44 472 25 q 577 101 551 63 q 603 203 603 140 q 542 353 603 296 q 375 461 482 410 l 317 489 q 162 599 213 539 q 111 754 111 660 q 147 885 111 828 q 247 974 183 942 q 392 1006 310 1006 q 488 990 449 1006 q 549 964 526 975 q 606 946 585 946 q 632 989 628 946 l 667 989 l 663 856 l 665 721 l 631 721 q 588 853 622 799 q 503 938 553 908 q 399 967 454 967 q 266 919 317 967 q 215 799 215 872 q 267 674 215 719 q 400 589 318 629 l 457 561 q 588 484 533 524 q 673 392 643 444 q 703 260 703 339 q 666 115 703 178 q 567 19 629 53 q 429 -15 506 -15 z "},"Ś":{"ha":779,"x_min":83,"x_max":703,"o":"m 429 -15 q 328 3 374 -15 q 247 39 283 21 q 197 64 217 56 q 161 72 176 72 q 134 56 142 72 q 122 21 126 40 l 118 0 l 83 0 l 90 164 l 86 343 l 121 343 l 136 278 q 191 158 151 217 q 291 63 231 100 q 429 25 351 25 q 512 44 472 25 q 577 101 551 63 q 603 203 603 140 q 542 353 603 296 q 375 461 482 410 l 317 489 q 162 599 213 539 q 111 754 111 660 q 147 885 111 828 q 247 974 183 942 q 392 1006 310 1006 q 488 990 449 1006 q 549 964 526 975 q 606 946 585 946 q 632 989 628 946 l 667 989 l 663 856 l 665 721 l 631 721 q 588 853 622 799 q 503 938 553 908 q 399 967 454 967 q 266 919 317 967 q 215 799 215 872 q 267 674 215 719 q 400 589 318 629 l 457 561 q 588 484 533 524 q 673 392 643 444 q 703 260 703 339 q 666 115 703 178 q 567 19 629 53 q 429 -15 506 -15 m 389 1056 l 425 1306 l 538 1306 l 406 1056 l 389 1056 z "},"Š":{"ha":779,"x_min":83,"x_max":703,"o":"m 429 -15 q 328 3 374 -15 q 247 39 283 21 q 197 64 217 56 q 161 72 176 72 q 134 56 142 72 q 122 21 126 40 l 118 0 l 83 0 l 90 164 l 86 343 l 121 343 l 136 278 q 191 158 151 217 q 291 63 231 100 q 429 25 351 25 q 512 44 472 25 q 577 101 551 63 q 603 203 603 140 q 542 353 603 296 q 375 461 482 410 l 317 489 q 162 599 213 539 q 111 754 111 660 q 147 885 111 828 q 247 974 183 942 q 392 1006 310 1006 q 488 990 449 1006 q 549 964 526 975 q 606 946 585 946 q 632 989 628 946 l 667 989 l 663 856 l 665 721 l 631 721 q 588 853 622 799 q 503 938 553 908 q 399 967 454 967 q 266 919 317 967 q 215 799 215 872 q 267 674 215 719 q 400 589 318 629 l 457 561 q 588 484 533 524 q 673 392 643 444 q 703 260 703 339 q 666 115 703 178 q 567 19 629 53 q 429 -15 506 -15 m 251 1306 l 285 1306 l 393 1176 l 401 1176 l 510 1306 l 543 1306 l 413 1056 l 382 1056 l 251 1306 z "},"Ş":{"ha":779,"x_min":83,"x_max":703,"o":"m 429 -15 q 328 3 374 -15 q 247 39 283 21 q 197 64 217 56 q 161 72 176 72 q 134 56 142 72 q 122 21 126 40 l 118 0 l 83 0 l 90 164 l 86 343 l 121 343 l 136 278 q 191 158 151 217 q 291 63 231 100 q 429 25 351 25 q 512 44 472 25 q 577 101 551 63 q 603 203 603 140 q 542 353 603 296 q 375 461 482 410 l 317 489 q 162 599 213 539 q 111 754 111 660 q 147 885 111 828 q 247 974 183 942 q 392 1006 310 1006 q 488 990 449 1006 q 549 964 526 975 q 606 946 585 946 q 632 989 628 946 l 667 989 l 663 856 l 665 721 l 631 721 q 588 853 622 799 q 503 938 553 908 q 399 967 454 967 q 266 919 317 967 q 215 799 215 872 q 267 674 215 719 q 400 589 318 629 l 457 561 q 588 484 533 524 q 673 392 643 444 q 703 260 703 339 q 666 115 703 178 q 567 19 629 53 q 429 -15 506 -15 m 385 -406 q 287 -369 322 -406 q 242 -292 251 -332 l 272 -282 q 306 -340 279 -314 q 376 -367 333 -367 q 450 -324 425 -367 q 475 -231 475 -281 q 451 -148 475 -182 q 381 -114 426 -114 q 333 -130 357 -114 q 294 -169 310 -146 l 267 -151 q 319 -97 286 -115 q 390 -79 353 -79 l 417 0 l 458 0 l 429 -83 q 513 -137 481 -96 q 546 -235 546 -178 q 498 -358 546 -311 q 385 -406 450 -406 z "},"Ș":{"ha":779,"x_min":83,"x_max":703,"o":"m 429 -15 q 328 3 374 -15 q 247 39 283 21 q 197 64 217 56 q 161 72 176 72 q 134 56 142 72 q 122 21 126 40 l 118 0 l 83 0 l 90 164 l 86 343 l 121 343 l 136 278 q 191 158 151 217 q 291 63 231 100 q 429 25 351 25 q 512 44 472 25 q 577 101 551 63 q 603 203 603 140 q 542 353 603 296 q 375 461 482 410 l 317 489 q 162 599 213 539 q 111 754 111 660 q 147 885 111 828 q 247 974 183 942 q 392 1006 310 1006 q 488 990 449 1006 q 549 964 526 975 q 606 946 585 946 q 632 989 628 946 l 667 989 l 663 856 l 665 721 l 631 721 q 588 853 622 799 q 503 938 553 908 q 399 967 454 967 q 266 919 317 967 q 215 799 215 872 q 267 674 215 719 q 400 589 318 629 l 457 561 q 588 484 533 524 q 673 392 643 444 q 703 260 703 339 q 666 115 703 178 q 567 19 629 53 q 429 -15 506 -15 m 426 -400 l 413 -379 q 479 -319 450 -353 q 508 -237 508 -286 q 503 -201 508 -218 q 488 -189 499 -185 q 486 -191 486 -190 q 486 -192 486 -192 q 488 -200 486 -194 q 490 -212 490 -206 q 476 -239 490 -226 q 442 -251 461 -251 q 397 -234 414 -251 q 379 -189 379 -217 q 398 -140 379 -158 q 447 -121 417 -121 q 508 -151 485 -121 q 531 -235 531 -182 q 501 -335 531 -299 q 426 -400 471 -371 z "},"ẞ":{"ha":1022,"x_min":28,"x_max":988,"o":"m 858 907 q 653 710 653 833 q 677 634 653 665 q 750 571 701 603 l 831 521 q 946 411 904 475 q 988 257 988 347 q 951 115 988 176 q 849 19 915 54 q 694 -15 783 -15 q 575 -1 639 -15 q 446 36 511 13 l 444 274 l 474 274 l 493 208 q 572 76 517 128 q 717 25 626 25 q 844 78 800 25 q 889 214 889 132 q 860 326 889 279 q 775 408 831 374 l 713 447 q 594 547 636 496 q 553 663 553 597 q 606 798 553 739 q 742 897 658 857 q 561 961 679 961 q 365 886 436 961 q 293 676 293 811 l 293 185 l 307 -1 l 235 0 l 233 0 l 28 -4 l 28 31 l 56 33 q 135 51 110 39 q 167 93 160 63 q 175 185 175 124 l 175 676 q 568 1001 175 1001 q 726 983 649 1001 q 858 940 803 965 l 858 907 z "},"T":{"ha":1033,"x_min":4,"x_max":1029,"o":"m 286 -4 l 286 31 l 317 33 q 403 48 374 39 q 445 87 433 57 q 457 185 457 117 l 457 949 l 261 949 q 160 924 197 949 q 97 846 124 900 q 33 701 69 792 l 4 708 l 39 879 l 54 990 l 450 986 l 582 986 l 979 990 l 994 879 l 1029 708 l 999 700 q 940 836 967 781 q 876 920 913 892 q 781 949 840 949 l 575 949 l 575 185 q 587 87 575 117 q 629 48 599 57 q 715 33 660 39 l 746 31 l 746 -4 l 519 0 l 286 -4 z "},"Ŧ":{"ha":1033,"x_min":4,"x_max":1029,"o":"m 286 -4 l 286 31 l 317 33 q 403 48 374 39 q 445 87 433 57 q 457 185 457 117 l 457 949 l 261 949 q 160 924 197 949 q 97 846 124 900 q 33 701 69 792 l 4 708 l 39 879 l 54 990 l 450 986 l 582 986 l 979 990 l 994 879 l 1029 708 l 999 700 q 940 836 967 781 q 876 920 913 892 q 781 949 840 949 l 575 949 l 575 185 q 587 87 575 117 q 629 48 599 57 q 715 33 660 39 l 746 31 l 746 -4 l 519 0 l 286 -4 m 207 471 l 207 515 l 818 515 l 818 471 l 207 471 z "},"Ť":{"ha":1033,"x_min":4,"x_max":1029,"o":"m 286 -4 l 286 31 l 317 33 q 403 48 374 39 q 445 87 433 57 q 457 185 457 117 l 457 949 l 261 949 q 160 924 197 949 q 97 846 124 900 q 33 701 69 792 l 4 708 l 39 879 l 54 990 l 450 986 l 582 986 l 979 990 l 994 879 l 1029 708 l 999 700 q 940 836 967 781 q 876 920 913 892 q 781 949 840 949 l 575 949 l 575 185 q 587 87 575 117 q 629 48 599 57 q 715 33 660 39 l 746 31 l 746 -4 l 519 0 l 286 -4 m 379 1306 l 413 1306 l 521 1176 l 529 1176 l 638 1306 l 671 1306 l 540 1056 l 510 1056 l 379 1306 z "},"Ţ":{"ha":1033,"x_min":4,"x_max":1029,"o":"m 286 -4 l 286 31 l 317 33 q 403 48 374 39 q 445 87 433 57 q 457 185 457 117 l 457 949 l 261 949 q 160 924 197 949 q 97 846 124 900 q 33 701 69 792 l 4 708 l 39 879 l 54 990 l 450 986 l 582 986 l 979 990 l 994 879 l 1029 708 l 999 700 q 940 836 967 781 q 876 920 913 892 q 781 949 840 949 l 575 949 l 575 185 q 587 87 575 117 q 629 48 599 57 q 715 33 660 39 l 746 31 l 746 -4 l 519 0 l 286 -4 m 511 -400 l 497 -379 q 564 -319 535 -353 q 593 -237 593 -286 q 588 -201 593 -218 q 572 -189 583 -185 q 571 -191 571 -190 q 571 -192 571 -192 q 573 -200 571 -194 q 575 -212 575 -206 q 560 -239 575 -226 q 526 -251 546 -251 q 481 -234 499 -251 q 464 -189 464 -217 q 483 -140 464 -158 q 532 -121 501 -121 q 592 -151 569 -121 q 615 -235 615 -182 q 585 -335 615 -299 q 511 -400 556 -371 z "},"Ț":{"ha":1033,"x_min":4,"x_max":1029,"o":"m 286 -4 l 286 31 l 317 33 q 403 48 374 39 q 445 87 433 57 q 457 185 457 117 l 457 949 l 261 949 q 160 924 197 949 q 97 846 124 900 q 33 701 69 792 l 4 708 l 39 879 l 54 990 l 450 986 l 582 986 l 979 990 l 994 879 l 1029 708 l 999 700 q 940 836 967 781 q 876 920 913 892 q 781 949 840 949 l 575 949 l 575 185 q 587 87 575 117 q 629 48 599 57 q 715 33 660 39 l 746 31 l 746 -4 l 519 0 l 286 -4 m 511 -400 l 497 -379 q 564 -319 535 -353 q 593 -237 593 -286 q 588 -201 593 -218 q 572 -189 583 -185 q 571 -191 571 -190 q 571 -192 571 -192 q 573 -200 571 -194 q 575 -212 575 -206 q 560 -239 575 -226 q 526 -251 546 -251 q 481 -234 499 -251 q 464 -189 464 -217 q 483 -140 464 -158 q 532 -121 501 -121 q 592 -151 569 -121 q 615 -235 615 -182 q 585 -335 615 -299 q 511 -400 556 -371 z "},"U":{"ha":1042,"x_min":35,"x_max":1035,"o":"m 547 -15 q 278 61 374 -15 q 182 310 182 138 l 182 801 q 172 900 182 871 q 137 938 163 929 q 63 953 111 947 l 35 956 l 35 990 l 240 986 l 242 986 l 447 990 l 447 956 l 419 953 q 346 938 372 947 q 310 900 319 929 q 300 801 300 871 l 300 310 q 376 100 300 169 q 574 31 453 31 q 776 108 714 31 q 839 318 839 185 l 839 801 q 829 900 839 871 q 794 938 819 929 q 719 953 768 947 l 692 956 l 692 990 l 897 988 l 1035 990 l 1035 956 l 1007 953 q 933 938 960 947 q 897 900 907 929 q 888 801 888 871 l 888 318 q 803 71 888 157 q 547 -15 718 -15 z "},"Ú":{"ha":1042,"x_min":35,"x_max":1035,"o":"m 547 -15 q 278 61 374 -15 q 182 310 182 138 l 182 801 q 172 900 182 871 q 137 938 163 929 q 63 953 111 947 l 35 956 l 35 990 l 240 986 l 242 986 l 447 990 l 447 956 l 419 953 q 346 938 372 947 q 310 900 319 929 q 300 801 300 871 l 300 310 q 376 100 300 169 q 574 31 453 31 q 776 108 714 31 q 839 318 839 185 l 839 801 q 829 900 839 871 q 794 938 819 929 q 719 953 768 947 l 692 956 l 692 990 l 897 988 l 1035 990 l 1035 956 l 1007 953 q 933 938 960 947 q 897 900 907 929 q 888 801 888 871 l 888 318 q 803 71 888 157 q 547 -15 718 -15 m 561 1056 l 597 1306 l 710 1306 l 578 1056 l 561 1056 z "},"Ŭ":{"ha":1042,"x_min":35,"x_max":1035,"o":"m 547 -15 q 278 61 374 -15 q 182 310 182 138 l 182 801 q 172 900 182 871 q 137 938 163 929 q 63 953 111 947 l 35 956 l 35 990 l 240 986 l 242 986 l 447 990 l 447 956 l 419 953 q 346 938 372 947 q 310 900 319 929 q 300 801 300 871 l 300 310 q 376 100 300 169 q 574 31 453 31 q 776 108 714 31 q 839 318 839 185 l 839 801 q 829 900 839 871 q 794 938 819 929 q 719 953 768 947 l 692 956 l 692 990 l 897 988 l 1035 990 l 1035 956 l 1007 953 q 933 938 960 947 q 897 900 907 929 q 888 801 888 871 l 888 318 q 803 71 888 157 q 547 -15 718 -15 m 569 1094 q 465 1141 500 1094 q 429 1256 429 1188 l 429 1301 l 464 1301 l 464 1294 q 492 1202 464 1226 q 569 1178 519 1178 q 647 1202 619 1178 q 675 1294 675 1226 l 675 1301 l 710 1301 l 710 1256 q 674 1141 710 1188 q 569 1094 639 1094 z "},"Ǔ":{"ha":1042,"x_min":35,"x_max":1035,"o":"m 547 -15 q 278 61 374 -15 q 182 310 182 138 l 182 801 q 172 900 182 871 q 137 938 163 929 q 63 953 111 947 l 35 956 l 35 990 l 240 986 l 242 986 l 447 990 l 447 956 l 419 953 q 346 938 372 947 q 310 900 319 929 q 300 801 300 871 l 300 310 q 376 100 300 169 q 574 31 453 31 q 776 108 714 31 q 839 318 839 185 l 839 801 q 829 900 839 871 q 794 938 819 929 q 719 953 768 947 l 692 956 l 692 990 l 897 988 l 1035 990 l 1035 956 l 1007 953 q 933 938 960 947 q 897 900 907 929 q 888 801 888 871 l 888 318 q 803 71 888 157 q 547 -15 718 -15 m 424 1306 l 457 1306 l 565 1176 l 574 1176 l 682 1306 l 715 1306 l 585 1056 l 554 1056 l 424 1306 z "},"Û":{"ha":1042,"x_min":35,"x_max":1035,"o":"m 547 -15 q 278 61 374 -15 q 182 310 182 138 l 182 801 q 172 900 182 871 q 137 938 163 929 q 63 953 111 947 l 35 956 l 35 990 l 240 986 l 242 986 l 447 990 l 447 956 l 419 953 q 346 938 372 947 q 310 900 319 929 q 300 801 300 871 l 300 310 q 376 100 300 169 q 574 31 453 31 q 776 108 714 31 q 839 318 839 185 l 839 801 q 829 900 839 871 q 794 938 819 929 q 719 953 768 947 l 692 956 l 692 990 l 897 988 l 1035 990 l 1035 956 l 1007 953 q 933 938 960 947 q 897 900 907 929 q 888 801 888 871 l 888 318 q 803 71 888 157 q 547 -15 718 -15 m 421 1057 l 551 1306 l 582 1306 l 713 1057 l 679 1057 l 571 1185 l 563 1185 l 454 1057 l 421 1057 z "},"Ü":{"ha":1042,"x_min":35,"x_max":1035,"o":"m 547 -15 q 278 61 374 -15 q 182 310 182 138 l 182 801 q 172 900 182 871 q 137 938 163 929 q 63 953 111 947 l 35 956 l 35 990 l 240 986 l 242 986 l 447 990 l 447 956 l 419 953 q 346 938 372 947 q 310 900 319 929 q 300 801 300 871 l 300 310 q 376 100 300 169 q 574 31 453 31 q 776 108 714 31 q 839 318 839 185 l 839 801 q 829 900 839 871 q 794 938 819 929 q 719 953 768 947 l 692 956 l 692 990 l 897 988 l 1035 990 l 1035 956 l 1007 953 q 933 938 960 947 q 897 900 907 929 q 888 801 888 871 l 888 318 q 803 71 888 157 q 547 -15 718 -15 m 442 1142 q 390 1165 408 1142 q 371 1221 371 1188 q 390 1276 371 1253 q 442 1299 408 1299 q 494 1276 478 1299 q 511 1221 511 1253 q 494 1165 511 1188 q 442 1142 478 1142 m 706 1142 q 653 1165 672 1142 q 635 1221 635 1188 q 653 1276 635 1253 q 706 1299 672 1299 q 758 1276 742 1299 q 775 1221 775 1253 q 758 1165 775 1188 q 706 1142 742 1142 z "},"Ǘ":{"ha":1042,"x_min":35,"x_max":1035,"o":"m 547 -15 q 278 61 374 -15 q 182 310 182 138 l 182 801 q 172 900 182 871 q 137 938 163 929 q 63 953 111 947 l 35 956 l 35 990 l 240 986 l 242 986 l 447 990 l 447 956 l 419 953 q 346 938 372 947 q 310 900 319 929 q 300 801 300 871 l 300 310 q 376 100 300 169 q 574 31 453 31 q 776 108 714 31 q 839 318 839 185 l 839 801 q 829 900 839 871 q 794 938 819 929 q 719 953 768 947 l 692 956 l 692 990 l 897 988 l 1035 990 l 1035 956 l 1007 953 q 933 938 960 947 q 897 900 907 929 q 888 801 888 871 l 888 318 q 803 71 888 157 q 547 -15 718 -15 m 442 1142 q 390 1165 408 1142 q 371 1221 371 1188 q 390 1276 371 1253 q 442 1299 408 1299 q 494 1276 478 1299 q 511 1221 511 1253 q 494 1165 511 1188 q 442 1142 478 1142 m 706 1142 q 653 1165 672 1142 q 635 1221 635 1188 q 653 1276 635 1253 q 706 1299 672 1299 q 758 1276 742 1299 q 775 1221 775 1253 q 758 1165 775 1188 q 706 1142 742 1142 m 565 1331 l 601 1581 l 714 1581 l 582 1331 l 565 1331 z "},"Ǚ":{"ha":1042,"x_min":35,"x_max":1035,"o":"m 547 -15 q 278 61 374 -15 q 182 310 182 138 l 182 801 q 172 900 182 871 q 137 938 163 929 q 63 953 111 947 l 35 956 l 35 990 l 240 986 l 242 986 l 447 990 l 447 956 l 419 953 q 346 938 372 947 q 310 900 319 929 q 300 801 300 871 l 300 310 q 376 100 300 169 q 574 31 453 31 q 776 108 714 31 q 839 318 839 185 l 839 801 q 829 900 839 871 q 794 938 819 929 q 719 953 768 947 l 692 956 l 692 990 l 897 988 l 1035 990 l 1035 956 l 1007 953 q 933 938 960 947 q 897 900 907 929 q 888 801 888 871 l 888 318 q 803 71 888 157 q 547 -15 718 -15 m 442 1142 q 390 1165 408 1142 q 371 1221 371 1188 q 390 1276 371 1253 q 442 1299 408 1299 q 494 1276 478 1299 q 511 1221 511 1253 q 494 1165 511 1188 q 442 1142 478 1142 m 706 1142 q 653 1165 672 1142 q 635 1221 635 1188 q 653 1276 635 1253 q 706 1299 672 1299 q 758 1276 742 1299 q 775 1221 775 1253 q 758 1165 775 1188 q 706 1142 742 1142 m 428 1581 l 461 1581 l 569 1451 l 578 1451 l 686 1581 l 719 1581 l 589 1331 l 558 1331 l 428 1581 z "},"Ǜ":{"ha":1042,"x_min":35,"x_max":1035,"o":"m 547 -15 q 278 61 374 -15 q 182 310 182 138 l 182 801 q 172 900 182 871 q 137 938 163 929 q 63 953 111 947 l 35 956 l 35 990 l 240 986 l 242 986 l 447 990 l 447 956 l 419 953 q 346 938 372 947 q 310 900 319 929 q 300 801 300 871 l 300 310 q 376 100 300 169 q 574 31 453 31 q 776 108 714 31 q 839 318 839 185 l 839 801 q 829 900 839 871 q 794 938 819 929 q 719 953 768 947 l 692 956 l 692 990 l 897 988 l 1035 990 l 1035 956 l 1007 953 q 933 938 960 947 q 897 900 907 929 q 888 801 888 871 l 888 318 q 803 71 888 157 q 547 -15 718 -15 m 442 1142 q 390 1165 408 1142 q 371 1221 371 1188 q 390 1276 371 1253 q 442 1299 408 1299 q 494 1276 478 1299 q 511 1221 511 1253 q 494 1165 511 1188 q 442 1142 478 1142 m 706 1142 q 653 1165 672 1142 q 635 1221 635 1188 q 653 1276 635 1253 q 706 1299 672 1299 q 758 1276 742 1299 q 775 1221 775 1253 q 758 1165 775 1188 q 706 1142 742 1142 m 581 1331 l 564 1331 l 432 1581 l 544 1581 l 581 1331 z "},"Ǖ":{"ha":1042,"x_min":35,"x_max":1035,"o":"m 547 -15 q 278 61 374 -15 q 182 310 182 138 l 182 801 q 172 900 182 871 q 137 938 163 929 q 63 953 111 947 l 35 956 l 35 990 l 240 986 l 242 986 l 447 990 l 447 956 l 419 953 q 346 938 372 947 q 310 900 319 929 q 300 801 300 871 l 300 310 q 376 100 300 169 q 574 31 453 31 q 776 108 714 31 q 839 318 839 185 l 839 801 q 829 900 839 871 q 794 938 819 929 q 719 953 768 947 l 692 956 l 692 990 l 897 988 l 1035 990 l 1035 956 l 1007 953 q 933 938 960 947 q 897 900 907 929 q 888 801 888 871 l 888 318 q 803 71 888 157 q 547 -15 718 -15 m 442 1142 q 390 1165 408 1142 q 371 1221 371 1188 q 390 1276 371 1253 q 442 1299 408 1299 q 494 1276 478 1299 q 511 1221 511 1253 q 494 1165 511 1188 q 442 1142 478 1142 m 706 1142 q 653 1165 672 1142 q 635 1221 635 1188 q 653 1276 635 1253 q 706 1299 672 1299 q 758 1276 742 1299 q 775 1221 775 1253 q 758 1165 775 1188 q 706 1142 742 1142 m 410 1433 l 410 1489 l 725 1489 l 725 1433 l 410 1433 z "},"Ù":{"ha":1042,"x_min":35,"x_max":1035,"o":"m 547 -15 q 278 61 374 -15 q 182 310 182 138 l 182 801 q 172 900 182 871 q 137 938 163 929 q 63 953 111 947 l 35 956 l 35 990 l 240 986 l 242 986 l 447 990 l 447 956 l 419 953 q 346 938 372 947 q 310 900 319 929 q 300 801 300 871 l 300 310 q 376 100 300 169 q 574 31 453 31 q 776 108 714 31 q 839 318 839 185 l 839 801 q 829 900 839 871 q 794 938 819 929 q 719 953 768 947 l 692 956 l 692 990 l 897 988 l 1035 990 l 1035 956 l 1007 953 q 933 938 960 947 q 897 900 907 929 q 888 801 888 871 l 888 318 q 803 71 888 157 q 547 -15 718 -15 m 576 1056 l 560 1056 l 428 1306 l 540 1306 l 576 1056 z "},"Ű":{"ha":1042,"x_min":35,"x_max":1035,"o":"m 547 -15 q 278 61 374 -15 q 182 310 182 138 l 182 801 q 172 900 182 871 q 137 938 163 929 q 63 953 111 947 l 35 956 l 35 990 l 240 986 l 242 986 l 447 990 l 447 956 l 419 953 q 346 938 372 947 q 310 900 319 929 q 300 801 300 871 l 300 310 q 376 100 300 169 q 574 31 453 31 q 776 108 714 31 q 839 318 839 185 l 839 801 q 829 900 839 871 q 794 938 819 929 q 719 953 768 947 l 692 956 l 692 990 l 897 988 l 1035 990 l 1035 956 l 1007 953 q 933 938 960 947 q 897 900 907 929 q 888 801 888 871 l 888 318 q 803 71 888 157 q 547 -15 718 -15 m 638 1057 l 674 1307 l 786 1307 l 654 1057 l 638 1057 m 453 1056 l 489 1306 l 601 1306 l 469 1056 l 453 1056 z "},"Ū":{"ha":1042,"x_min":35,"x_max":1035,"o":"m 547 -15 q 278 61 374 -15 q 182 310 182 138 l 182 801 q 172 900 182 871 q 137 938 163 929 q 63 953 111 947 l 35 956 l 35 990 l 240 986 l 242 986 l 447 990 l 447 956 l 419 953 q 346 938 372 947 q 310 900 319 929 q 300 801 300 871 l 300 310 q 376 100 300 169 q 574 31 453 31 q 776 108 714 31 q 839 318 839 185 l 839 801 q 829 900 839 871 q 794 938 819 929 q 719 953 768 947 l 692 956 l 692 990 l 897 988 l 1035 990 l 1035 956 l 1007 953 q 933 938 960 947 q 897 900 907 929 q 888 801 888 871 l 888 318 q 803 71 888 157 q 547 -15 718 -15 m 406 1158 l 406 1214 l 721 1214 l 721 1158 l 406 1158 z "},"Ų":{"ha":1042,"x_min":35,"x_max":1035,"o":"m 547 -15 q 278 61 374 -15 q 182 310 182 138 l 182 801 q 172 900 182 871 q 137 938 163 929 q 63 953 111 947 l 35 956 l 35 990 l 240 986 l 242 986 l 447 990 l 447 956 l 419 953 q 346 938 372 947 q 310 900 319 929 q 300 801 300 871 l 300 310 q 376 100 300 169 q 574 31 453 31 q 776 108 714 31 q 839 318 839 185 l 839 801 q 829 900 839 871 q 794 938 819 929 q 719 953 768 947 l 692 956 l 692 990 l 897 988 l 1035 990 l 1035 956 l 1007 953 q 933 938 960 947 q 897 900 907 929 q 888 801 888 871 l 888 318 q 803 71 888 157 q 547 -15 718 -15 m 668 -408 q 561 -367 604 -408 q 518 -267 518 -326 q 548 -163 518 -214 q 619 -64 578 -112 q 697 26 661 -15 l 733 26 q 631 -95 674 -39 q 588 -214 588 -151 q 617 -302 588 -272 q 697 -332 647 -332 q 771 -306 736 -332 q 825 -236 806 -279 l 849 -254 q 824 -325 844 -289 q 766 -385 804 -361 q 668 -408 728 -408 z "},"Ů":{"ha":1042,"x_min":35,"x_max":1035,"o":"m 547 -15 q 278 61 374 -15 q 182 310 182 138 l 182 801 q 172 900 182 871 q 137 938 163 929 q 63 953 111 947 l 35 956 l 35 990 l 240 986 l 242 986 l 447 990 l 447 956 l 419 953 q 346 938 372 947 q 310 900 319 929 q 300 801 300 871 l 300 310 q 376 100 300 169 q 574 31 453 31 q 776 108 714 31 q 839 318 839 185 l 839 801 q 829 900 839 871 q 794 938 819 929 q 719 953 768 947 l 692 956 l 692 990 l 897 988 l 1035 990 l 1035 956 l 1007 953 q 933 938 960 947 q 897 900 907 929 q 888 801 888 871 l 888 318 q 803 71 888 157 q 547 -15 718 -15 m 571 1064 q 484 1099 517 1064 q 451 1182 451 1133 q 482 1263 451 1226 q 569 1300 513 1300 q 637 1281 611 1300 q 674 1235 663 1263 q 686 1182 686 1208 q 649 1092 686 1121 q 571 1064 613 1064 m 571 1107 q 619 1126 597 1107 q 640 1182 640 1144 q 619 1238 640 1218 q 569 1257 597 1257 q 522 1240 546 1257 q 497 1182 497 1222 q 519 1127 497 1147 q 571 1107 542 1107 z "},"Ũ":{"ha":1042,"x_min":35,"x_max":1035,"o":"m 547 -15 q 278 61 374 -15 q 182 310 182 138 l 182 801 q 172 900 182 871 q 137 938 163 929 q 63 953 111 947 l 35 956 l 35 990 l 240 986 l 242 986 l 447 990 l 447 956 l 419 953 q 346 938 372 947 q 310 900 319 929 q 300 801 300 871 l 300 310 q 376 100 300 169 q 574 31 453 31 q 776 108 714 31 q 839 318 839 185 l 839 801 q 829 900 839 871 q 794 938 819 929 q 719 953 768 947 l 692 956 l 692 990 l 897 988 l 1035 990 l 1035 956 l 1007 953 q 933 938 960 947 q 897 900 907 929 q 888 801 888 871 l 888 318 q 803 71 888 157 q 547 -15 718 -15 m 672 1113 q 621 1125 646 1113 q 578 1147 596 1138 l 542 1169 q 497 1195 517 1185 q 457 1206 476 1206 q 404 1179 426 1206 q 375 1128 382 1153 l 349 1128 q 361 1183 349 1149 q 400 1244 374 1217 q 468 1272 426 1272 q 521 1258 494 1272 q 561 1236 547 1244 l 613 1206 q 644 1190 624 1200 q 683 1179 665 1179 q 730 1200 711 1179 q 758 1250 749 1221 l 785 1250 q 746 1150 778 1188 q 672 1113 714 1113 z "},"V":{"ha":1018,"x_min":-21,"x_max":1039,"o":"m 494 -14 l 131 843 q 85 913 113 886 q 7 950 58 940 l -21 956 l -21 990 l 186 986 l 393 990 l 393 956 l 351 951 q 283 930 308 947 q 257 878 257 913 q 272 815 257 853 l 553 150 l 822 817 q 834 852 831 836 q 838 881 838 868 q 815 930 838 914 q 754 950 793 946 l 706 956 l 706 990 l 900 986 l 1039 990 l 1039 957 l 1007 950 q 925 907 954 939 q 872 815 896 875 l 539 -14 l 494 -14 z "},"W":{"ha":1457,"x_min":-21,"x_max":1478,"o":"m 410 -12 l 138 825 q 88 912 119 885 q 11 949 56 939 l -21 956 l -21 990 l 188 986 l 393 990 l 393 956 l 354 951 q 284 935 317 947 q 251 879 251 922 q 261 831 251 858 l 474 175 l 715 832 q 724 874 724 857 q 700 923 724 906 q 636 946 676 940 l 581 954 l 586 990 l 644 983 q 767 922 744 972 q 828 975 788 964 q 907 988 869 986 l 958 990 l 961 954 l 908 950 q 818 874 818 943 q 832 808 818 844 l 1064 179 l 1268 847 q 1275 888 1275 872 q 1254 931 1275 918 q 1193 949 1233 943 l 1147 954 l 1147 990 l 1331 986 l 1478 990 l 1478 954 l 1444 949 q 1366 922 1399 942 q 1322 863 1333 901 l 1056 -12 l 1011 -12 l 731 736 l 454 -12 l 410 -12 z "},"Ẃ":{"ha":1457,"x_min":-21,"x_max":1478,"o":"m 410 -12 l 138 825 q 88 912 119 885 q 11 949 56 939 l -21 956 l -21 990 l 188 986 l 393 990 l 393 956 l 354 951 q 284 935 317 947 q 251 879 251 922 q 261 831 251 858 l 474 175 l 715 832 q 724 874 724 857 q 700 923 724 906 q 636 946 676 940 l 581 954 l 586 990 l 644 983 q 767 922 744 972 q 828 975 788 964 q 907 988 869 986 l 958 990 l 961 954 l 908 950 q 818 874 818 943 q 832 808 818 844 l 1064 179 l 1268 847 q 1275 888 1275 872 q 1254 931 1275 918 q 1193 949 1233 943 l 1147 954 l 1147 990 l 1331 986 l 1478 990 l 1478 954 l 1444 949 q 1366 922 1399 942 q 1322 863 1333 901 l 1056 -12 l 1011 -12 l 731 736 l 454 -12 l 410 -12 m 707 1103 l 761 1308 q 788 1369 772 1353 q 821 1386 804 1386 q 851 1374 838 1386 q 864 1336 864 1361 q 858 1302 864 1319 q 840 1268 851 1285 l 738 1103 l 707 1103 z "},"Ŵ":{"ha":1457,"x_min":-21,"x_max":1478,"o":"m 410 -12 l 138 825 q 88 912 119 885 q 11 949 56 939 l -21 956 l -21 990 l 188 986 l 393 990 l 393 956 l 354 951 q 284 935 317 947 q 251 879 251 922 q 261 831 251 858 l 474 175 l 715 832 q 724 874 724 857 q 700 923 724 906 q 636 946 676 940 l 581 954 l 586 990 l 644 983 q 767 922 744 972 q 828 975 788 964 q 907 988 869 986 l 958 990 l 961 954 l 908 950 q 818 874 818 943 q 832 808 818 844 l 1064 179 l 1268 847 q 1275 888 1275 872 q 1254 931 1275 918 q 1193 949 1233 943 l 1147 954 l 1147 990 l 1331 986 l 1478 990 l 1478 954 l 1444 949 q 1366 922 1399 942 q 1322 863 1333 901 l 1056 -12 l 1011 -12 l 731 736 l 454 -12 l 410 -12 m 608 1057 l 739 1306 l 769 1306 l 900 1057 l 867 1057 l 758 1185 l 750 1185 l 642 1057 l 608 1057 z "},"Ẅ":{"ha":1457,"x_min":-21,"x_max":1478,"o":"m 410 -12 l 138 825 q 88 912 119 885 q 11 949 56 939 l -21 956 l -21 990 l 188 986 l 393 990 l 393 956 l 354 951 q 284 935 317 947 q 251 879 251 922 q 261 831 251 858 l 474 175 l 715 832 q 724 874 724 857 q 700 923 724 906 q 636 946 676 940 l 581 954 l 586 990 l 644 983 q 767 922 744 972 q 828 975 788 964 q 907 988 869 986 l 958 990 l 961 954 l 908 950 q 818 874 818 943 q 832 808 818 844 l 1064 179 l 1268 847 q 1275 888 1275 872 q 1254 931 1275 918 q 1193 949 1233 943 l 1147 954 l 1147 990 l 1331 986 l 1478 990 l 1478 954 l 1444 949 q 1366 922 1399 942 q 1322 863 1333 901 l 1056 -12 l 1011 -12 l 731 736 l 454 -12 l 410 -12 m 629 1142 q 577 1165 596 1142 q 558 1221 558 1188 q 577 1276 558 1253 q 629 1299 596 1299 q 682 1276 665 1299 q 699 1221 699 1253 q 682 1165 699 1188 q 629 1142 665 1142 m 893 1142 q 841 1165 860 1142 q 822 1221 822 1188 q 841 1276 822 1253 q 893 1299 860 1299 q 946 1276 929 1299 q 963 1221 963 1253 q 946 1165 963 1188 q 893 1142 929 1142 z "},"Ẁ":{"ha":1457,"x_min":-21,"x_max":1478,"o":"m 410 -12 l 138 825 q 88 912 119 885 q 11 949 56 939 l -21 956 l -21 990 l 188 986 l 393 990 l 393 956 l 354 951 q 284 935 317 947 q 251 879 251 922 q 261 831 251 858 l 474 175 l 715 832 q 724 874 724 857 q 700 923 724 906 q 636 946 676 940 l 581 954 l 586 990 l 644 983 q 767 922 744 972 q 828 975 788 964 q 907 988 869 986 l 958 990 l 961 954 l 908 950 q 818 874 818 943 q 832 808 818 844 l 1064 179 l 1268 847 q 1275 888 1275 872 q 1254 931 1275 918 q 1193 949 1233 943 l 1147 954 l 1147 990 l 1331 986 l 1478 990 l 1478 954 l 1444 949 q 1366 922 1399 942 q 1322 863 1333 901 l 1056 -12 l 1011 -12 l 731 736 l 454 -12 l 410 -12 m 801 1103 l 771 1103 l 668 1268 q 651 1302 658 1285 q 644 1336 644 1319 q 658 1374 644 1361 q 688 1386 671 1386 q 720 1369 704 1386 q 747 1308 736 1353 l 801 1103 z "},"X":{"ha":982,"x_min":-14,"x_max":996,"o":"m -14 -4 l -14 31 l 15 35 q 72 49 43 39 q 134 87 100 58 q 211 175 168 115 l 436 483 l 208 825 q 150 898 176 874 q 97 933 124 922 q 33 950 69 943 l 6 956 l 6 990 l 235 986 l 450 990 l 450 956 l 392 949 q 319 899 319 940 q 361 801 319 864 l 517 568 l 707 833 q 732 897 732 869 q 671 950 732 942 l 625 956 l 625 990 l 808 986 l 969 990 l 969 956 l 940 953 q 853 918 901 949 q 749 810 804 888 l 544 528 l 786 165 q 871 72 831 100 q 954 38 911 44 l 996 31 l 996 -4 l 789 0 l 551 -4 l 551 31 l 608 36 q 674 89 674 42 q 638 179 674 124 l 463 443 l 253 151 q 235 117 240 133 q 231 86 231 100 q 278 36 231 40 l 331 31 l 331 -4 l 158 0 l -14 -4 z "},"Y":{"ha":919,"x_min":-28,"x_max":947,"o":"m 261 -4 l 261 31 l 289 33 q 363 48 338 39 q 399 87 389 57 q 408 185 408 117 l 408 399 l 165 824 q 101 908 133 881 q 13 947 69 936 l -28 956 l -28 990 l 183 986 l 392 990 l 392 956 l 347 951 q 292 935 313 949 q 271 893 271 921 q 301 808 271 861 l 504 456 l 706 808 q 736 894 736 864 q 714 936 736 924 q 657 951 692 949 l 617 956 l 617 990 l 800 983 l 947 990 l 947 956 l 910 949 q 837 917 865 940 q 779 842 808 893 l 526 400 l 526 185 q 536 87 526 117 q 572 48 546 57 q 646 33 599 39 l 674 31 l 674 -4 l 468 0 l 467 0 l 261 -4 z "},"Ý":{"ha":919,"x_min":-28,"x_max":947,"o":"m 261 -4 l 261 31 l 289 33 q 363 48 338 39 q 399 87 389 57 q 408 185 408 117 l 408 399 l 165 824 q 101 908 133 881 q 13 947 69 936 l -28 956 l -28 990 l 183 986 l 392 990 l 392 956 l 347 951 q 292 935 313 949 q 271 893 271 921 q 301 808 271 861 l 504 456 l 706 808 q 736 894 736 864 q 714 936 736 924 q 657 951 692 949 l 617 956 l 617 990 l 800 983 l 947 990 l 947 956 l 910 949 q 837 917 865 940 q 779 842 808 893 l 526 400 l 526 185 q 536 87 526 117 q 572 48 546 57 q 646 33 599 39 l 674 31 l 674 -4 l 468 0 l 467 0 l 261 -4 m 472 1103 l 526 1308 q 553 1369 538 1353 q 586 1386 569 1386 q 616 1374 603 1386 q 629 1336 629 1361 q 623 1302 629 1319 q 606 1268 617 1285 l 503 1103 l 472 1103 z "},"Ŷ":{"ha":919,"x_min":-28,"x_max":947,"o":"m 261 -4 l 261 31 l 289 33 q 363 48 338 39 q 399 87 389 57 q 408 185 408 117 l 408 399 l 165 824 q 101 908 133 881 q 13 947 69 936 l -28 956 l -28 990 l 183 986 l 392 990 l 392 956 l 347 951 q 292 935 313 949 q 271 893 271 921 q 301 808 271 861 l 504 456 l 706 808 q 736 894 736 864 q 714 936 736 924 q 657 951 692 949 l 617 956 l 617 990 l 800 983 l 947 990 l 947 956 l 910 949 q 837 917 865 940 q 779 842 808 893 l 526 400 l 526 185 q 536 87 526 117 q 572 48 546 57 q 646 33 599 39 l 674 31 l 674 -4 l 468 0 l 467 0 l 261 -4 m 375 1103 l 506 1367 l 536 1367 l 667 1103 l 633 1103 l 525 1239 l 517 1239 l 408 1103 l 375 1103 z "},"Ÿ":{"ha":919,"x_min":-28,"x_max":947,"o":"m 261 -4 l 261 31 l 289 33 q 363 48 338 39 q 399 87 389 57 q 408 185 408 117 l 408 399 l 165 824 q 101 908 133 881 q 13 947 69 936 l -28 956 l -28 990 l 183 986 l 392 990 l 392 956 l 347 951 q 292 935 313 949 q 271 893 271 921 q 301 808 271 861 l 504 456 l 706 808 q 736 894 736 864 q 714 936 736 924 q 657 951 692 949 l 617 956 l 617 990 l 800 983 l 947 990 l 947 956 l 910 949 q 837 917 865 940 q 779 842 808 893 l 526 400 l 526 185 q 536 87 526 117 q 572 48 546 57 q 646 33 599 39 l 674 31 l 674 -4 l 468 0 l 467 0 l 261 -4 m 394 1142 q 342 1165 361 1142 q 324 1221 324 1188 q 342 1276 324 1253 q 394 1299 361 1299 q 447 1276 431 1299 q 464 1221 464 1253 q 447 1165 464 1188 q 394 1142 431 1142 m 658 1142 q 606 1165 625 1142 q 588 1221 588 1188 q 606 1276 588 1253 q 658 1299 625 1299 q 711 1276 694 1299 q 728 1221 728 1253 q 711 1165 728 1188 q 658 1142 694 1142 z "},"Ỳ":{"ha":919,"x_min":-28,"x_max":947,"o":"m 261 -4 l 261 31 l 289 33 q 363 48 338 39 q 399 87 389 57 q 408 185 408 117 l 408 399 l 165 824 q 101 908 133 881 q 13 947 69 936 l -28 956 l -28 990 l 183 986 l 392 990 l 392 956 l 347 951 q 292 935 313 949 q 271 893 271 921 q 301 808 271 861 l 504 456 l 706 808 q 736 894 736 864 q 714 936 736 924 q 657 951 692 949 l 617 956 l 617 990 l 800 983 l 947 990 l 947 956 l 910 949 q 837 917 865 940 q 779 842 808 893 l 526 400 l 526 185 q 536 87 526 117 q 572 48 546 57 q 646 33 599 39 l 674 31 l 674 -4 l 468 0 l 467 0 l 261 -4 m 567 1103 l 536 1103 l 433 1268 q 417 1302 424 1285 q 410 1336 410 1319 q 423 1374 410 1361 q 453 1386 436 1386 q 485 1369 469 1386 q 513 1308 501 1353 l 567 1103 z "},"Ỹ":{"ha":919,"x_min":-28,"x_max":947,"o":"m 261 -4 l 261 31 l 289 33 q 363 48 338 39 q 399 87 389 57 q 408 185 408 117 l 408 399 l 165 824 q 101 908 133 881 q 13 947 69 936 l -28 956 l -28 990 l 183 986 l 392 990 l 392 956 l 347 951 q 292 935 313 949 q 271 893 271 921 q 301 808 271 861 l 504 456 l 706 808 q 736 894 736 864 q 714 936 736 924 q 657 951 692 949 l 617 956 l 617 990 l 800 983 l 947 990 l 947 956 l 910 949 q 837 917 865 940 q 779 842 808 893 l 526 400 l 526 185 q 536 87 526 117 q 572 48 546 57 q 646 33 599 39 l 674 31 l 674 -4 l 468 0 l 467 0 l 261 -4 m 625 1113 q 574 1125 599 1113 q 531 1147 549 1138 l 494 1169 q 449 1195 469 1185 q 410 1206 429 1206 q 357 1179 379 1206 q 328 1128 335 1153 l 301 1128 q 314 1183 301 1149 q 353 1244 326 1217 q 421 1272 379 1272 q 474 1258 447 1272 q 514 1236 500 1244 l 565 1206 q 597 1190 576 1200 q 636 1179 618 1179 q 683 1200 664 1179 q 711 1250 701 1221 l 738 1250 q 699 1150 731 1188 q 625 1113 667 1113 z "},"Z":{"ha":888,"x_min":42,"x_max":832,"o":"m 818 -4 l 532 0 l 42 0 l 42 36 l 674 944 l 401 942 q 251 929 307 940 q 167 894 196 918 q 127 831 139 871 q 107 731 115 790 l 74 731 l 89 915 l 92 989 l 501 986 l 813 990 l 813 943 l 186 42 l 525 44 q 684 83 631 46 q 761 193 738 121 q 799 371 785 265 l 832 371 l 818 139 l 818 -4 z "},"Ź":{"ha":888,"x_min":42,"x_max":832,"o":"m 818 -4 l 532 0 l 42 0 l 42 36 l 674 944 l 401 942 q 251 929 307 940 q 167 894 196 918 q 127 831 139 871 q 107 731 115 790 l 74 731 l 89 915 l 92 989 l 501 986 l 813 990 l 813 943 l 186 42 l 525 44 q 684 83 631 46 q 761 193 738 121 q 799 371 785 265 l 832 371 l 818 139 l 818 -4 m 381 1103 l 435 1308 q 462 1369 446 1353 q 494 1386 478 1386 q 524 1374 511 1386 q 538 1336 538 1361 q 531 1302 538 1319 q 514 1268 525 1285 l 411 1103 l 381 1103 z "},"Ž":{"ha":888,"x_min":42,"x_max":832,"o":"m 818 -4 l 532 0 l 42 0 l 42 36 l 674 944 l 401 942 q 251 929 307 940 q 167 894 196 918 q 127 831 139 871 q 107 731 115 790 l 74 731 l 89 915 l 92 989 l 501 986 l 813 990 l 813 943 l 186 42 l 525 44 q 684 83 631 46 q 761 193 738 121 q 799 371 785 265 l 832 371 l 818 139 l 818 -4 m 285 1306 l 318 1306 l 426 1176 l 435 1176 l 543 1306 l 576 1306 l 446 1056 l 415 1056 l 285 1306 z "},"Ż":{"ha":888,"x_min":42,"x_max":832,"o":"m 818 -4 l 532 0 l 42 0 l 42 36 l 674 944 l 401 942 q 251 929 307 940 q 167 894 196 918 q 127 831 139 871 q 107 731 115 790 l 74 731 l 89 915 l 92 989 l 501 986 l 813 990 l 813 943 l 186 42 l 525 44 q 684 83 631 46 q 761 193 738 121 q 799 371 785 265 l 832 371 l 818 139 l 818 -4 m 425 1165 q 368 1190 389 1165 q 347 1250 347 1215 q 368 1310 347 1286 q 425 1335 389 1335 q 484 1310 465 1335 q 503 1250 503 1286 q 484 1190 503 1215 q 425 1165 465 1165 z "},"a":{"ha":681,"x_min":69,"x_max":681,"o":"m 224 -15 q 113 19 157 -15 q 69 114 69 53 q 124 223 69 175 q 250 310 178 271 q 358 363 304 340 q 451 400 413 385 l 451 444 q 423 558 451 521 q 315 596 394 596 q 242 586 278 596 q 206 550 206 576 q 208 538 206 544 q 211 524 210 531 q 218 486 218 506 q 199 445 218 460 q 154 431 181 431 q 113 449 129 431 q 96 494 96 468 q 134 574 96 544 q 228 617 172 604 q 335 631 283 631 q 497 579 446 631 q 549 411 549 528 l 549 161 q 558 67 549 100 q 599 33 567 33 q 635 49 619 33 q 656 82 650 64 l 681 72 q 641 8 669 32 q 563 -15 613 -15 q 478 20 501 -15 q 453 114 456 56 q 354 18 414 51 q 224 -15 294 -15 m 178 121 q 201 59 178 82 q 268 36 224 36 q 345 56 308 36 q 410 105 382 75 q 451 169 438 135 l 451 372 q 358 327 406 353 q 269 269 310 301 q 203 201 228 238 q 178 121 178 164 z "},"á":{"ha":681,"x_min":69,"x_max":681,"o":"m 224 -15 q 113 19 157 -15 q 69 114 69 53 q 124 223 69 175 q 250 310 178 271 q 358 363 304 340 q 451 400 413 385 l 451 444 q 423 558 451 521 q 315 596 394 596 q 242 586 278 596 q 206 550 206 576 q 208 538 206 544 q 211 524 210 531 q 218 486 218 506 q 199 445 218 460 q 154 431 181 431 q 113 449 129 431 q 96 494 96 468 q 134 574 96 544 q 228 617 172 604 q 335 631 283 631 q 497 579 446 631 q 549 411 549 528 l 549 161 q 558 67 549 100 q 599 33 567 33 q 635 49 619 33 q 656 82 650 64 l 681 72 q 641 8 669 32 q 563 -15 613 -15 q 478 20 501 -15 q 453 114 456 56 q 354 18 414 51 q 224 -15 294 -15 m 178 121 q 201 59 178 82 q 268 36 224 36 q 345 56 308 36 q 410 105 382 75 q 451 169 438 135 l 451 372 q 358 327 406 353 q 269 269 310 301 q 203 201 228 238 q 178 121 178 164 m 286 718 l 340 924 q 367 985 351 968 q 400 1001 383 1001 q 430 989 417 1001 q 443 951 443 976 q 437 917 443 935 q 419 883 431 900 l 317 718 l 286 718 z "},"ă":{"ha":681,"x_min":69,"x_max":681,"o":"m 224 -15 q 113 19 157 -15 q 69 114 69 53 q 124 223 69 175 q 250 310 178 271 q 358 363 304 340 q 451 400 413 385 l 451 444 q 423 558 451 521 q 315 596 394 596 q 242 586 278 596 q 206 550 206 576 q 208 538 206 544 q 211 524 210 531 q 218 486 218 506 q 199 445 218 460 q 154 431 181 431 q 113 449 129 431 q 96 494 96 468 q 134 574 96 544 q 228 617 172 604 q 335 631 283 631 q 497 579 446 631 q 549 411 549 528 l 549 161 q 558 67 549 100 q 599 33 567 33 q 635 49 619 33 q 656 82 650 64 l 681 72 q 641 8 669 32 q 563 -15 613 -15 q 478 20 501 -15 q 453 114 456 56 q 354 18 414 51 q 224 -15 294 -15 m 178 121 q 201 59 178 82 q 268 36 224 36 q 345 56 308 36 q 410 105 382 75 q 451 169 438 135 l 451 372 q 358 327 406 353 q 269 269 310 301 q 203 201 228 238 q 178 121 178 164 m 336 756 q 231 802 267 756 q 196 917 196 849 l 196 963 l 231 963 l 231 956 q 258 863 231 888 q 336 839 286 839 q 414 863 386 839 q 442 956 442 888 l 442 963 l 476 963 l 476 917 q 441 802 476 849 q 336 756 406 756 z "},"ǎ":{"ha":681,"x_min":69,"x_max":681,"o":"m 224 -15 q 113 19 157 -15 q 69 114 69 53 q 124 223 69 175 q 250 310 178 271 q 358 363 304 340 q 451 400 413 385 l 451 444 q 423 558 451 521 q 315 596 394 596 q 242 586 278 596 q 206 550 206 576 q 208 538 206 544 q 211 524 210 531 q 218 486 218 506 q 199 445 218 460 q 154 431 181 431 q 113 449 129 431 q 96 494 96 468 q 134 574 96 544 q 228 617 172 604 q 335 631 283 631 q 497 579 446 631 q 549 411 549 528 l 549 161 q 558 67 549 100 q 599 33 567 33 q 635 49 619 33 q 656 82 650 64 l 681 72 q 641 8 669 32 q 563 -15 613 -15 q 478 20 501 -15 q 453 114 456 56 q 354 18 414 51 q 224 -15 294 -15 m 178 121 q 201 59 178 82 q 268 36 224 36 q 345 56 308 36 q 410 105 382 75 q 451 169 438 135 l 451 372 q 358 327 406 353 q 269 269 310 301 q 203 201 228 238 q 178 121 178 164 m 190 983 l 224 983 l 332 847 l 340 847 l 449 983 l 482 983 l 351 719 l 321 719 l 190 983 z "},"â":{"ha":681,"x_min":69,"x_max":681,"o":"m 224 -15 q 113 19 157 -15 q 69 114 69 53 q 124 223 69 175 q 250 310 178 271 q 358 363 304 340 q 451 400 413 385 l 451 444 q 423 558 451 521 q 315 596 394 596 q 242 586 278 596 q 206 550 206 576 q 208 538 206 544 q 211 524 210 531 q 218 486 218 506 q 199 445 218 460 q 154 431 181 431 q 113 449 129 431 q 96 494 96 468 q 134 574 96 544 q 228 617 172 604 q 335 631 283 631 q 497 579 446 631 q 549 411 549 528 l 549 161 q 558 67 549 100 q 599 33 567 33 q 635 49 619 33 q 656 82 650 64 l 681 72 q 641 8 669 32 q 563 -15 613 -15 q 478 20 501 -15 q 453 114 456 56 q 354 18 414 51 q 224 -15 294 -15 m 178 121 q 201 59 178 82 q 268 36 224 36 q 345 56 308 36 q 410 105 382 75 q 451 169 438 135 l 451 372 q 358 327 406 353 q 269 269 310 301 q 203 201 228 238 q 178 121 178 164 m 189 718 l 319 982 l 350 982 l 481 718 l 447 718 l 339 854 l 331 854 l 222 718 l 189 718 z "},"ä":{"ha":681,"x_min":69,"x_max":681,"o":"m 224 -15 q 113 19 157 -15 q 69 114 69 53 q 124 223 69 175 q 250 310 178 271 q 358 363 304 340 q 451 400 413 385 l 451 444 q 423 558 451 521 q 315 596 394 596 q 242 586 278 596 q 206 550 206 576 q 208 538 206 544 q 211 524 210 531 q 218 486 218 506 q 199 445 218 460 q 154 431 181 431 q 113 449 129 431 q 96 494 96 468 q 134 574 96 544 q 228 617 172 604 q 335 631 283 631 q 497 579 446 631 q 549 411 549 528 l 549 161 q 558 67 549 100 q 599 33 567 33 q 635 49 619 33 q 656 82 650 64 l 681 72 q 641 8 669 32 q 563 -15 613 -15 q 478 20 501 -15 q 453 114 456 56 q 354 18 414 51 q 224 -15 294 -15 m 178 121 q 201 59 178 82 q 268 36 224 36 q 345 56 308 36 q 410 105 382 75 q 451 169 438 135 l 451 372 q 358 327 406 353 q 269 269 310 301 q 203 201 228 238 q 178 121 178 164 m 200 783 q 148 806 167 783 q 129 863 129 829 q 148 917 129 894 q 200 940 167 940 q 253 917 236 940 q 269 863 269 894 q 253 806 269 829 q 200 783 236 783 m 464 783 q 412 806 431 783 q 393 863 393 829 q 412 917 393 894 q 464 940 431 940 q 517 917 500 940 q 533 863 533 894 q 517 806 533 829 q 464 783 500 783 z "},"à":{"ha":681,"x_min":69,"x_max":681,"o":"m 224 -15 q 113 19 157 -15 q 69 114 69 53 q 124 223 69 175 q 250 310 178 271 q 358 363 304 340 q 451 400 413 385 l 451 444 q 423 558 451 521 q 315 596 394 596 q 242 586 278 596 q 206 550 206 576 q 208 538 206 544 q 211 524 210 531 q 218 486 218 506 q 199 445 218 460 q 154 431 181 431 q 113 449 129 431 q 96 494 96 468 q 134 574 96 544 q 228 617 172 604 q 335 631 283 631 q 497 579 446 631 q 549 411 549 528 l 549 161 q 558 67 549 100 q 599 33 567 33 q 635 49 619 33 q 656 82 650 64 l 681 72 q 641 8 669 32 q 563 -15 613 -15 q 478 20 501 -15 q 453 114 456 56 q 354 18 414 51 q 224 -15 294 -15 m 178 121 q 201 59 178 82 q 268 36 224 36 q 345 56 308 36 q 410 105 382 75 q 451 169 438 135 l 451 372 q 358 327 406 353 q 269 269 310 301 q 203 201 228 238 q 178 121 178 164 m 381 718 l 350 718 l 247 883 q 231 917 238 900 q 224 951 224 935 q 237 989 224 976 q 267 1001 250 1001 q 299 985 283 1001 q 326 924 315 968 l 381 718 z "},"ā":{"ha":681,"x_min":69,"x_max":681,"o":"m 224 -15 q 113 19 157 -15 q 69 114 69 53 q 124 223 69 175 q 250 310 178 271 q 358 363 304 340 q 451 400 413 385 l 451 444 q 423 558 451 521 q 315 596 394 596 q 242 586 278 596 q 206 550 206 576 q 208 538 206 544 q 211 524 210 531 q 218 486 218 506 q 199 445 218 460 q 154 431 181 431 q 113 449 129 431 q 96 494 96 468 q 134 574 96 544 q 228 617 172 604 q 335 631 283 631 q 497 579 446 631 q 549 411 549 528 l 549 161 q 558 67 549 100 q 599 33 567 33 q 635 49 619 33 q 656 82 650 64 l 681 72 q 641 8 669 32 q 563 -15 613 -15 q 478 20 501 -15 q 453 114 456 56 q 354 18 414 51 q 224 -15 294 -15 m 178 121 q 201 59 178 82 q 268 36 224 36 q 345 56 308 36 q 410 105 382 75 q 451 169 438 135 l 451 372 q 358 327 406 353 q 269 269 310 301 q 203 201 228 238 q 178 121 178 164 m 176 831 l 176 886 l 492 886 l 492 831 l 176 831 z "},"ą":{"ha":681,"x_min":69,"x_max":779,"o":"m 224 -15 q 113 19 157 -15 q 69 114 69 53 q 124 223 69 175 q 250 310 178 271 q 358 363 304 340 q 451 400 413 385 l 451 444 q 423 558 451 521 q 315 596 394 596 q 242 586 278 596 q 206 550 206 576 q 208 538 206 544 q 211 524 210 531 q 218 486 218 506 q 199 445 218 460 q 154 431 181 431 q 113 449 129 431 q 96 494 96 468 q 134 574 96 544 q 228 617 172 604 q 335 631 283 631 q 497 579 446 631 q 549 411 549 528 l 549 161 q 558 67 549 100 q 599 33 567 33 q 635 49 619 33 q 656 82 650 64 l 681 72 q 641 8 669 32 q 563 -15 613 -15 q 478 20 501 -15 q 453 114 456 56 q 354 18 414 51 q 224 -15 294 -15 m 178 121 q 201 59 178 82 q 268 36 224 36 q 345 56 308 36 q 410 105 382 75 q 451 169 438 135 l 451 372 q 358 327 406 353 q 269 269 310 301 q 203 201 228 238 q 178 121 178 164 m 574 -408 q 472 -367 514 -408 q 431 -260 431 -326 q 493 -107 431 -186 q 653 56 556 -28 l 675 56 q 592 -48 628 -3 q 535 -133 556 -93 q 514 -218 514 -174 q 546 -294 514 -269 q 624 -318 578 -318 q 700 -296 668 -318 q 751 -236 732 -274 l 779 -247 q 749 -319 775 -282 q 680 -383 724 -357 q 574 -408 636 -408 z "},"å":{"ha":681,"x_min":69,"x_max":681,"o":"m 224 -15 q 113 19 157 -15 q 69 114 69 53 q 124 223 69 175 q 250 310 178 271 q 358 363 304 340 q 451 400 413 385 l 451 444 q 423 558 451 521 q 315 596 394 596 q 242 586 278 596 q 206 550 206 576 q 208 538 206 544 q 211 524 210 531 q 218 486 218 506 q 199 445 218 460 q 154 431 181 431 q 113 449 129 431 q 96 494 96 468 q 134 574 96 544 q 228 617 172 604 q 335 631 283 631 q 497 579 446 631 q 549 411 549 528 l 549 161 q 558 67 549 100 q 599 33 567 33 q 635 49 619 33 q 656 82 650 64 l 681 72 q 641 8 669 32 q 563 -15 613 -15 q 478 20 501 -15 q 453 114 456 56 q 354 18 414 51 q 224 -15 294 -15 m 178 121 q 201 59 178 82 q 268 36 224 36 q 345 56 308 36 q 410 105 382 75 q 451 169 438 135 l 451 372 q 358 327 406 353 q 269 269 310 301 q 203 201 228 238 q 178 121 178 164 m 333 732 q 247 767 279 732 q 214 850 214 801 q 244 931 214 894 q 332 968 275 968 q 399 949 374 968 q 437 903 425 931 q 449 850 449 876 q 412 760 449 789 q 333 732 375 732 m 333 775 q 381 794 360 775 q 403 850 403 813 q 381 906 403 886 q 332 925 360 925 q 284 908 308 925 q 260 850 260 890 q 282 795 260 815 q 333 775 304 775 z "},"ã":{"ha":681,"x_min":69,"x_max":681,"o":"m 224 -15 q 113 19 157 -15 q 69 114 69 53 q 124 223 69 175 q 250 310 178 271 q 358 363 304 340 q 451 400 413 385 l 451 444 q 423 558 451 521 q 315 596 394 596 q 242 586 278 596 q 206 550 206 576 q 208 538 206 544 q 211 524 210 531 q 218 486 218 506 q 199 445 218 460 q 154 431 181 431 q 113 449 129 431 q 96 494 96 468 q 134 574 96 544 q 228 617 172 604 q 335 631 283 631 q 497 579 446 631 q 549 411 549 528 l 549 161 q 558 67 549 100 q 599 33 567 33 q 635 49 619 33 q 656 82 650 64 l 681 72 q 641 8 669 32 q 563 -15 613 -15 q 478 20 501 -15 q 453 114 456 56 q 354 18 414 51 q 224 -15 294 -15 m 178 121 q 201 59 178 82 q 268 36 224 36 q 345 56 308 36 q 410 105 382 75 q 451 169 438 135 l 451 372 q 358 327 406 353 q 269 269 310 301 q 203 201 228 238 q 178 121 178 164 m 440 764 q 389 776 414 764 q 346 799 364 789 l 310 821 q 265 847 285 836 q 225 857 244 857 q 172 831 194 857 q 143 779 150 804 l 117 779 q 129 834 117 800 q 168 896 142 868 q 236 924 194 924 q 289 910 263 924 q 329 888 315 896 l 381 857 q 413 841 392 851 q 451 831 433 831 q 498 851 479 831 q 526 901 517 872 l 553 901 q 514 801 546 839 q 440 764 482 764 z "},"æ":{"ha":1050,"x_min":69,"x_max":988,"o":"m 235 -15 q 116 16 163 -15 q 69 115 69 47 q 97 192 69 156 q 168 260 124 228 q 265 318 213 292 q 366 365 317 344 q 451 400 415 386 l 451 425 q 444 510 451 472 q 411 572 436 549 q 331 596 386 596 q 276 592 306 596 q 226 578 247 588 q 206 550 206 568 q 208 538 206 544 q 211 524 210 531 q 218 486 218 506 q 199 445 218 460 q 153 431 181 431 q 113 447 129 431 q 96 490 96 464 q 134 571 96 540 q 228 616 172 601 q 338 631 285 631 q 466 601 422 631 q 529 526 510 571 q 618 601 564 571 q 747 631 672 631 q 913 563 851 631 q 975 382 975 494 q 973 358 975 368 q 968 340 971 347 l 549 340 l 549 308 q 574 165 549 228 q 649 65 600 101 q 764 29 697 29 q 876 65 825 29 q 954 172 928 100 l 988 163 q 744 -15 929 -15 q 580 25 650 -15 q 468 129 510 65 q 363 23 426 61 q 235 -15 299 -15 m 747 596 q 649 566 692 596 q 581 485 607 536 q 550 372 556 435 l 728 372 q 826 387 793 372 q 872 423 860 401 q 883 465 883 444 q 863 535 883 506 q 812 580 843 564 q 747 596 781 596 m 178 121 q 206 58 178 82 q 276 33 235 33 q 345 53 310 33 q 409 103 381 72 q 451 168 438 135 l 451 372 q 358 327 406 353 q 269 269 310 301 q 203 201 228 238 q 178 121 178 164 z "},"b":{"ha":771,"x_min":14,"x_max":708,"o":"m 136 -15 l 136 846 q 106 938 136 918 q 24 958 76 958 l 14 958 l 14 990 q 124 994 71 990 q 233 1007 176 997 l 233 543 q 319 607 271 583 q 426 631 368 631 q 570 588 507 631 q 671 471 633 544 q 708 306 708 397 q 671 144 708 217 q 569 28 633 71 q 421 -15 504 -15 q 313 10 363 -15 q 232 67 263 35 l 158 -15 l 136 -15 m 413 589 q 309 562 353 589 q 233 496 265 535 l 233 121 q 304 56 257 85 q 408 26 351 26 q 514 63 472 26 q 576 163 556 100 q 597 306 597 226 q 577 450 597 386 q 516 551 557 514 q 413 589 475 589 z "},"c":{"ha":653,"x_min":63,"x_max":611,"o":"m 369 -15 q 207 25 276 -15 q 100 135 138 65 q 63 293 63 204 q 106 467 63 390 q 222 587 149 543 q 389 631 296 631 q 481 617 433 631 q 560 575 528 603 q 593 507 593 547 q 574 456 593 476 q 526 436 554 436 q 472 457 490 436 q 454 499 454 478 q 456 518 454 510 q 460 533 458 526 q 464 548 463 540 q 465 564 465 556 q 437 590 465 583 q 388 596 408 596 q 232 515 290 596 q 174 300 174 433 q 199 164 174 226 q 272 64 224 101 q 390 26 319 26 q 501 59 449 26 q 578 171 554 92 l 611 160 q 517 24 585 64 q 369 -15 449 -15 z "},"ć":{"ha":653,"x_min":63,"x_max":611,"o":"m 369 -15 q 207 25 276 -15 q 100 135 138 65 q 63 293 63 204 q 106 467 63 390 q 222 587 149 543 q 389 631 296 631 q 481 617 433 631 q 560 575 528 603 q 593 507 593 547 q 574 456 593 476 q 526 436 554 436 q 472 457 490 436 q 454 499 454 478 q 456 518 454 510 q 460 533 458 526 q 464 548 463 540 q 465 564 465 556 q 437 590 465 583 q 388 596 408 596 q 232 515 290 596 q 174 300 174 433 q 199 164 174 226 q 272 64 224 101 q 390 26 319 26 q 501 59 449 26 q 578 171 554 92 l 611 160 q 517 24 585 64 q 369 -15 449 -15 m 315 718 l 369 924 q 397 985 381 968 q 429 1001 413 1001 q 459 989 446 1001 q 472 951 472 976 q 466 917 472 935 q 449 883 460 900 l 346 718 l 315 718 z "},"č":{"ha":653,"x_min":63,"x_max":611,"o":"m 369 -15 q 207 25 276 -15 q 100 135 138 65 q 63 293 63 204 q 106 467 63 390 q 222 587 149 543 q 389 631 296 631 q 481 617 433 631 q 560 575 528 603 q 593 507 593 547 q 574 456 593 476 q 526 436 554 436 q 472 457 490 436 q 454 499 454 478 q 456 518 454 510 q 460 533 458 526 q 464 548 463 540 q 465 564 465 556 q 437 590 465 583 q 388 596 408 596 q 232 515 290 596 q 174 300 174 433 q 199 164 174 226 q 272 64 224 101 q 390 26 319 26 q 501 59 449 26 q 578 171 554 92 l 611 160 q 517 24 585 64 q 369 -15 449 -15 m 219 983 l 253 983 l 361 847 l 369 847 l 478 983 l 511 983 l 381 719 l 350 719 l 219 983 z "},"ç":{"ha":653,"x_min":63,"x_max":611,"o":"m 369 -15 q 207 25 276 -15 q 100 135 138 65 q 63 293 63 204 q 106 467 63 390 q 222 587 149 543 q 389 631 296 631 q 481 617 433 631 q 560 575 528 603 q 593 507 593 547 q 574 456 593 476 q 526 436 554 436 q 472 457 490 436 q 454 499 454 478 q 456 518 454 510 q 460 533 458 526 q 464 548 463 540 q 465 564 465 556 q 437 590 465 583 q 388 596 408 596 q 232 515 290 596 q 174 300 174 433 q 199 164 174 226 q 272 64 224 101 q 390 26 319 26 q 501 59 449 26 q 578 171 554 92 l 611 160 q 517 24 585 64 q 369 -15 449 -15 m 311 -406 q 213 -369 249 -406 q 168 -292 178 -332 l 199 -282 q 233 -340 206 -314 q 303 -367 260 -367 q 376 -324 351 -367 q 401 -231 401 -281 q 377 -148 401 -182 q 307 -114 353 -114 q 260 -130 283 -114 q 221 -169 236 -146 l 193 -151 q 246 -97 213 -115 q 317 -79 279 -79 l 343 0 l 385 0 l 356 -83 q 440 -137 407 -96 q 472 -235 472 -178 q 424 -358 472 -311 q 311 -406 376 -406 z "},"ċ":{"ha":653,"x_min":63,"x_max":611,"o":"m 369 -15 q 207 25 276 -15 q 100 135 138 65 q 63 293 63 204 q 106 467 63 390 q 222 587 149 543 q 389 631 296 631 q 481 617 433 631 q 560 575 528 603 q 593 507 593 547 q 574 456 593 476 q 526 436 554 436 q 472 457 490 436 q 454 499 454 478 q 456 518 454 510 q 460 533 458 526 q 464 548 463 540 q 465 564 465 556 q 437 590 465 583 q 388 596 408 596 q 232 515 290 596 q 174 300 174 433 q 199 164 174 226 q 272 64 224 101 q 390 26 319 26 q 501 59 449 26 q 578 171 554 92 l 611 160 q 517 24 585 64 q 369 -15 449 -15 m 360 781 q 303 806 324 781 q 282 865 282 831 q 303 926 282 901 q 360 950 324 950 q 419 926 400 950 q 438 865 438 901 q 419 806 438 831 q 360 781 400 781 z "},"d":{"ha":757,"x_min":63,"x_max":750,"o":"m 344 -15 q 201 28 265 -15 q 100 145 138 71 q 63 310 63 219 q 100 472 63 400 q 203 588 138 544 q 350 631 268 631 q 457 606 408 631 q 538 551 506 582 l 538 846 q 508 938 538 918 q 425 958 478 958 l 415 958 l 415 990 q 525 994 472 990 q 635 1007 578 997 l 635 151 q 665 53 635 74 q 750 32 694 32 l 750 0 l 693 0 q 633 -2 663 0 q 568 -11 604 -4 l 550 86 q 460 13 513 42 q 344 -15 408 -15 m 174 310 q 194 165 174 229 q 255 64 214 101 q 358 26 296 26 q 462 53 418 26 q 538 119 506 81 l 538 494 q 467 560 514 531 q 363 589 419 589 q 257 552 299 589 q 194 452 215 515 q 174 310 174 389 z "},"ď":{"ha":757,"x_min":63,"x_max":833,"o":"m 344 -15 q 201 28 265 -15 q 100 145 138 71 q 63 310 63 219 q 100 472 63 400 q 203 588 138 544 q 350 631 268 631 q 457 606 408 631 q 538 551 506 582 l 538 846 q 508 938 538 918 q 425 958 478 958 l 415 958 l 415 990 q 525 994 472 990 q 635 1007 578 997 l 635 151 q 665 53 635 74 q 750 32 694 32 l 750 0 l 693 0 q 633 -2 663 0 q 568 -11 604 -4 l 550 86 q 460 13 513 42 q 344 -15 408 -15 m 174 310 q 194 165 174 229 q 255 64 214 101 q 358 26 296 26 q 462 53 418 26 q 538 119 506 81 l 538 494 q 467 560 514 531 q 363 589 419 589 q 257 552 299 589 q 194 452 215 515 q 174 310 174 389 m 700 740 l 728 986 l 833 986 l 747 740 l 700 740 z "},"đ":{"ha":757,"x_min":63,"x_max":750,"o":"m 344 -15 q 201 28 265 -15 q 100 145 138 71 q 63 310 63 219 q 100 472 63 400 q 203 588 138 544 q 350 631 268 631 q 457 606 408 631 q 538 551 506 582 l 538 846 q 508 938 538 918 q 425 958 478 958 l 415 958 l 415 990 q 525 994 472 990 q 635 1007 578 997 l 635 151 q 665 53 635 74 q 750 32 694 32 l 750 0 l 693 0 q 633 -2 663 0 q 568 -11 604 -4 l 550 86 q 460 13 513 42 q 344 -15 408 -15 m 174 310 q 194 165 174 229 q 255 64 214 101 q 358 26 296 26 q 462 53 418 26 q 538 119 506 81 l 538 494 q 467 560 514 531 q 363 589 419 589 q 257 552 299 589 q 194 452 215 515 q 174 310 174 389 m 357 769 l 357 804 l 711 804 l 711 769 l 357 769 z "},"ð":{"ha":764,"x_min":63,"x_max":701,"o":"m 382 -15 q 220 28 293 -15 q 105 144 147 71 q 63 306 63 217 q 105 471 63 397 q 220 588 147 544 q 382 631 293 631 q 547 585 471 631 q 474 720 518 656 q 372 839 429 785 l 192 771 l 181 803 l 343 864 q 168 975 264 932 l 182 1006 q 298 953 243 983 q 401 886 353 924 l 569 950 l 582 918 l 432 861 q 578 699 518 789 q 670 515 639 610 q 701 329 701 419 q 659 151 701 229 q 544 29 617 74 q 382 -15 472 -15 m 382 19 q 503 58 457 19 q 569 160 549 96 q 590 306 590 225 q 569 454 590 389 q 503 558 549 519 q 382 596 457 596 q 261 558 307 596 q 194 454 215 519 q 174 306 174 389 q 194 160 174 225 q 261 58 215 96 q 382 19 307 19 z "},"e":{"ha":663,"x_min":63,"x_max":614,"o":"m 367 -15 q 207 24 275 -15 q 101 134 139 64 q 63 294 63 204 q 104 467 63 392 q 216 587 146 543 q 371 631 286 631 q 538 563 478 631 q 599 383 599 494 q 597 356 599 367 q 594 340 596 344 l 175 340 q 174 301 174 321 q 197 165 174 228 q 269 64 221 101 q 386 26 317 26 q 502 63 451 26 q 581 172 553 100 l 614 160 q 367 -15 556 -15 m 371 596 q 237 535 285 596 q 178 372 189 474 l 354 372 q 449 387 417 372 q 494 423 482 401 q 506 465 506 444 q 464 561 506 526 q 371 596 422 596 z "},"é":{"ha":663,"x_min":63,"x_max":614,"o":"m 367 -15 q 207 24 275 -15 q 101 134 139 64 q 63 294 63 204 q 104 467 63 392 q 216 587 146 543 q 371 631 286 631 q 538 563 478 631 q 599 383 599 494 q 597 356 599 367 q 594 340 596 344 l 175 340 q 174 301 174 321 q 197 165 174 228 q 269 64 221 101 q 386 26 317 26 q 502 63 451 26 q 581 172 553 100 l 614 160 q 367 -15 556 -15 m 371 596 q 237 535 285 596 q 178 372 189 474 l 354 372 q 449 387 417 372 q 494 423 482 401 q 506 465 506 444 q 464 561 506 526 q 371 596 422 596 m 321 722 l 375 928 q 402 989 386 972 q 435 1006 418 1006 q 465 993 451 1006 q 478 956 478 981 q 472 922 478 939 q 454 888 465 904 l 351 722 l 321 722 z "},"ě":{"ha":663,"x_min":63,"x_max":614,"o":"m 367 -15 q 207 24 275 -15 q 101 134 139 64 q 63 294 63 204 q 104 467 63 392 q 216 587 146 543 q 371 631 286 631 q 538 563 478 631 q 599 383 599 494 q 597 356 599 367 q 594 340 596 344 l 175 340 q 174 301 174 321 q 197 165 174 228 q 269 64 221 101 q 386 26 317 26 q 502 63 451 26 q 581 172 553 100 l 614 160 q 367 -15 556 -15 m 371 596 q 237 535 285 596 q 178 372 189 474 l 354 372 q 449 387 417 372 q 494 423 482 401 q 506 465 506 444 q 464 561 506 526 q 371 596 422 596 m 225 988 l 258 988 l 367 851 l 375 851 l 483 988 l 517 988 l 386 724 l 356 724 l 225 988 z "},"ê":{"ha":663,"x_min":63,"x_max":614,"o":"m 367 -15 q 207 24 275 -15 q 101 134 139 64 q 63 294 63 204 q 104 467 63 392 q 216 587 146 543 q 371 631 286 631 q 538 563 478 631 q 599 383 599 494 q 597 356 599 367 q 594 340 596 344 l 175 340 q 174 301 174 321 q 197 165 174 228 q 269 64 221 101 q 386 26 317 26 q 502 63 451 26 q 581 172 553 100 l 614 160 q 367 -15 556 -15 m 371 596 q 237 535 285 596 q 178 372 189 474 l 354 372 q 449 387 417 372 q 494 423 482 401 q 506 465 506 444 q 464 561 506 526 q 371 596 422 596 m 224 722 l 354 986 l 385 986 l 515 722 l 482 722 l 374 858 l 365 858 l 257 722 l 224 722 z "},"ë":{"ha":663,"x_min":63,"x_max":614,"o":"m 367 -15 q 207 24 275 -15 q 101 134 139 64 q 63 294 63 204 q 104 467 63 392 q 216 587 146 543 q 371 631 286 631 q 538 563 478 631 q 599 383 599 494 q 597 356 599 367 q 594 340 596 344 l 175 340 q 174 301 174 321 q 197 165 174 228 q 269 64 221 101 q 386 26 317 26 q 502 63 451 26 q 581 172 553 100 l 614 160 q 367 -15 556 -15 m 371 596 q 237 535 285 596 q 178 372 189 474 l 354 372 q 449 387 417 372 q 494 423 482 401 q 506 465 506 444 q 464 561 506 526 q 371 596 422 596 m 235 788 q 183 810 201 788 q 164 867 164 833 q 183 922 164 899 q 235 944 201 944 q 288 922 271 944 q 304 867 304 899 q 288 810 304 833 q 235 788 271 788 m 499 788 q 447 810 465 788 q 428 867 428 833 q 447 922 428 899 q 499 944 465 944 q 551 922 535 944 q 568 867 568 899 q 551 810 568 833 q 499 788 535 788 z "},"ė":{"ha":663,"x_min":63,"x_max":614,"o":"m 367 -15 q 207 24 275 -15 q 101 134 139 64 q 63 294 63 204 q 104 467 63 392 q 216 587 146 543 q 371 631 286 631 q 538 563 478 631 q 599 383 599 494 q 597 356 599 367 q 594 340 596 344 l 175 340 q 174 301 174 321 q 197 165 174 228 q 269 64 221 101 q 386 26 317 26 q 502 63 451 26 q 581 172 553 100 l 614 160 q 367 -15 556 -15 m 371 596 q 237 535 285 596 q 178 372 189 474 l 354 372 q 449 387 417 372 q 494 423 482 401 q 506 465 506 444 q 464 561 506 526 q 371 596 422 596 m 365 785 q 308 810 329 785 q 288 869 288 835 q 308 930 288 906 q 365 954 329 954 q 424 930 406 954 q 443 869 443 906 q 424 810 443 835 q 365 785 406 785 z "},"è":{"ha":663,"x_min":63,"x_max":614,"o":"m 367 -15 q 207 24 275 -15 q 101 134 139 64 q 63 294 63 204 q 104 467 63 392 q 216 587 146 543 q 371 631 286 631 q 538 563 478 631 q 599 383 599 494 q 597 356 599 367 q 594 340 596 344 l 175 340 q 174 301 174 321 q 197 165 174 228 q 269 64 221 101 q 386 26 317 26 q 502 63 451 26 q 581 172 553 100 l 614 160 q 367 -15 556 -15 m 371 596 q 237 535 285 596 q 178 372 189 474 l 354 372 q 449 387 417 372 q 494 423 482 401 q 506 465 506 444 q 464 561 506 526 q 371 596 422 596 m 415 722 l 385 722 l 282 888 q 265 922 272 904 q 258 956 258 939 q 272 993 258 981 q 301 1006 285 1006 q 334 989 318 1006 q 361 928 350 972 l 415 722 z "},"ē":{"ha":663,"x_min":63,"x_max":614,"o":"m 367 -15 q 207 24 275 -15 q 101 134 139 64 q 63 294 63 204 q 104 467 63 392 q 216 587 146 543 q 371 631 286 631 q 538 563 478 631 q 599 383 599 494 q 597 356 599 367 q 594 340 596 344 l 175 340 q 174 301 174 321 q 197 165 174 228 q 269 64 221 101 q 386 26 317 26 q 502 63 451 26 q 581 172 553 100 l 614 160 q 367 -15 556 -15 m 371 596 q 237 535 285 596 q 178 372 189 474 l 354 372 q 449 387 417 372 q 494 423 482 401 q 506 465 506 444 q 464 561 506 526 q 371 596 422 596 m 211 835 l 211 890 l 526 890 l 526 835 l 211 835 z "},"ę":{"ha":663,"x_min":63,"x_max":658,"o":"m 367 -15 q 207 24 275 -15 q 101 134 139 64 q 63 294 63 204 q 104 467 63 392 q 216 587 146 543 q 371 631 286 631 q 538 563 478 631 q 599 383 599 494 q 597 356 599 367 q 594 340 596 344 l 175 340 q 174 301 174 321 q 197 165 174 228 q 269 64 221 101 q 386 26 317 26 q 502 63 451 26 q 581 172 553 100 l 614 160 q 367 -15 556 -15 m 371 596 q 237 535 285 596 q 178 372 189 474 l 354 372 q 449 387 417 372 q 494 423 482 401 q 506 465 506 444 q 464 561 506 526 q 371 596 422 596 m 453 -408 q 351 -367 393 -408 q 310 -260 310 -326 q 372 -107 310 -186 q 532 56 435 -28 l 554 56 q 471 -48 507 -3 q 414 -133 435 -93 q 393 -218 393 -174 q 425 -294 393 -269 q 503 -318 457 -318 q 579 -296 547 -318 q 631 -236 611 -274 l 658 -247 q 628 -319 654 -282 q 559 -383 603 -357 q 453 -408 515 -408 z "},"f":{"ha":471,"x_min":35,"x_max":544,"o":"m 35 -4 l 35 28 l 57 31 q 119 44 97 36 q 149 78 140 51 q 157 168 157 106 l 157 571 l 38 571 l 38 606 l 157 606 l 157 764 q 213 949 157 892 q 379 1006 269 1006 q 497 977 450 1006 q 544 893 544 949 q 524 838 544 857 q 476 819 504 819 q 433 838 450 819 q 415 878 415 856 q 418 901 415 892 q 424 919 421 911 q 428 938 428 931 q 413 963 428 956 q 379 971 397 971 q 299 943 326 971 q 263 868 272 915 q 254 764 254 821 l 254 606 l 397 606 l 397 571 l 254 571 l 254 168 q 263 78 254 106 q 292 44 271 51 q 354 31 314 36 l 376 28 l 376 -4 l 206 0 l 35 -4 z "},"g":{"ha":769,"x_min":14,"x_max":758,"o":"m 350 183 q 258 197 303 183 q 188 169 221 189 q 156 115 156 149 q 176 72 156 86 q 231 52 197 57 q 303 44 264 47 l 364 42 q 522 23 451 38 q 635 -33 593 8 q 678 -161 678 -75 q 631 -295 678 -240 q 510 -379 585 -350 q 350 -408 436 -408 q 187 -385 264 -408 q 62 -312 110 -361 q 14 -187 14 -264 q 35 -114 14 -143 q 92 -85 57 -85 q 132 -98 115 -85 q 149 -137 149 -111 q 140 -176 149 -161 q 123 -206 132 -190 q 114 -244 114 -221 q 147 -320 114 -292 q 233 -361 179 -349 q 350 -374 286 -374 q 481 -353 421 -374 q 577 -291 540 -332 q 614 -190 614 -250 q 565 -99 614 -128 q 413 -65 515 -71 l 271 -58 q 183 -47 229 -56 q 104 -13 136 -39 q 72 64 72 13 q 117 158 72 118 q 218 214 163 199 q 128 293 163 243 q 93 407 93 343 q 127 521 93 471 q 219 601 161 571 q 350 631 278 631 q 499 590 433 631 q 569 648 528 631 q 653 665 611 665 q 727 644 696 665 q 758 586 758 622 q 740 541 758 557 q 699 525 721 525 q 636 583 647 525 q 624 611 633 600 q 597 622 615 622 q 556 606 575 622 q 525 572 538 590 q 585 499 563 542 q 607 407 607 456 q 573 294 607 344 q 481 213 539 243 q 350 183 422 183 m 350 218 q 466 272 432 218 q 500 407 500 326 q 466 542 500 488 q 350 596 432 596 q 235 542 269 596 q 200 407 200 488 q 235 272 200 326 q 350 218 269 218 z "},"ğ":{"ha":769,"x_min":14,"x_max":758,"o":"m 350 183 q 258 197 303 183 q 188 169 221 189 q 156 115 156 149 q 176 72 156 86 q 231 52 197 57 q 303 44 264 47 l 364 42 q 522 23 451 38 q 635 -33 593 8 q 678 -161 678 -75 q 631 -295 678 -240 q 510 -379 585 -350 q 350 -408 436 -408 q 187 -385 264 -408 q 62 -312 110 -361 q 14 -187 14 -264 q 35 -114 14 -143 q 92 -85 57 -85 q 132 -98 115 -85 q 149 -137 149 -111 q 140 -176 149 -161 q 123 -206 132 -190 q 114 -244 114 -221 q 147 -320 114 -292 q 233 -361 179 -349 q 350 -374 286 -374 q 481 -353 421 -374 q 577 -291 540 -332 q 614 -190 614 -250 q 565 -99 614 -128 q 413 -65 515 -71 l 271 -58 q 183 -47 229 -56 q 104 -13 136 -39 q 72 64 72 13 q 117 158 72 118 q 218 214 163 199 q 128 293 163 243 q 93 407 93 343 q 127 521 93 471 q 219 601 161 571 q 350 631 278 631 q 499 590 433 631 q 569 648 528 631 q 653 665 611 665 q 727 644 696 665 q 758 586 758 622 q 740 541 758 557 q 699 525 721 525 q 636 583 647 525 q 624 611 633 600 q 597 622 615 622 q 556 606 575 622 q 525 572 538 590 q 585 499 563 542 q 607 407 607 456 q 573 294 607 344 q 481 213 539 243 q 350 183 422 183 m 350 218 q 466 272 432 218 q 500 407 500 326 q 466 542 500 488 q 350 596 432 596 q 235 542 269 596 q 200 407 200 488 q 235 272 200 326 q 350 218 269 218 m 350 760 q 245 806 281 760 q 210 921 210 853 l 210 967 l 244 967 l 244 960 q 272 867 244 892 q 350 843 300 843 q 428 867 400 843 q 456 960 456 892 l 456 967 l 490 967 l 490 921 q 455 806 490 853 q 350 760 419 760 z "},"ģ":{"ha":769,"x_min":14,"x_max":758,"o":"m 350 183 q 258 197 303 183 q 188 169 221 189 q 156 115 156 149 q 176 72 156 86 q 231 52 197 57 q 303 44 264 47 l 364 42 q 522 23 451 38 q 635 -33 593 8 q 678 -161 678 -75 q 631 -295 678 -240 q 510 -379 585 -350 q 350 -408 436 -408 q 187 -385 264 -408 q 62 -312 110 -361 q 14 -187 14 -264 q 35 -114 14 -143 q 92 -85 57 -85 q 132 -98 115 -85 q 149 -137 149 -111 q 140 -176 149 -161 q 123 -206 132 -190 q 114 -244 114 -221 q 147 -320 114 -292 q 233 -361 179 -349 q 350 -374 286 -374 q 481 -353 421 -374 q 577 -291 540 -332 q 614 -190 614 -250 q 565 -99 614 -128 q 413 -65 515 -71 l 271 -58 q 183 -47 229 -56 q 104 -13 136 -39 q 72 64 72 13 q 117 158 72 118 q 218 214 163 199 q 128 293 163 243 q 93 407 93 343 q 127 521 93 471 q 219 601 161 571 q 350 631 278 631 q 499 590 433 631 q 569 648 528 631 q 653 665 611 665 q 727 644 696 665 q 758 586 758 622 q 740 541 758 557 q 699 525 721 525 q 636 583 647 525 q 624 611 633 600 q 597 622 615 622 q 556 606 575 622 q 525 572 538 590 q 585 499 563 542 q 607 407 607 456 q 573 294 607 344 q 481 213 539 243 q 350 183 422 183 m 350 218 q 466 272 432 218 q 500 407 500 326 q 466 542 500 488 q 350 596 432 596 q 235 542 269 596 q 200 407 200 488 q 235 272 200 326 q 350 218 269 218 m 357 988 l 371 967 q 304 907 333 940 q 275 825 275 874 q 281 790 275 807 q 296 776 286 772 q 297 778 297 778 q 297 779 297 779 q 295 788 297 782 q 293 800 293 793 q 308 827 293 815 q 342 839 324 839 q 387 822 369 839 q 404 776 404 804 q 385 727 404 746 q 336 708 367 708 q 276 740 299 708 q 253 822 253 771 q 283 922 253 886 q 357 988 313 958 z "},"ġ":{"ha":769,"x_min":14,"x_max":758,"o":"m 350 183 q 258 197 303 183 q 188 169 221 189 q 156 115 156 149 q 176 72 156 86 q 231 52 197 57 q 303 44 264 47 l 364 42 q 522 23 451 38 q 635 -33 593 8 q 678 -161 678 -75 q 631 -295 678 -240 q 510 -379 585 -350 q 350 -408 436 -408 q 187 -385 264 -408 q 62 -312 110 -361 q 14 -187 14 -264 q 35 -114 14 -143 q 92 -85 57 -85 q 132 -98 115 -85 q 149 -137 149 -111 q 140 -176 149 -161 q 123 -206 132 -190 q 114 -244 114 -221 q 147 -320 114 -292 q 233 -361 179 -349 q 350 -374 286 -374 q 481 -353 421 -374 q 577 -291 540 -332 q 614 -190 614 -250 q 565 -99 614 -128 q 413 -65 515 -71 l 271 -58 q 183 -47 229 -56 q 104 -13 136 -39 q 72 64 72 13 q 117 158 72 118 q 218 214 163 199 q 128 293 163 243 q 93 407 93 343 q 127 521 93 471 q 219 601 161 571 q 350 631 278 631 q 499 590 433 631 q 569 648 528 631 q 653 665 611 665 q 727 644 696 665 q 758 586 758 622 q 740 541 758 557 q 699 525 721 525 q 636 583 647 525 q 624 611 633 600 q 597 622 615 622 q 556 606 575 622 q 525 572 538 590 q 585 499 563 542 q 607 407 607 456 q 573 294 607 344 q 481 213 539 243 q 350 183 422 183 m 350 218 q 466 272 432 218 q 500 407 500 326 q 466 542 500 488 q 350 596 432 596 q 235 542 269 596 q 200 407 200 488 q 235 272 200 326 q 350 218 269 218 m 344 785 q 288 810 308 785 q 267 869 267 835 q 288 930 267 906 q 344 954 308 954 q 403 930 385 954 q 422 869 422 906 q 403 810 422 835 q 344 785 385 785 z "},"h":{"ha":808,"x_min":21,"x_max":793,"o":"m 21 -4 l 21 28 l 43 31 q 105 44 83 36 q 135 78 126 51 q 143 168 143 106 l 143 846 q 113 938 143 918 q 31 958 83 958 l 21 958 l 21 990 q 131 994 78 990 q 240 1007 183 997 l 240 510 q 331 594 272 557 q 467 631 389 631 q 616 583 561 631 q 671 446 671 535 l 671 168 q 679 78 671 106 q 709 44 688 51 q 771 31 731 36 l 793 28 l 793 -4 l 622 0 l 451 -4 l 451 28 l 474 31 q 535 44 514 36 q 565 78 557 51 q 574 168 574 106 l 574 446 q 538 552 574 515 q 436 589 501 589 q 346 566 386 589 q 279 510 306 543 q 240 446 253 476 l 240 168 q 249 78 240 106 q 278 44 257 51 q 340 31 300 36 l 363 28 l 363 -4 l 192 0 l 21 -4 z "},"ħ":{"ha":808,"x_min":19,"x_max":793,"o":"m 21 -4 l 21 28 l 43 31 q 105 44 83 36 q 135 78 126 51 q 143 168 143 106 l 143 846 q 113 938 143 918 q 31 958 83 958 l 21 958 l 21 990 q 131 994 78 990 q 240 1007 183 997 l 240 510 q 331 594 272 557 q 467 631 389 631 q 616 583 561 631 q 671 446 671 535 l 671 168 q 679 78 671 106 q 709 44 688 51 q 771 31 731 36 l 793 28 l 793 -4 l 622 0 l 451 -4 l 451 28 l 474 31 q 535 44 514 36 q 565 78 557 51 q 574 168 574 106 l 574 446 q 538 552 574 515 q 436 589 501 589 q 346 566 386 589 q 279 510 306 543 q 240 446 253 476 l 240 168 q 249 78 240 106 q 278 44 257 51 q 340 31 300 36 l 363 28 l 363 -4 l 192 0 l 21 -4 m 19 769 l 19 804 l 374 804 l 374 769 l 19 769 z "},"ĥ":{"ha":808,"x_min":21,"x_max":793,"o":"m 21 -4 l 21 28 l 43 31 q 105 44 83 36 q 135 78 126 51 q 143 168 143 106 l 143 846 q 113 938 143 918 q 31 958 83 958 l 21 958 l 21 990 q 131 994 78 990 q 240 1007 183 997 l 240 510 q 331 594 272 557 q 467 631 389 631 q 616 583 561 631 q 671 446 671 535 l 671 168 q 679 78 671 106 q 709 44 688 51 q 771 31 731 36 l 793 28 l 793 -4 l 622 0 l 451 -4 l 451 28 l 474 31 q 535 44 514 36 q 565 78 557 51 q 574 168 574 106 l 574 446 q 538 552 574 515 q 436 589 501 589 q 346 566 386 589 q 279 510 306 543 q 240 446 253 476 l 240 168 q 249 78 240 106 q 278 44 257 51 q 340 31 300 36 l 363 28 l 363 -4 l 192 0 l 21 -4 m 326 1057 l 457 1306 l 488 1306 l 618 1057 l 585 1057 l 476 1185 l 468 1185 l 360 1057 l 326 1057 z "},"i":{"ha":394,"x_min":39,"x_max":381,"o":"m 39 -4 l 39 28 l 61 31 q 123 44 101 36 q 153 78 144 51 q 161 168 161 106 l 161 461 q 131 553 161 533 q 49 574 101 574 l 39 574 l 39 606 q 149 609 96 606 q 258 622 201 613 l 258 168 q 267 78 258 106 q 297 44 275 51 q 358 31 318 36 l 381 28 l 381 -4 l 210 0 l 39 -4 m 193 785 q 136 810 157 785 q 115 869 115 835 q 136 930 115 906 q 193 954 157 954 q 252 930 233 954 q 271 869 271 906 q 252 810 271 835 q 193 785 233 785 z "},"ı":{"ha":415,"x_min":39,"x_max":381,"o":"m 39 -4 l 39 28 l 61 31 q 123 44 101 36 q 153 78 144 51 q 161 168 161 106 l 161 461 q 131 553 161 533 q 49 574 101 574 l 39 574 l 39 606 q 149 609 96 606 q 258 622 201 613 l 258 168 q 267 78 258 106 q 297 44 275 51 q 358 31 318 36 l 381 28 l 381 -4 l 210 0 l 39 -4 z "},"í":{"ha":415,"x_min":39,"x_max":381,"o":"m 39 -4 l 39 28 l 61 31 q 123 44 101 36 q 153 78 144 51 q 161 168 161 106 l 161 461 q 131 553 161 533 q 49 574 101 574 l 39 574 l 39 606 q 149 609 96 606 q 258 622 201 613 l 258 168 q 267 78 258 106 q 297 44 275 51 q 358 31 318 36 l 381 28 l 381 -4 l 210 0 l 39 -4 m 149 722 l 203 928 q 230 989 214 972 q 263 1006 246 1006 q 292 993 279 1006 q 306 956 306 981 q 299 922 306 939 q 282 888 293 904 l 179 722 l 149 722 z "},"ǐ":{"ha":415,"x_min":39,"x_max":381,"o":"m 39 -4 l 39 28 l 61 31 q 123 44 101 36 q 153 78 144 51 q 161 168 161 106 l 161 461 q 131 553 161 533 q 49 574 101 574 l 39 574 l 39 606 q 149 609 96 606 q 258 622 201 613 l 258 168 q 267 78 258 106 q 297 44 275 51 q 358 31 318 36 l 381 28 l 381 -4 l 210 0 l 39 -4 m 53 988 l 86 988 l 194 851 l 203 851 l 311 988 l 344 988 l 214 724 l 183 724 l 53 988 z "},"î":{"ha":415,"x_min":39,"x_max":381,"o":"m 39 -4 l 39 28 l 61 31 q 123 44 101 36 q 153 78 144 51 q 161 168 161 106 l 161 461 q 131 553 161 533 q 49 574 101 574 l 39 574 l 39 606 q 149 609 96 606 q 258 622 201 613 l 258 168 q 267 78 258 106 q 297 44 275 51 q 358 31 318 36 l 381 28 l 381 -4 l 210 0 l 39 -4 m 51 722 l 182 986 l 213 986 l 343 722 l 310 722 l 201 858 l 193 858 l 85 722 l 51 722 z "},"ï":{"ha":415,"x_min":19,"x_max":381,"o":"m 39 -4 l 39 28 l 61 31 q 123 44 101 36 q 153 78 144 51 q 161 168 161 106 l 161 461 q 131 553 161 533 q 49 574 101 574 l 39 574 l 39 606 q 149 609 96 606 q 258 622 201 613 l 258 168 q 267 78 258 106 q 297 44 275 51 q 358 31 318 36 l 381 28 l 381 -4 l 210 0 l 39 -4 m 90 785 q 38 808 57 785 q 19 864 19 831 q 38 919 19 896 q 90 942 57 942 q 143 919 126 942 q 160 864 160 896 q 143 808 160 831 q 90 785 126 785 m 299 785 q 247 808 265 785 q 228 864 228 831 q 247 919 228 896 q 299 942 265 942 q 351 919 335 942 q 368 864 368 896 q 351 808 368 831 q 299 785 335 785 z "},"ì":{"ha":415,"x_min":39,"x_max":381,"o":"m 39 -4 l 39 28 l 61 31 q 123 44 101 36 q 153 78 144 51 q 161 168 161 106 l 161 461 q 131 553 161 533 q 49 574 101 574 l 39 574 l 39 606 q 149 609 96 606 q 258 622 201 613 l 258 168 q 267 78 258 106 q 297 44 275 51 q 358 31 318 36 l 381 28 l 381 -4 l 210 0 l 39 -4 m 243 722 l 213 722 l 110 888 q 93 922 100 904 q 86 956 86 939 q 99 993 86 981 q 129 1006 113 1006 q 162 989 146 1006 q 189 928 178 972 l 243 722 z "},"ī":{"ha":415,"x_min":39,"x_max":381,"o":"m 39 -4 l 39 28 l 61 31 q 123 44 101 36 q 153 78 144 51 q 161 168 161 106 l 161 461 q 131 553 161 533 q 49 574 101 574 l 39 574 l 39 606 q 149 609 96 606 q 258 622 201 613 l 258 168 q 267 78 258 106 q 297 44 275 51 q 358 31 318 36 l 381 28 l 381 -4 l 210 0 l 39 -4 m 39 835 l 39 890 l 354 890 l 354 835 l 39 835 z "},"į":{"ha":415,"x_min":32,"x_max":381,"o":"m 39 -4 l 39 28 l 61 31 q 123 44 101 36 q 153 78 144 51 q 161 168 161 106 l 161 461 q 131 553 161 533 q 49 574 101 574 l 39 574 l 39 606 q 149 609 96 606 q 258 622 201 613 l 258 168 q 267 78 258 106 q 297 44 275 51 q 358 31 318 36 l 381 28 l 381 -4 l 210 0 l 39 -4 m 193 785 q 136 810 157 785 q 115 869 115 835 q 136 930 115 906 q 193 954 157 954 q 252 930 233 954 q 271 869 271 906 q 252 810 271 835 q 193 785 233 785 m 175 -408 q 74 -367 115 -408 q 32 -260 32 -326 q 94 -107 32 -186 q 254 56 157 -28 l 276 56 q 193 -48 229 -3 q 136 -133 157 -93 q 115 -218 115 -174 q 147 -294 115 -269 q 225 -318 179 -318 q 301 -296 269 -318 q 353 -236 333 -274 l 381 -247 q 351 -319 376 -282 q 281 -383 325 -357 q 175 -408 238 -408 z "},"j":{"ha":383,"x_min":-65,"x_max":281,"o":"m 72 -408 q -29 -381 7 -408 q -65 -310 -65 -354 q -47 -255 -65 -278 q 8 -232 -28 -232 q 54 -250 40 -232 q 68 -287 68 -268 q 67 -300 68 -293 q 63 -314 65 -307 q 57 -342 57 -331 q 69 -369 57 -360 q 96 -379 81 -379 q 142 -353 128 -379 q 161 -287 157 -326 q 165 -211 165 -247 l 165 465 q 151 538 165 515 q 108 567 136 561 q 43 574 81 574 l 43 606 q 153 611 100 606 q 263 626 206 617 l 263 -211 q 208 -354 263 -300 q 72 -408 154 -408 m 203 776 q 146 801 167 776 q 125 861 125 826 q 146 922 125 897 q 203 946 167 946 q 262 922 243 946 q 281 861 281 897 q 262 801 281 826 q 203 776 243 776 z "},"ȷ":{"ha":383,"x_min":-65,"x_max":263,"o":"m 72 -408 q -29 -381 7 -408 q -65 -310 -65 -354 q -47 -255 -65 -278 q 8 -232 -28 -232 q 54 -250 40 -232 q 68 -287 68 -268 q 67 -300 68 -293 q 63 -314 65 -307 q 57 -342 57 -331 q 69 -369 57 -360 q 96 -379 81 -379 q 142 -353 128 -379 q 161 -287 157 -326 q 165 -211 165 -247 l 165 465 q 151 538 165 515 q 108 567 136 561 q 43 574 81 574 l 43 606 q 153 611 100 606 q 263 626 206 617 l 263 -211 q 208 -354 263 -300 q 72 -408 154 -408 z "},"k":{"ha":728,"x_min":21,"x_max":728,"o":"m 21 -4 l 21 28 l 43 31 q 105 44 83 36 q 135 78 126 51 q 143 168 143 106 l 143 846 q 113 938 143 918 q 31 958 83 958 l 21 958 l 21 990 q 131 994 78 990 q 240 1007 183 997 l 240 264 l 446 510 q 464 549 464 532 q 431 574 464 569 l 408 576 l 408 608 l 542 606 l 658 608 l 658 576 l 636 574 q 531 536 574 565 q 454 465 489 507 l 374 369 l 610 106 q 656 58 631 82 q 706 31 681 33 l 728 28 l 728 -4 l 574 0 l 311 296 l 240 211 l 240 168 q 249 78 240 106 q 278 44 257 51 q 340 31 300 36 l 363 28 l 363 -4 l 192 0 l 21 -4 z "},"ķ":{"ha":728,"x_min":21,"x_max":728,"o":"m 21 -4 l 21 28 l 43 31 q 105 44 83 36 q 135 78 126 51 q 143 168 143 106 l 143 846 q 113 938 143 918 q 31 958 83 958 l 21 958 l 21 990 q 131 994 78 990 q 240 1007 183 997 l 240 264 l 446 510 q 464 549 464 532 q 431 574 464 569 l 408 576 l 408 608 l 542 606 l 658 608 l 658 576 l 636 574 q 531 536 574 565 q 454 465 489 507 l 374 369 l 610 106 q 656 58 631 82 q 706 31 681 33 l 728 28 l 728 -4 l 574 0 l 311 296 l 240 211 l 240 168 q 249 78 240 106 q 278 44 257 51 q 340 31 300 36 l 363 28 l 363 -4 l 192 0 l 21 -4 m 439 -400 l 425 -379 q 492 -319 463 -353 q 521 -237 521 -286 q 516 -201 521 -218 q 500 -189 511 -185 q 499 -191 499 -190 q 499 -192 499 -192 q 501 -200 499 -194 q 503 -212 503 -206 q 488 -239 503 -226 q 454 -251 474 -251 q 409 -234 426 -251 q 392 -189 392 -217 q 410 -140 392 -158 q 460 -121 429 -121 q 520 -151 497 -121 q 543 -235 543 -182 q 513 -335 543 -299 q 439 -400 483 -371 z "},"l":{"ha":383,"x_min":21,"x_max":363,"o":"m 21 -4 l 21 28 l 43 31 q 105 44 83 36 q 135 78 126 51 q 143 168 143 106 l 143 846 q 113 938 143 918 q 31 958 83 958 l 21 958 l 21 990 q 131 994 78 990 q 240 1007 183 997 l 240 168 q 249 78 240 106 q 278 44 257 51 q 340 31 300 36 l 363 28 l 363 -4 l 192 0 l 21 -4 z "},"ĺ":{"ha":383,"x_min":21,"x_max":363,"o":"m 21 -4 l 21 28 l 43 31 q 105 44 83 36 q 135 78 126 51 q 143 168 143 106 l 143 846 q 113 938 143 918 q 31 958 83 958 l 21 958 l 21 990 q 131 994 78 990 q 240 1007 183 997 l 240 168 q 249 78 240 106 q 278 44 257 51 q 340 31 300 36 l 363 28 l 363 -4 l 192 0 l 21 -4 m 142 1103 l 196 1308 q 223 1369 207 1353 q 256 1386 239 1386 q 285 1374 272 1386 q 299 1336 299 1361 q 292 1302 299 1319 q 275 1268 286 1285 l 172 1103 l 142 1103 z "},"ľ":{"ha":383,"x_min":21,"x_max":454,"o":"m 21 -4 l 21 28 l 43 31 q 105 44 83 36 q 135 78 126 51 q 143 168 143 106 l 143 846 q 113 938 143 918 q 31 958 83 958 l 21 958 l 21 990 q 131 994 78 990 q 240 1007 183 997 l 240 168 q 249 78 240 106 q 278 44 257 51 q 340 31 300 36 l 363 28 l 363 -4 l 192 0 l 21 -4 m 321 740 l 349 986 l 454 986 l 368 740 l 321 740 z "},"ļ":{"ha":383,"x_min":21,"x_max":363,"o":"m 21 -4 l 21 28 l 43 31 q 105 44 83 36 q 135 78 126 51 q 143 168 143 106 l 143 846 q 113 938 143 918 q 31 958 83 958 l 21 958 l 21 990 q 131 994 78 990 q 240 1007 183 997 l 240 168 q 249 78 240 106 q 278 44 257 51 q 340 31 300 36 l 363 28 l 363 -4 l 192 0 l 21 -4 m 179 -400 l 165 -379 q 232 -319 203 -353 q 261 -237 261 -286 q 256 -201 261 -218 q 240 -189 251 -185 q 239 -191 239 -190 q 239 -192 239 -192 q 241 -200 239 -194 q 243 -212 243 -206 q 228 -239 243 -226 q 194 -251 214 -251 q 149 -234 167 -251 q 132 -189 132 -217 q 151 -140 132 -158 q 200 -121 169 -121 q 260 -151 238 -121 q 283 -235 283 -182 q 253 -335 283 -299 q 179 -400 224 -371 z "},"ŀ":{"ha":442,"x_min":21,"x_max":500,"o":"m 21 -4 l 21 28 l 43 31 q 105 44 83 36 q 135 78 126 51 q 143 168 143 106 l 143 846 q 113 938 143 918 q 31 958 83 958 l 21 958 l 21 990 q 131 994 78 990 q 240 1007 183 997 l 240 168 q 249 78 240 106 q 278 44 257 51 q 340 31 300 36 l 363 28 l 363 -4 l 192 0 l 21 -4 m 414 438 q 350 463 375 438 q 325 522 325 488 q 350 580 325 556 q 414 604 375 604 q 475 580 450 604 q 500 522 500 556 q 475 463 500 488 q 414 438 450 438 z "},"ł":{"ha":383,"x_min":3,"x_max":371,"o":"m 21 -4 l 21 28 l 43 31 q 105 44 83 36 q 135 78 126 51 q 143 168 143 106 l 143 846 q 113 938 143 918 q 31 958 83 958 l 21 958 l 21 990 q 131 994 78 990 q 240 1007 183 997 l 240 168 q 249 78 240 106 q 278 44 257 51 q 340 31 300 36 l 363 28 l 363 -4 l 192 0 l 21 -4 m 3 418 l 3 458 l 371 675 l 371 607 l 3 418 z "},"m":{"ha":1214,"x_min":39,"x_max":1199,"o":"m 39 -4 l 39 28 l 61 31 q 123 44 101 36 q 153 78 144 51 q 161 168 161 106 l 161 461 q 147 535 161 511 q 104 567 132 560 q 39 574 76 574 l 39 606 q 149 609 96 606 q 258 622 201 613 l 258 514 q 344 596 289 561 q 471 631 399 631 q 594 599 544 631 q 660 501 643 568 q 746 591 689 551 q 881 631 803 631 q 1024 583 971 631 q 1078 433 1078 536 l 1078 168 q 1085 80 1078 107 q 1115 44 1093 53 q 1176 31 1136 36 l 1199 28 l 1199 -4 l 1029 0 l 872 -4 l 872 28 l 894 31 q 948 43 929 35 q 974 78 967 51 q 981 168 981 106 l 981 457 q 947 553 981 518 q 853 589 914 589 q 765 567 803 589 q 703 511 728 544 q 668 446 679 478 q 668 433 668 440 l 668 168 q 675 78 668 106 q 701 44 682 51 q 754 31 719 36 l 776 28 l 776 -4 l 619 0 l 463 -4 l 463 28 l 485 31 q 538 44 519 36 q 564 78 557 51 q 571 168 571 106 l 571 457 q 538 553 571 518 q 443 589 504 589 q 357 567 394 589 q 294 511 319 544 q 258 446 269 478 l 258 168 q 265 78 258 106 q 291 44 272 51 q 344 31 310 36 l 367 28 l 367 -4 l 210 0 l 39 -4 z "},"n":{"ha":826,"x_min":39,"x_max":811,"o":"m 39 -4 l 39 28 l 61 31 q 123 44 101 36 q 153 78 144 51 q 161 168 161 106 l 161 461 q 131 553 161 533 q 49 574 101 574 l 39 574 l 39 606 q 149 609 96 606 q 258 622 201 613 l 258 510 q 349 594 290 557 q 485 631 407 631 q 634 583 579 631 q 689 446 689 535 l 689 168 q 697 78 689 106 q 727 44 706 51 q 789 31 749 36 l 811 28 l 811 -4 l 640 0 l 469 -4 l 469 28 l 492 31 q 553 44 532 36 q 583 78 575 51 q 592 168 592 106 l 592 446 q 556 552 592 515 q 454 589 519 589 q 364 566 404 589 q 297 510 324 543 q 258 446 271 476 l 258 168 q 267 78 258 106 q 297 44 275 51 q 358 31 318 36 l 381 28 l 381 -4 l 210 0 l 39 -4 z "},"ń":{"ha":826,"x_min":39,"x_max":811,"o":"m 39 -4 l 39 28 l 61 31 q 123 44 101 36 q 153 78 144 51 q 161 168 161 106 l 161 461 q 131 553 161 533 q 49 574 101 574 l 39 574 l 39 606 q 149 609 96 606 q 258 622 201 613 l 258 510 q 349 594 290 557 q 485 631 407 631 q 634 583 579 631 q 689 446 689 535 l 689 168 q 697 78 689 106 q 727 44 706 51 q 789 31 749 36 l 811 28 l 811 -4 l 640 0 l 469 -4 l 469 28 l 492 31 q 553 44 532 36 q 583 78 575 51 q 592 168 592 106 l 592 446 q 556 552 592 515 q 454 589 519 589 q 364 566 404 589 q 297 510 324 543 q 258 446 271 476 l 258 168 q 267 78 258 106 q 297 44 275 51 q 358 31 318 36 l 381 28 l 381 -4 l 210 0 l 39 -4 m 369 722 l 424 928 q 451 989 435 972 q 483 1006 467 1006 q 513 993 500 1006 q 526 956 526 981 q 520 922 526 939 q 503 888 514 904 l 400 722 l 369 722 z "},"ň":{"ha":826,"x_min":39,"x_max":811,"o":"m 39 -4 l 39 28 l 61 31 q 123 44 101 36 q 153 78 144 51 q 161 168 161 106 l 161 461 q 131 553 161 533 q 49 574 101 574 l 39 574 l 39 606 q 149 609 96 606 q 258 622 201 613 l 258 510 q 349 594 290 557 q 485 631 407 631 q 634 583 579 631 q 689 446 689 535 l 689 168 q 697 78 689 106 q 727 44 706 51 q 789 31 749 36 l 811 28 l 811 -4 l 640 0 l 469 -4 l 469 28 l 492 31 q 553 44 532 36 q 583 78 575 51 q 592 168 592 106 l 592 446 q 556 552 592 515 q 454 589 519 589 q 364 566 404 589 q 297 510 324 543 q 258 446 271 476 l 258 168 q 267 78 258 106 q 297 44 275 51 q 358 31 318 36 l 381 28 l 381 -4 l 210 0 l 39 -4 m 274 988 l 307 988 l 415 851 l 424 851 l 532 988 l 565 988 l 435 724 l 404 724 l 274 988 z "},"ņ":{"ha":826,"x_min":39,"x_max":811,"o":"m 39 -4 l 39 28 l 61 31 q 123 44 101 36 q 153 78 144 51 q 161 168 161 106 l 161 461 q 131 553 161 533 q 49 574 101 574 l 39 574 l 39 606 q 149 609 96 606 q 258 622 201 613 l 258 510 q 349 594 290 557 q 485 631 407 631 q 634 583 579 631 q 689 446 689 535 l 689 168 q 697 78 689 106 q 727 44 706 51 q 789 31 749 36 l 811 28 l 811 -4 l 640 0 l 469 -4 l 469 28 l 492 31 q 553 44 532 36 q 583 78 575 51 q 592 168 592 106 l 592 446 q 556 552 592 515 q 454 589 519 589 q 364 566 404 589 q 297 510 324 543 q 258 446 271 476 l 258 168 q 267 78 258 106 q 297 44 275 51 q 358 31 318 36 l 381 28 l 381 -4 l 210 0 l 39 -4 m 410 -400 l 396 -379 q 463 -319 433 -353 q 492 -237 492 -286 q 487 -201 492 -218 q 471 -189 482 -185 q 469 -191 469 -190 q 469 -192 469 -192 q 472 -200 469 -194 q 474 -212 474 -206 q 459 -239 474 -226 q 425 -251 444 -251 q 380 -234 397 -251 q 363 -189 363 -217 q 381 -140 363 -158 q 431 -121 400 -121 q 491 -151 468 -121 q 514 -235 514 -182 q 484 -335 514 -299 q 410 -400 454 -371 z "},"ñ":{"ha":826,"x_min":39,"x_max":811,"o":"m 39 -4 l 39 28 l 61 31 q 123 44 101 36 q 153 78 144 51 q 161 168 161 106 l 161 461 q 131 553 161 533 q 49 574 101 574 l 39 574 l 39 606 q 149 609 96 606 q 258 622 201 613 l 258 510 q 349 594 290 557 q 485 631 407 631 q 634 583 579 631 q 689 446 689 535 l 689 168 q 697 78 689 106 q 727 44 706 51 q 789 31 749 36 l 811 28 l 811 -4 l 640 0 l 469 -4 l 469 28 l 492 31 q 553 44 532 36 q 583 78 575 51 q 592 168 592 106 l 592 446 q 556 552 592 515 q 454 589 519 589 q 364 566 404 589 q 297 510 324 543 q 258 446 271 476 l 258 168 q 267 78 258 106 q 297 44 275 51 q 358 31 318 36 l 381 28 l 381 -4 l 210 0 l 39 -4 m 524 768 q 472 781 497 768 q 429 803 447 793 l 393 825 q 348 851 368 840 q 308 861 328 861 q 256 835 278 861 q 226 783 233 808 l 200 783 q 213 838 200 804 q 251 900 225 872 q 319 928 278 928 q 372 914 346 928 q 413 892 399 900 l 464 861 q 496 845 475 856 q 535 835 517 835 q 581 856 563 835 q 610 906 600 876 l 636 906 q 597 806 629 843 q 524 768 565 768 z "},"ŋ":{"ha":826,"x_min":49,"x_max":694,"o":"m 49 -4 l 49 28 l 71 31 q 133 44 111 36 q 163 78 154 51 q 171 168 171 106 l 171 461 q 141 553 171 533 q 58 574 111 574 l 49 574 l 49 606 q 158 609 106 606 q 268 622 211 613 l 268 469 q 318 548 288 511 q 395 608 349 585 q 507 631 442 631 q 650 585 606 631 q 694 465 694 539 l 694 -211 q 640 -354 694 -300 q 504 -408 586 -408 q 403 -383 439 -408 q 367 -310 367 -357 q 385 -253 367 -275 q 433 -232 403 -232 q 483 -255 465 -232 q 500 -301 500 -278 q 497 -325 500 -317 q 494 -349 494 -333 q 528 -379 494 -379 q 574 -353 560 -379 q 593 -287 589 -326 q 597 -211 597 -247 l 597 458 q 569 554 597 519 q 476 589 542 589 q 376 556 418 589 q 307 477 333 524 q 268 390 281 431 l 268 168 q 276 78 268 106 q 306 44 285 51 q 368 31 328 36 l 390 28 l 390 -4 l 219 0 l 49 -4 z "},"o":{"ha":764,"x_min":63,"x_max":701,"o":"m 382 -15 q 220 28 293 -15 q 105 144 147 71 q 63 306 63 217 q 105 471 63 397 q 220 588 147 544 q 382 631 293 631 q 544 588 472 631 q 659 471 617 544 q 701 306 701 397 q 659 144 701 217 q 544 28 617 71 q 382 -15 472 -15 m 382 19 q 503 58 457 19 q 569 160 549 96 q 590 306 590 225 q 569 454 590 389 q 503 558 549 519 q 382 596 457 596 q 261 558 307 596 q 194 454 215 519 q 174 306 174 389 q 194 160 174 225 q 261 58 215 96 q 382 19 307 19 z "},"ó":{"ha":764,"x_min":63,"x_max":701,"o":"m 382 -15 q 220 28 293 -15 q 105 144 147 71 q 63 306 63 217 q 105 471 63 397 q 220 588 147 544 q 382 631 293 631 q 544 588 472 631 q 659 471 617 544 q 701 306 701 397 q 659 144 701 217 q 544 28 617 71 q 382 -15 472 -15 m 382 19 q 503 58 457 19 q 569 160 549 96 q 590 306 590 225 q 569 454 590 389 q 503 558 549 519 q 382 596 457 596 q 261 558 307 596 q 194 454 215 519 q 174 306 174 389 q 194 160 174 225 q 261 58 215 96 q 382 19 307 19 m 333 713 l 388 918 q 415 979 399 963 q 447 996 431 996 q 477 983 464 996 q 490 946 490 971 q 484 912 490 929 q 467 878 478 894 l 364 713 l 333 713 z "},"ǒ":{"ha":764,"x_min":63,"x_max":701,"o":"m 382 -15 q 220 28 293 -15 q 105 144 147 71 q 63 306 63 217 q 105 471 63 397 q 220 588 147 544 q 382 631 293 631 q 544 588 472 631 q 659 471 617 544 q 701 306 701 397 q 659 144 701 217 q 544 28 617 71 q 382 -15 472 -15 m 382 19 q 503 58 457 19 q 569 160 549 96 q 590 306 590 225 q 569 454 590 389 q 503 558 549 519 q 382 596 457 596 q 261 558 307 596 q 194 454 215 519 q 174 306 174 389 q 194 160 174 225 q 261 58 215 96 q 382 19 307 19 m 238 978 l 271 978 l 379 842 l 388 842 l 496 978 l 529 978 l 399 714 l 368 714 l 238 978 z "},"ô":{"ha":764,"x_min":63,"x_max":701,"o":"m 382 -15 q 220 28 293 -15 q 105 144 147 71 q 63 306 63 217 q 105 471 63 397 q 220 588 147 544 q 382 631 293 631 q 544 588 472 631 q 659 471 617 544 q 701 306 701 397 q 659 144 701 217 q 544 28 617 71 q 382 -15 472 -15 m 382 19 q 503 58 457 19 q 569 160 549 96 q 590 306 590 225 q 569 454 590 389 q 503 558 549 519 q 382 596 457 596 q 261 558 307 596 q 194 454 215 519 q 174 306 174 389 q 194 160 174 225 q 261 58 215 96 q 382 19 307 19 m 236 713 l 367 976 l 397 976 l 528 713 l 494 713 l 386 849 l 378 849 l 269 713 l 236 713 z "},"ö":{"ha":764,"x_min":63,"x_max":701,"o":"m 382 -15 q 220 28 293 -15 q 105 144 147 71 q 63 306 63 217 q 105 471 63 397 q 220 588 147 544 q 382 631 293 631 q 544 588 472 631 q 659 471 617 544 q 701 306 701 397 q 659 144 701 217 q 544 28 617 71 q 382 -15 472 -15 m 382 19 q 503 58 457 19 q 569 160 549 96 q 590 306 590 225 q 569 454 590 389 q 503 558 549 519 q 382 596 457 596 q 261 558 307 596 q 194 454 215 519 q 174 306 174 389 q 194 160 174 225 q 261 58 215 96 q 382 19 307 19 m 247 778 q 195 801 214 778 q 176 857 176 824 q 195 912 176 889 q 247 935 214 935 q 300 912 283 935 q 317 857 317 889 q 300 801 317 824 q 247 778 283 778 m 511 778 q 459 801 478 778 q 440 857 440 824 q 459 912 440 889 q 511 935 478 935 q 564 912 547 935 q 581 857 581 889 q 564 801 581 824 q 511 778 547 778 z "},"ò":{"ha":764,"x_min":63,"x_max":701,"o":"m 382 -15 q 220 28 293 -15 q 105 144 147 71 q 63 306 63 217 q 105 471 63 397 q 220 588 147 544 q 382 631 293 631 q 544 588 472 631 q 659 471 617 544 q 701 306 701 397 q 659 144 701 217 q 544 28 617 71 q 382 -15 472 -15 m 382 19 q 503 58 457 19 q 569 160 549 96 q 590 306 590 225 q 569 454 590 389 q 503 558 549 519 q 382 596 457 596 q 261 558 307 596 q 194 454 215 519 q 174 306 174 389 q 194 160 174 225 q 261 58 215 96 q 382 19 307 19 m 428 713 l 397 713 l 294 878 q 278 912 285 894 q 271 946 271 929 q 284 983 271 971 q 314 996 297 996 q 347 979 331 996 q 374 918 363 963 l 428 713 z "},"ő":{"ha":764,"x_min":63,"x_max":701,"o":"m 382 -15 q 220 28 293 -15 q 105 144 147 71 q 63 306 63 217 q 105 471 63 397 q 220 588 147 544 q 382 631 293 631 q 544 588 472 631 q 659 471 617 544 q 701 306 701 397 q 659 144 701 217 q 544 28 617 71 q 382 -15 472 -15 m 382 19 q 503 58 457 19 q 569 160 549 96 q 590 306 590 225 q 569 454 590 389 q 503 558 549 519 q 382 596 457 596 q 261 558 307 596 q 194 454 215 519 q 174 306 174 389 q 194 160 174 225 q 261 58 215 96 q 382 19 307 19 m 256 713 l 310 918 q 337 979 321 963 q 369 996 353 996 q 399 983 386 996 q 413 946 413 971 q 406 912 413 929 q 389 878 400 894 l 286 713 l 256 713 m 436 713 l 490 918 q 517 979 501 963 q 550 996 533 996 q 580 983 567 996 q 593 946 593 971 q 587 912 593 929 q 569 878 581 894 l 467 713 l 436 713 z "},"ō":{"ha":764,"x_min":63,"x_max":701,"o":"m 382 -15 q 220 28 293 -15 q 105 144 147 71 q 63 306 63 217 q 105 471 63 397 q 220 588 147 544 q 382 631 293 631 q 544 588 472 631 q 659 471 617 544 q 701 306 701 397 q 659 144 701 217 q 544 28 617 71 q 382 -15 472 -15 m 382 19 q 503 58 457 19 q 569 160 549 96 q 590 306 590 225 q 569 454 590 389 q 503 558 549 519 q 382 596 457 596 q 261 558 307 596 q 194 454 215 519 q 174 306 174 389 q 194 160 174 225 q 261 58 215 96 q 382 19 307 19 m 224 825 l 224 881 l 539 881 l 539 825 l 224 825 z "},"ø":{"ha":764,"x_min":47,"x_max":715,"o":"m 382 -15 q 220 28 293 -15 q 105 144 147 71 q 63 306 63 217 q 105 471 63 397 q 220 588 147 544 q 382 631 293 631 q 544 588 472 631 q 659 471 617 544 q 701 306 701 397 q 659 144 701 217 q 544 28 617 71 q 382 -15 472 -15 m 382 19 q 503 58 457 19 q 569 160 549 96 q 590 306 590 225 q 569 454 590 389 q 503 558 549 519 q 382 596 457 596 q 261 558 307 596 q 194 454 215 519 q 174 306 174 389 q 194 160 174 225 q 261 58 215 96 q 382 19 307 19 m 47 -19 l 638 626 l 715 626 l 126 -19 l 47 -19 z "},"õ":{"ha":764,"x_min":63,"x_max":701,"o":"m 382 -15 q 220 28 293 -15 q 105 144 147 71 q 63 306 63 217 q 105 471 63 397 q 220 588 147 544 q 382 631 293 631 q 544 588 472 631 q 659 471 617 544 q 701 306 701 397 q 659 144 701 217 q 544 28 617 71 q 382 -15 472 -15 m 382 19 q 503 58 457 19 q 569 160 549 96 q 590 306 590 225 q 569 454 590 389 q 503 558 549 519 q 382 596 457 596 q 261 558 307 596 q 194 454 215 519 q 174 306 174 389 q 194 160 174 225 q 261 58 215 96 q 382 19 307 19 m 488 758 q 436 771 461 758 q 393 793 411 783 l 357 815 q 312 841 332 831 q 272 851 292 851 q 219 825 242 851 q 190 774 197 799 l 164 774 q 176 828 164 794 q 215 890 189 863 q 283 918 242 918 q 336 904 310 918 q 376 882 363 890 l 428 851 q 460 835 439 846 q 499 825 481 825 q 545 846 526 825 q 574 896 564 867 l 600 896 q 561 796 593 833 q 488 758 529 758 z "},"œ":{"ha":1183,"x_min":63,"x_max":1135,"o":"m 382 -15 q 220 28 293 -15 q 105 144 147 71 q 63 306 63 217 q 105 471 63 397 q 220 588 147 544 q 382 631 293 631 q 544 588 472 631 q 659 471 617 544 q 701 306 701 397 q 659 144 701 217 q 544 28 617 71 q 382 -15 472 -15 m 382 19 q 503 58 457 19 q 569 160 549 96 q 590 306 590 225 q 569 454 590 389 q 503 558 549 519 q 382 596 457 596 q 261 558 307 596 q 194 454 215 519 q 174 306 174 389 q 194 160 174 225 q 261 58 215 96 q 382 19 307 19 m 888 -15 q 728 24 796 -15 q 622 134 660 64 q 583 294 583 204 q 625 467 583 392 q 737 587 667 543 q 892 631 807 631 q 1059 563 999 631 q 1119 383 1119 494 q 1118 356 1119 367 q 1115 340 1117 344 l 696 340 q 694 301 694 321 q 718 165 694 228 q 790 64 742 101 q 907 26 838 26 q 1023 63 972 26 q 1101 172 1074 100 l 1135 160 q 888 -15 1076 -15 m 892 596 q 758 535 806 596 q 699 372 710 474 l 875 372 q 970 387 938 372 q 1015 423 1003 401 q 1026 465 1026 444 q 985 561 1026 526 q 892 596 943 596 z "},"p":{"ha":782,"x_min":25,"x_max":719,"o":"m 25 -393 l 25 -361 l 47 -358 q 109 -345 88 -353 q 139 -310 131 -337 q 147 -221 147 -283 l 147 465 q 133 538 147 515 q 90 567 118 561 q 25 574 63 574 l 25 606 q 135 611 82 606 q 244 626 188 617 l 235 532 q 324 603 274 576 q 438 631 375 631 q 581 588 518 631 q 682 471 644 544 q 719 306 719 397 q 682 144 719 217 q 580 28 644 71 q 432 -15 515 -15 q 325 9 374 -15 q 244 64 276 33 l 244 -221 q 253 -310 244 -283 q 283 -345 261 -337 q 344 -358 304 -353 l 367 -361 l 367 -393 l 196 -389 l 25 -393 m 421 589 q 320 562 364 589 q 244 496 276 535 l 244 121 q 315 56 268 85 q 419 26 363 26 q 525 63 483 26 q 588 163 567 100 q 608 306 608 226 q 588 450 608 386 q 526 551 567 514 q 421 589 485 589 z "},"þ":{"ha":833,"x_min":35,"x_max":729,"o":"m 35 -393 l 35 -361 l 57 -358 q 119 -345 97 -353 q 149 -310 140 -337 q 157 -221 157 -283 l 157 844 q 142 917 157 894 q 100 947 128 940 q 35 953 72 953 l 35 985 q 144 990 92 985 q 254 1006 197 996 l 254 547 q 334 609 288 588 q 438 631 381 631 q 588 588 522 631 q 692 471 654 544 q 729 306 729 397 q 692 144 729 217 q 588 28 654 71 q 438 -15 522 -15 q 254 68 326 -15 l 254 -221 q 263 -310 254 -283 q 292 -345 271 -337 q 354 -358 314 -353 l 376 -361 l 376 -393 l 206 -389 l 35 -393 m 438 596 q 332 568 378 596 q 254 496 286 540 l 254 125 q 331 53 285 81 q 438 26 378 26 q 538 63 497 26 q 598 163 578 100 q 618 306 618 226 q 598 454 618 389 q 538 558 578 519 q 438 596 497 596 z "},"q":{"ha":743,"x_min":63,"x_max":757,"o":"m 344 -15 q 201 28 265 -15 q 100 145 138 71 q 63 310 63 219 q 100 472 63 400 q 203 588 138 544 q 350 631 268 631 q 460 605 410 631 q 542 546 511 579 l 614 624 l 635 624 l 635 -221 q 643 -310 635 -283 q 673 -345 651 -337 q 735 -358 694 -353 l 757 -361 l 757 -393 l 586 -389 l 415 -393 l 415 -361 l 438 -358 q 499 -345 478 -353 q 529 -310 521 -337 q 538 -221 538 -283 l 538 72 q 451 8 500 32 q 344 -15 403 -15 m 174 310 q 194 165 174 229 q 255 64 214 101 q 358 26 296 26 q 462 53 418 26 q 538 119 506 81 l 538 494 q 467 560 514 531 q 363 589 419 589 q 257 552 299 589 q 194 452 215 515 q 174 310 174 389 z "},"r":{"ha":544,"x_min":39,"x_max":517,"o":"m 39 -4 l 39 28 l 61 31 q 123 44 101 36 q 153 78 144 51 q 161 168 161 106 l 161 457 q 147 536 161 511 q 104 567 132 561 q 39 574 76 574 l 39 606 q 149 610 96 606 q 258 622 201 614 l 243 463 l 249 463 q 324 593 279 556 q 419 631 368 631 q 497 602 478 631 q 517 547 517 574 q 499 497 517 517 q 450 478 481 478 q 406 492 421 478 q 390 524 390 506 q 394 550 390 538 q 397 569 397 563 q 378 583 397 583 q 337 565 358 583 q 300 515 315 547 q 276 457 288 489 q 258 388 265 425 l 258 168 q 267 78 258 106 q 297 44 275 51 q 358 31 318 36 l 381 28 l 381 -4 l 210 0 l 39 -4 z "},"ŕ":{"ha":544,"x_min":39,"x_max":517,"o":"m 39 -4 l 39 28 l 61 31 q 123 44 101 36 q 153 78 144 51 q 161 168 161 106 l 161 457 q 147 536 161 511 q 104 567 132 561 q 39 574 76 574 l 39 606 q 149 610 96 606 q 258 622 201 614 l 243 463 l 249 463 q 324 593 279 556 q 419 631 368 631 q 497 602 478 631 q 517 547 517 574 q 499 497 517 517 q 450 478 481 478 q 406 492 421 478 q 390 524 390 506 q 394 550 390 538 q 397 569 397 563 q 378 583 397 583 q 337 565 358 583 q 300 515 315 547 q 276 457 288 489 q 258 388 265 425 l 258 168 q 267 78 258 106 q 297 44 275 51 q 358 31 318 36 l 381 28 l 381 -4 l 210 0 l 39 -4 m 214 722 l 268 928 q 295 989 279 972 q 328 1006 311 1006 q 358 993 344 1006 q 371 956 371 981 q 365 922 371 939 q 347 888 358 904 l 244 722 l 214 722 z "},"ř":{"ha":544,"x_min":39,"x_max":517,"o":"m 39 -4 l 39 28 l 61 31 q 123 44 101 36 q 153 78 144 51 q 161 168 161 106 l 161 457 q 147 536 161 511 q 104 567 132 561 q 39 574 76 574 l 39 606 q 149 610 96 606 q 258 622 201 614 l 243 463 l 249 463 q 324 593 279 556 q 419 631 368 631 q 497 602 478 631 q 517 547 517 574 q 499 497 517 517 q 450 478 481 478 q 406 492 421 478 q 390 524 390 506 q 394 550 390 538 q 397 569 397 563 q 378 583 397 583 q 337 565 358 583 q 300 515 315 547 q 276 457 288 489 q 258 388 265 425 l 258 168 q 267 78 258 106 q 297 44 275 51 q 358 31 318 36 l 381 28 l 381 -4 l 210 0 l 39 -4 m 118 988 l 151 988 l 260 851 l 268 851 l 376 988 l 410 988 l 279 724 l 249 724 l 118 988 z "},"ŗ":{"ha":544,"x_min":39,"x_max":517,"o":"m 39 -4 l 39 28 l 61 31 q 123 44 101 36 q 153 78 144 51 q 161 168 161 106 l 161 457 q 147 536 161 511 q 104 567 132 561 q 39 574 76 574 l 39 606 q 149 610 96 606 q 258 622 201 614 l 243 463 l 249 463 q 324 593 279 556 q 419 631 368 631 q 497 602 478 631 q 517 547 517 574 q 499 497 517 517 q 450 478 481 478 q 406 492 421 478 q 390 524 390 506 q 394 550 390 538 q 397 569 397 563 q 378 583 397 583 q 337 565 358 583 q 300 515 315 547 q 276 457 288 489 q 258 388 265 425 l 258 168 q 267 78 258 106 q 297 44 275 51 q 358 31 318 36 l 381 28 l 381 -4 l 210 0 l 39 -4 m 199 -400 l 185 -379 q 251 -319 222 -353 q 281 -237 281 -286 q 276 -201 281 -218 q 260 -189 271 -185 q 258 -191 258 -190 q 258 -192 258 -192 q 260 -200 258 -194 q 263 -212 263 -206 q 248 -239 263 -226 q 214 -251 233 -251 q 169 -234 186 -251 q 151 -189 151 -217 q 170 -140 151 -158 q 219 -121 189 -121 q 280 -151 257 -121 q 303 -235 303 -182 q 273 -335 303 -299 q 199 -400 243 -371 z "},"s":{"ha":546,"x_min":71,"x_max":489,"o":"m 294 -15 q 205 -3 242 -15 q 147 18 168 8 q 119 29 125 29 q 110 24 114 29 q 103 0 107 19 l 71 0 l 76 92 l 81 210 l 111 210 l 113 186 q 138 108 115 147 q 201 43 161 69 q 294 17 242 17 q 386 46 351 17 q 421 126 421 75 q 385 201 421 171 q 288 256 350 232 l 238 275 q 128 344 165 303 q 92 451 92 386 q 117 547 92 507 q 185 608 143 586 q 276 631 228 631 q 335 622 311 631 q 376 606 360 614 q 400 599 390 599 q 422 628 414 599 l 453 626 l 447 536 l 447 439 l 415 439 q 371 552 406 504 q 271 600 336 600 q 194 571 225 600 q 163 497 163 542 q 195 426 163 454 q 285 375 228 397 l 339 354 q 456 277 424 322 q 489 169 489 232 q 439 40 489 96 q 294 -15 389 -15 z "},"ś":{"ha":546,"x_min":71,"x_max":489,"o":"m 294 -15 q 205 -3 242 -15 q 147 18 168 8 q 119 29 125 29 q 110 24 114 29 q 103 0 107 19 l 71 0 l 76 92 l 81 210 l 111 210 l 113 186 q 138 108 115 147 q 201 43 161 69 q 294 17 242 17 q 386 46 351 17 q 421 126 421 75 q 385 201 421 171 q 288 256 350 232 l 238 275 q 128 344 165 303 q 92 451 92 386 q 117 547 92 507 q 185 608 143 586 q 276 631 228 631 q 335 622 311 631 q 376 606 360 614 q 400 599 390 599 q 422 628 414 599 l 453 626 l 447 536 l 447 439 l 415 439 q 371 552 406 504 q 271 600 336 600 q 194 571 225 600 q 163 497 163 542 q 195 426 163 454 q 285 375 228 397 l 339 354 q 456 277 424 322 q 489 169 489 232 q 439 40 489 96 q 294 -15 389 -15 m 233 718 l 288 924 q 315 985 299 968 q 347 1001 331 1001 q 377 989 364 1001 q 390 951 390 976 q 384 917 390 935 q 367 883 378 900 l 264 718 l 233 718 z "},"š":{"ha":546,"x_min":71,"x_max":489,"o":"m 294 -15 q 205 -3 242 -15 q 147 18 168 8 q 119 29 125 29 q 110 24 114 29 q 103 0 107 19 l 71 0 l 76 92 l 81 210 l 111 210 l 113 186 q 138 108 115 147 q 201 43 161 69 q 294 17 242 17 q 386 46 351 17 q 421 126 421 75 q 385 201 421 171 q 288 256 350 232 l 238 275 q 128 344 165 303 q 92 451 92 386 q 117 547 92 507 q 185 608 143 586 q 276 631 228 631 q 335 622 311 631 q 376 606 360 614 q 400 599 390 599 q 422 628 414 599 l 453 626 l 447 536 l 447 439 l 415 439 q 371 552 406 504 q 271 600 336 600 q 194 571 225 600 q 163 497 163 542 q 195 426 163 454 q 285 375 228 397 l 339 354 q 456 277 424 322 q 489 169 489 232 q 439 40 489 96 q 294 -15 389 -15 m 138 983 l 171 983 l 279 847 l 288 847 l 396 983 l 429 983 l 299 719 l 268 719 l 138 983 z "},"ş":{"ha":546,"x_min":71,"x_max":489,"o":"m 294 -15 q 205 -3 242 -15 q 147 18 168 8 q 119 29 125 29 q 110 24 114 29 q 103 0 107 19 l 71 0 l 76 92 l 81 210 l 111 210 l 113 186 q 138 108 115 147 q 201 43 161 69 q 294 17 242 17 q 386 46 351 17 q 421 126 421 75 q 385 201 421 171 q 288 256 350 232 l 238 275 q 128 344 165 303 q 92 451 92 386 q 117 547 92 507 q 185 608 143 586 q 276 631 228 631 q 335 622 311 631 q 376 606 360 614 q 400 599 390 599 q 422 628 414 599 l 453 626 l 447 536 l 447 439 l 415 439 q 371 552 406 504 q 271 600 336 600 q 194 571 225 600 q 163 497 163 542 q 195 426 163 454 q 285 375 228 397 l 339 354 q 456 277 424 322 q 489 169 489 232 q 439 40 489 96 q 294 -15 389 -15 m 236 -401 q 138 -365 174 -401 q 93 -287 103 -328 l 124 -278 q 158 -336 131 -310 q 228 -362 185 -362 q 301 -319 276 -362 q 326 -226 326 -276 q 302 -144 326 -178 q 232 -110 278 -110 q 185 -126 208 -110 q 146 -165 161 -142 l 118 -147 q 171 -93 138 -111 q 242 -75 204 -75 l 268 4 l 310 4 l 281 -79 q 365 -133 332 -92 q 397 -231 397 -174 q 349 -354 397 -307 q 236 -401 301 -401 z "},"ș":{"ha":546,"x_min":71,"x_max":489,"o":"m 294 -15 q 205 -3 242 -15 q 147 18 168 8 q 119 29 125 29 q 110 24 114 29 q 103 0 107 19 l 71 0 l 76 92 l 81 210 l 111 210 l 113 186 q 138 108 115 147 q 201 43 161 69 q 294 17 242 17 q 386 46 351 17 q 421 126 421 75 q 385 201 421 171 q 288 256 350 232 l 238 275 q 128 344 165 303 q 92 451 92 386 q 117 547 92 507 q 185 608 143 586 q 276 631 228 631 q 335 622 311 631 q 376 606 360 614 q 400 599 390 599 q 422 628 414 599 l 453 626 l 447 536 l 447 439 l 415 439 q 371 552 406 504 q 271 600 336 600 q 194 571 225 600 q 163 497 163 542 q 195 426 163 454 q 285 375 228 397 l 339 354 q 456 277 424 322 q 489 169 489 232 q 439 40 489 96 q 294 -15 389 -15 m 278 -396 l 264 -375 q 331 -315 301 -349 q 360 -233 360 -282 q 355 -197 360 -214 q 339 -185 350 -181 q 338 -187 338 -186 q 338 -187 338 -187 q 340 -196 338 -190 q 342 -208 342 -201 q 327 -235 342 -222 q 293 -247 313 -247 q 248 -230 265 -247 q 231 -185 231 -212 q 249 -135 231 -154 q 299 -117 268 -117 q 359 -147 336 -117 q 382 -231 382 -178 q 352 -331 382 -294 q 278 -396 322 -367 z "},"ß":{"ha":824,"x_min":35,"x_max":796,"o":"m 557 -15 q 430 8 479 -15 q 358 64 381 31 q 335 129 335 97 q 353 185 335 164 q 401 207 371 207 q 445 191 425 207 q 465 149 465 175 q 460 115 465 135 q 456 82 456 97 q 543 19 456 19 q 650 65 613 19 q 688 171 688 111 q 666 256 688 219 q 610 321 644 292 q 536 376 575 350 q 473 424 504 399 q 421 480 442 450 q 400 540 400 510 q 419 599 400 574 q 465 651 439 625 q 517 720 490 676 q 543 814 543 764 q 501 933 543 896 q 403 971 460 971 q 316 943 349 971 q 269 868 283 915 q 256 764 256 821 l 256 168 q 259 72 256 110 q 269 0 263 35 l 206 0 l 35 -4 l 35 28 l 57 31 q 119 44 97 36 q 149 78 140 51 q 157 168 157 106 l 157 574 l 38 574 l 38 606 l 157 606 l 157 692 q 190 883 157 815 q 283 978 224 951 q 422 1006 343 1006 q 542 984 489 1006 q 624 926 594 963 q 654 844 654 889 q 633 780 654 810 q 583 722 611 750 q 521 657 550 690 q 492 592 492 624 q 524 522 492 561 q 615 442 557 482 q 692 384 650 418 q 765 303 735 350 q 796 194 796 257 q 764 97 796 146 q 678 17 732 49 q 557 -15 625 -15 z "},"t":{"ha":471,"x_min":42,"x_max":457,"o":"m 297 -15 q 187 26 229 -15 q 144 160 144 67 l 144 571 l 42 571 l 42 606 l 79 608 q 166 655 136 613 q 206 774 196 697 l 242 774 l 242 606 l 419 606 l 419 571 l 242 571 l 242 154 q 328 32 242 32 q 386 56 364 32 q 426 117 408 81 l 457 101 q 437 63 449 81 q 414 33 425 46 q 360 -4 390 7 q 297 -15 331 -15 z "},"ŧ":{"ha":471,"x_min":42,"x_max":457,"o":"m 297 -15 q 187 26 229 -15 q 144 160 144 67 l 144 571 l 42 571 l 42 606 l 79 608 q 166 655 136 613 q 206 774 196 697 l 242 774 l 242 606 l 419 606 l 419 571 l 242 571 l 242 154 q 328 32 242 32 q 386 56 364 32 q 426 117 408 81 l 457 101 q 437 63 449 81 q 414 33 425 46 q 360 -4 390 7 q 297 -15 331 -15 m 42 407 l 42 442 l 422 442 l 422 407 l 42 407 z "},"ť":{"ha":471,"x_min":42,"x_max":481,"o":"m 297 -15 q 187 26 229 -15 q 144 160 144 67 l 144 571 l 42 571 l 42 606 l 79 608 q 166 655 136 613 q 206 774 196 697 l 242 774 l 242 606 l 419 606 l 419 571 l 242 571 l 242 154 q 328 32 242 32 q 386 56 364 32 q 426 117 408 81 l 457 101 q 437 63 449 81 q 414 33 425 46 q 360 -4 390 7 q 297 -15 331 -15 m 347 711 l 375 957 l 481 957 l 394 711 l 347 711 z "},"ţ":{"ha":471,"x_min":42,"x_max":457,"o":"m 297 -15 q 187 26 229 -15 q 144 160 144 67 l 144 571 l 42 571 l 42 606 l 79 608 q 166 655 136 613 q 206 774 196 697 l 242 774 l 242 606 l 419 606 l 419 571 l 242 571 l 242 154 q 328 32 242 32 q 386 56 364 32 q 426 117 408 81 l 457 101 q 437 63 449 81 q 414 33 425 46 q 360 -4 390 7 q 297 -15 331 -15 m 267 -400 l 253 -379 q 319 -319 290 -353 q 349 -237 349 -286 q 344 -201 349 -218 q 328 -189 339 -185 q 326 -191 326 -190 q 326 -192 326 -192 q 328 -200 326 -194 q 331 -212 331 -206 q 316 -239 331 -226 q 282 -251 301 -251 q 237 -234 254 -251 q 219 -189 219 -217 q 238 -140 219 -158 q 288 -121 257 -121 q 348 -151 325 -121 q 371 -235 371 -182 q 341 -335 371 -299 q 267 -400 311 -371 z "},"ț":{"ha":471,"x_min":42,"x_max":457,"o":"m 297 -15 q 187 26 229 -15 q 144 160 144 67 l 144 571 l 42 571 l 42 606 l 79 608 q 166 655 136 613 q 206 774 196 697 l 242 774 l 242 606 l 419 606 l 419 571 l 242 571 l 242 154 q 328 32 242 32 q 386 56 364 32 q 426 117 408 81 l 457 101 q 437 63 449 81 q 414 33 425 46 q 360 -4 390 7 q 297 -15 331 -15 m 267 -400 l 253 -379 q 319 -319 290 -353 q 349 -237 349 -286 q 344 -201 349 -218 q 328 -189 339 -185 q 326 -191 326 -190 q 326 -192 326 -192 q 328 -200 326 -194 q 331 -212 331 -206 q 316 -239 331 -226 q 282 -251 301 -251 q 237 -234 254 -251 q 219 -189 219 -217 q 238 -140 219 -158 q 288 -121 257 -121 q 348 -151 325 -121 q 371 -235 371 -182 q 341 -335 371 -299 q 267 -400 311 -371 z "},"u":{"ha":793,"x_min":14,"x_max":779,"o":"m 331 -15 q 188 30 240 -15 q 136 164 136 75 l 136 433 q 128 523 136 496 q 98 558 119 550 q 36 571 76 567 l 14 574 l 14 606 l 185 601 l 233 603 l 233 169 q 268 65 233 101 q 363 29 303 29 q 453 52 414 29 q 522 111 493 75 q 567 185 550 147 l 567 433 q 558 523 567 496 q 528 558 550 550 q 467 571 507 567 l 444 574 l 444 606 l 615 601 l 664 603 l 664 154 q 677 76 664 101 q 716 42 690 50 q 779 33 742 33 l 779 1 q 675 0 722 1 q 567 -12 628 -1 l 567 115 q 538 76 553 93 q 450 10 501 36 q 331 -15 399 -15 z "},"ú":{"ha":793,"x_min":14,"x_max":779,"o":"m 331 -15 q 188 30 240 -15 q 136 164 136 75 l 136 433 q 128 523 136 496 q 98 558 119 550 q 36 571 76 567 l 14 574 l 14 606 l 185 601 l 233 603 l 233 169 q 268 65 233 101 q 363 29 303 29 q 453 52 414 29 q 522 111 493 75 q 567 185 550 147 l 567 433 q 558 523 567 496 q 528 558 550 550 q 467 571 507 567 l 444 574 l 444 606 l 615 601 l 664 603 l 664 154 q 677 76 664 101 q 716 42 690 50 q 779 33 742 33 l 779 1 q 675 0 722 1 q 567 -12 628 -1 l 567 115 q 538 76 553 93 q 450 10 501 36 q 331 -15 399 -15 m 313 719 l 367 925 q 394 986 378 969 q 426 1003 410 1003 q 456 990 443 1003 q 469 953 469 978 q 463 919 469 936 q 446 885 457 901 l 343 719 l 313 719 z "},"ŭ":{"ha":793,"x_min":14,"x_max":779,"o":"m 331 -15 q 188 30 240 -15 q 136 164 136 75 l 136 433 q 128 523 136 496 q 98 558 119 550 q 36 571 76 567 l 14 574 l 14 606 l 185 601 l 233 603 l 233 169 q 268 65 233 101 q 363 29 303 29 q 453 52 414 29 q 522 111 493 75 q 567 185 550 147 l 567 433 q 558 523 567 496 q 528 558 550 550 q 467 571 507 567 l 444 574 l 444 606 l 615 601 l 664 603 l 664 154 q 677 76 664 101 q 716 42 690 50 q 779 33 742 33 l 779 1 q 675 0 722 1 q 567 -12 628 -1 l 567 115 q 538 76 553 93 q 450 10 501 36 q 331 -15 399 -15 m 363 757 q 258 803 293 757 q 222 918 222 850 l 222 964 l 257 964 l 257 957 q 285 865 257 889 q 363 840 313 840 q 440 865 413 840 q 468 957 468 889 l 468 964 l 503 964 l 503 918 q 467 803 503 850 q 363 757 432 757 z "},"ǔ":{"ha":793,"x_min":14,"x_max":779,"o":"m 331 -15 q 188 30 240 -15 q 136 164 136 75 l 136 433 q 128 523 136 496 q 98 558 119 550 q 36 571 76 567 l 14 574 l 14 606 l 185 601 l 233 603 l 233 169 q 268 65 233 101 q 363 29 303 29 q 453 52 414 29 q 522 111 493 75 q 567 185 550 147 l 567 433 q 558 523 567 496 q 528 558 550 550 q 467 571 507 567 l 444 574 l 444 606 l 615 601 l 664 603 l 664 154 q 677 76 664 101 q 716 42 690 50 q 779 33 742 33 l 779 1 q 675 0 722 1 q 567 -12 628 -1 l 567 115 q 538 76 553 93 q 450 10 501 36 q 331 -15 399 -15 m 217 985 l 250 985 l 358 849 l 367 849 l 475 985 l 508 985 l 378 721 l 347 721 l 217 985 z "},"û":{"ha":793,"x_min":14,"x_max":779,"o":"m 331 -15 q 188 30 240 -15 q 136 164 136 75 l 136 433 q 128 523 136 496 q 98 558 119 550 q 36 571 76 567 l 14 574 l 14 606 l 185 601 l 233 603 l 233 169 q 268 65 233 101 q 363 29 303 29 q 453 52 414 29 q 522 111 493 75 q 567 185 550 147 l 567 433 q 558 523 567 496 q 528 558 550 550 q 467 571 507 567 l 444 574 l 444 606 l 615 601 l 664 603 l 664 154 q 677 76 664 101 q 716 42 690 50 q 779 33 742 33 l 779 1 q 675 0 722 1 q 567 -12 628 -1 l 567 115 q 538 76 553 93 q 450 10 501 36 q 331 -15 399 -15 m 215 719 l 346 983 l 376 983 l 507 719 l 474 719 l 365 856 l 357 856 l 249 719 l 215 719 z "},"ü":{"ha":793,"x_min":14,"x_max":779,"o":"m 331 -15 q 188 30 240 -15 q 136 164 136 75 l 136 433 q 128 523 136 496 q 98 558 119 550 q 36 571 76 567 l 14 574 l 14 606 l 185 601 l 233 603 l 233 169 q 268 65 233 101 q 363 29 303 29 q 453 52 414 29 q 522 111 493 75 q 567 185 550 147 l 567 433 q 558 523 567 496 q 528 558 550 550 q 467 571 507 567 l 444 574 l 444 606 l 615 601 l 664 603 l 664 154 q 677 76 664 101 q 716 42 690 50 q 779 33 742 33 l 779 1 q 675 0 722 1 q 567 -12 628 -1 l 567 115 q 538 76 553 93 q 450 10 501 36 q 331 -15 399 -15 m 226 785 q 174 808 193 785 q 156 864 156 831 q 174 919 156 896 q 226 942 193 942 q 279 919 263 942 q 296 864 296 896 q 279 808 296 831 q 226 785 263 785 m 490 785 q 438 808 457 785 q 419 864 419 831 q 438 919 419 896 q 490 942 457 942 q 543 919 526 942 q 560 864 560 896 q 543 808 560 831 q 490 785 526 785 z "},"ǘ":{"ha":793,"x_min":14,"x_max":779,"o":"m 331 -15 q 188 30 240 -15 q 136 164 136 75 l 136 433 q 128 523 136 496 q 98 558 119 550 q 36 571 76 567 l 14 574 l 14 606 l 185 601 l 233 603 l 233 169 q 268 65 233 101 q 363 29 303 29 q 453 52 414 29 q 522 111 493 75 q 567 185 550 147 l 567 433 q 558 523 567 496 q 528 558 550 550 q 467 571 507 567 l 444 574 l 444 606 l 615 601 l 664 603 l 664 154 q 677 76 664 101 q 716 42 690 50 q 779 33 742 33 l 779 1 q 675 0 722 1 q 567 -12 628 -1 l 567 115 q 538 76 553 93 q 450 10 501 36 q 331 -15 399 -15 m 226 785 q 174 808 193 785 q 156 864 156 831 q 174 919 156 896 q 226 942 193 942 q 279 919 263 942 q 296 864 296 896 q 279 808 296 831 q 226 785 263 785 m 490 785 q 438 808 457 785 q 419 864 419 831 q 438 919 419 896 q 490 942 457 942 q 543 919 526 942 q 560 864 560 896 q 543 808 560 831 q 490 785 526 785 m 304 1018 l 358 1224 q 385 1285 369 1268 q 418 1301 401 1301 q 448 1289 435 1301 q 461 1251 461 1276 q 455 1217 461 1235 q 438 1183 449 1200 l 335 1018 l 304 1018 z "},"ǚ":{"ha":793,"x_min":14,"x_max":779,"o":"m 331 -15 q 188 30 240 -15 q 136 164 136 75 l 136 433 q 128 523 136 496 q 98 558 119 550 q 36 571 76 567 l 14 574 l 14 606 l 185 601 l 233 603 l 233 169 q 268 65 233 101 q 363 29 303 29 q 453 52 414 29 q 522 111 493 75 q 567 185 550 147 l 567 433 q 558 523 567 496 q 528 558 550 550 q 467 571 507 567 l 444 574 l 444 606 l 615 601 l 664 603 l 664 154 q 677 76 664 101 q 716 42 690 50 q 779 33 742 33 l 779 1 q 675 0 722 1 q 567 -12 628 -1 l 567 115 q 538 76 553 93 q 450 10 501 36 q 331 -15 399 -15 m 226 785 q 174 808 193 785 q 156 864 156 831 q 174 919 156 896 q 226 942 193 942 q 279 919 263 942 q 296 864 296 896 q 279 808 296 831 q 226 785 263 785 m 490 785 q 438 808 457 785 q 419 864 419 831 q 438 919 419 896 q 490 942 457 942 q 543 919 526 942 q 560 864 560 896 q 543 808 560 831 q 490 785 526 785 m 208 1283 l 242 1283 l 350 1147 l 358 1147 l 467 1283 l 500 1283 l 369 1019 l 339 1019 l 208 1283 z "},"ǜ":{"ha":793,"x_min":14,"x_max":779,"o":"m 331 -15 q 188 30 240 -15 q 136 164 136 75 l 136 433 q 128 523 136 496 q 98 558 119 550 q 36 571 76 567 l 14 574 l 14 606 l 185 601 l 233 603 l 233 169 q 268 65 233 101 q 363 29 303 29 q 453 52 414 29 q 522 111 493 75 q 567 185 550 147 l 567 433 q 558 523 567 496 q 528 558 550 550 q 467 571 507 567 l 444 574 l 444 606 l 615 601 l 664 603 l 664 154 q 677 76 664 101 q 716 42 690 50 q 779 33 742 33 l 779 1 q 675 0 722 1 q 567 -12 628 -1 l 567 115 q 538 76 553 93 q 450 10 501 36 q 331 -15 399 -15 m 226 785 q 174 808 193 785 q 156 864 156 831 q 174 919 156 896 q 226 942 193 942 q 279 919 263 942 q 296 864 296 896 q 279 808 296 831 q 226 785 263 785 m 490 785 q 438 808 457 785 q 419 864 419 831 q 438 919 419 896 q 490 942 457 942 q 543 919 526 942 q 560 864 560 896 q 543 808 560 831 q 490 785 526 785 m 399 1018 l 368 1018 l 265 1183 q 249 1217 256 1200 q 242 1251 242 1235 q 255 1289 242 1276 q 285 1301 268 1301 q 317 1285 301 1301 q 344 1224 333 1268 l 399 1018 z "},"ǖ":{"ha":793,"x_min":14,"x_max":779,"o":"m 331 -15 q 188 30 240 -15 q 136 164 136 75 l 136 433 q 128 523 136 496 q 98 558 119 550 q 36 571 76 567 l 14 574 l 14 606 l 185 601 l 233 603 l 233 169 q 268 65 233 101 q 363 29 303 29 q 453 52 414 29 q 522 111 493 75 q 567 185 550 147 l 567 433 q 558 523 567 496 q 528 558 550 550 q 467 571 507 567 l 444 574 l 444 606 l 615 601 l 664 603 l 664 154 q 677 76 664 101 q 716 42 690 50 q 779 33 742 33 l 779 1 q 675 0 722 1 q 567 -12 628 -1 l 567 115 q 538 76 553 93 q 450 10 501 36 q 331 -15 399 -15 m 226 785 q 174 808 193 785 q 156 864 156 831 q 174 919 156 896 q 226 942 193 942 q 279 919 263 942 q 296 864 296 896 q 279 808 296 831 q 226 785 263 785 m 490 785 q 438 808 457 785 q 419 864 419 831 q 438 919 419 896 q 490 942 457 942 q 543 919 526 942 q 560 864 560 896 q 543 808 560 831 q 490 785 526 785 m 194 1131 l 194 1186 l 510 1186 l 510 1131 l 194 1131 z "},"ù":{"ha":793,"x_min":14,"x_max":779,"o":"m 331 -15 q 188 30 240 -15 q 136 164 136 75 l 136 433 q 128 523 136 496 q 98 558 119 550 q 36 571 76 567 l 14 574 l 14 606 l 185 601 l 233 603 l 233 169 q 268 65 233 101 q 363 29 303 29 q 453 52 414 29 q 522 111 493 75 q 567 185 550 147 l 567 433 q 558 523 567 496 q 528 558 550 550 q 467 571 507 567 l 444 574 l 444 606 l 615 601 l 664 603 l 664 154 q 677 76 664 101 q 716 42 690 50 q 779 33 742 33 l 779 1 q 675 0 722 1 q 567 -12 628 -1 l 567 115 q 538 76 553 93 q 450 10 501 36 q 331 -15 399 -15 m 407 719 l 376 719 l 274 885 q 257 919 264 901 q 250 953 250 936 q 263 990 250 978 q 293 1003 276 1003 q 326 986 310 1003 q 353 925 342 969 l 407 719 z "},"ű":{"ha":793,"x_min":14,"x_max":779,"o":"m 331 -15 q 188 30 240 -15 q 136 164 136 75 l 136 433 q 128 523 136 496 q 98 558 119 550 q 36 571 76 567 l 14 574 l 14 606 l 185 601 l 233 603 l 233 169 q 268 65 233 101 q 363 29 303 29 q 453 52 414 29 q 522 111 493 75 q 567 185 550 147 l 567 433 q 558 523 567 496 q 528 558 550 550 q 467 571 507 567 l 444 574 l 444 606 l 615 601 l 664 603 l 664 154 q 677 76 664 101 q 716 42 690 50 q 779 33 742 33 l 779 1 q 675 0 722 1 q 567 -12 628 -1 l 567 115 q 538 76 553 93 q 450 10 501 36 q 331 -15 399 -15 m 235 719 l 289 925 q 316 986 300 969 q 349 1003 332 1003 q 378 990 365 1003 q 392 953 392 978 q 385 919 392 936 q 368 885 379 901 l 265 719 l 235 719 m 415 719 l 469 925 q 497 986 481 969 q 529 1003 513 1003 q 559 990 546 1003 q 572 953 572 978 q 566 919 572 936 q 549 885 560 901 l 446 719 l 415 719 z "},"ū":{"ha":793,"x_min":14,"x_max":779,"o":"m 331 -15 q 188 30 240 -15 q 136 164 136 75 l 136 433 q 128 523 136 496 q 98 558 119 550 q 36 571 76 567 l 14 574 l 14 606 l 185 601 l 233 603 l 233 169 q 268 65 233 101 q 363 29 303 29 q 453 52 414 29 q 522 111 493 75 q 567 185 550 147 l 567 433 q 558 523 567 496 q 528 558 550 550 q 467 571 507 567 l 444 574 l 444 606 l 615 601 l 664 603 l 664 154 q 677 76 664 101 q 716 42 690 50 q 779 33 742 33 l 779 1 q 675 0 722 1 q 567 -12 628 -1 l 567 115 q 538 76 553 93 q 450 10 501 36 q 331 -15 399 -15 m 203 832 l 203 888 l 518 888 l 518 832 l 203 832 z "},"ų":{"ha":793,"x_min":14,"x_max":779,"o":"m 331 -15 q 188 30 240 -15 q 136 164 136 75 l 136 433 q 128 523 136 496 q 98 558 119 550 q 36 571 76 567 l 14 574 l 14 606 l 185 601 l 233 603 l 233 169 q 268 65 233 101 q 363 29 303 29 q 453 52 414 29 q 522 111 493 75 q 567 185 550 147 l 567 433 q 558 523 567 496 q 528 558 550 550 q 467 571 507 567 l 444 574 l 444 606 l 615 601 l 664 603 l 664 154 q 677 76 664 101 q 716 42 690 50 q 779 33 742 33 l 779 1 q 675 0 722 1 q 567 -12 628 -1 l 567 115 q 538 76 553 93 q 450 10 501 36 q 331 -15 399 -15 m 544 -408 q 438 -367 481 -408 q 394 -267 394 -326 q 424 -163 394 -214 q 496 -64 454 -112 q 574 26 538 -15 l 610 26 q 507 -95 550 -39 q 464 -214 464 -151 q 494 -302 464 -272 q 574 -332 524 -332 q 647 -306 613 -332 q 701 -236 682 -279 l 725 -254 q 701 -325 721 -289 q 642 -385 681 -361 q 544 -408 604 -408 z "},"ů":{"ha":793,"x_min":14,"x_max":779,"o":"m 331 -15 q 188 30 240 -15 q 136 164 136 75 l 136 433 q 128 523 136 496 q 98 558 119 550 q 36 571 76 567 l 14 574 l 14 606 l 185 601 l 233 603 l 233 169 q 268 65 233 101 q 363 29 303 29 q 453 52 414 29 q 522 111 493 75 q 567 185 550 147 l 567 433 q 558 523 567 496 q 528 558 550 550 q 467 571 507 567 l 444 574 l 444 606 l 615 601 l 664 603 l 664 154 q 677 76 664 101 q 716 42 690 50 q 779 33 742 33 l 779 1 q 675 0 722 1 q 567 -12 628 -1 l 567 115 q 538 76 553 93 q 450 10 501 36 q 331 -15 399 -15 m 360 733 q 273 768 306 733 q 240 851 240 803 q 271 933 240 896 q 358 969 301 969 q 426 951 400 969 q 463 905 451 932 q 475 851 475 878 q 438 762 475 790 q 360 733 401 733 m 360 776 q 408 795 386 776 q 429 851 429 814 q 408 907 429 888 q 358 926 386 926 q 310 909 335 926 q 286 851 286 892 q 308 797 286 817 q 360 776 331 776 z "},"ũ":{"ha":793,"x_min":14,"x_max":779,"o":"m 331 -15 q 188 30 240 -15 q 136 164 136 75 l 136 433 q 128 523 136 496 q 98 558 119 550 q 36 571 76 567 l 14 574 l 14 606 l 185 601 l 233 603 l 233 169 q 268 65 233 101 q 363 29 303 29 q 453 52 414 29 q 522 111 493 75 q 567 185 550 147 l 567 433 q 558 523 567 496 q 528 558 550 550 q 467 571 507 567 l 444 574 l 444 606 l 615 601 l 664 603 l 664 154 q 677 76 664 101 q 716 42 690 50 q 779 33 742 33 l 779 1 q 675 0 722 1 q 567 -12 628 -1 l 567 115 q 538 76 553 93 q 450 10 501 36 q 331 -15 399 -15 m 467 765 q 415 778 440 765 q 372 800 390 790 l 336 822 q 291 848 311 838 q 251 858 271 858 q 199 832 221 858 q 169 781 176 806 l 143 781 q 156 835 143 801 q 194 897 168 869 q 263 925 221 925 q 315 911 289 925 q 356 889 342 897 l 407 858 q 439 842 418 853 q 478 832 460 832 q 524 853 506 832 q 553 903 543 874 l 579 903 q 540 803 572 840 q 467 765 508 765 z "},"v":{"ha":704,"x_min":-18,"x_max":704,"o":"m 318 0 l 92 500 q 61 547 79 528 q 7 571 43 567 l -18 574 l -18 606 l 125 601 l 267 606 l 267 574 l 244 571 q 201 556 214 567 q 189 528 189 546 q 200 486 189 513 l 375 100 l 538 481 q 550 526 550 508 q 486 571 550 563 l 463 574 l 463 606 l 588 601 l 704 606 l 704 574 l 672 569 q 613 540 633 564 q 571 467 592 515 l 371 0 l 318 0 z "},"w":{"ha":1067,"x_min":-18,"x_max":1067,"o":"m 264 0 l 93 471 q 54 543 76 517 q -3 572 32 569 l -18 574 l -18 606 l 129 601 l 265 606 l 265 574 l 251 572 q 182 519 182 567 q 183 501 182 511 q 189 481 185 492 l 324 107 l 478 456 q 490 487 485 472 q 494 513 494 501 q 438 572 494 569 l 394 574 l 394 606 l 443 606 q 518 564 494 606 q 556 597 528 588 q 608 606 585 606 l 672 606 l 672 574 l 651 572 q 615 558 626 571 q 604 525 604 544 q 615 478 604 507 l 760 108 l 904 475 q 912 499 907 485 q 917 521 917 513 q 849 571 917 563 l 826 574 l 826 606 l 957 601 l 1067 606 l 1067 574 l 1044 571 q 976 536 996 565 q 940 471 956 507 l 754 0 l 701 0 l 521 465 l 317 0 l 264 0 z "},"ẃ":{"ha":1067,"x_min":-18,"x_max":1067,"o":"m 264 0 l 93 471 q 54 543 76 517 q -3 572 32 569 l -18 574 l -18 606 l 129 601 l 265 606 l 265 574 l 251 572 q 182 519 182 567 q 183 501 182 511 q 189 481 185 492 l 324 107 l 478 456 q 490 487 485 472 q 494 513 494 501 q 438 572 494 569 l 394 574 l 394 606 l 443 606 q 518 564 494 606 q 556 597 528 588 q 608 606 585 606 l 672 606 l 672 574 l 651 572 q 615 558 626 571 q 604 525 604 544 q 615 478 604 507 l 760 108 l 904 475 q 912 499 907 485 q 917 521 917 513 q 849 571 917 563 l 826 574 l 826 606 l 957 601 l 1067 606 l 1067 574 l 1044 571 q 976 536 996 565 q 940 471 956 507 l 754 0 l 701 0 l 521 465 l 317 0 l 264 0 m 463 722 l 517 928 q 544 989 528 972 q 576 1006 560 1006 q 606 993 593 1006 q 619 956 619 981 q 613 922 619 939 q 596 888 607 904 l 493 722 l 463 722 z "},"ŵ":{"ha":1067,"x_min":-18,"x_max":1067,"o":"m 264 0 l 93 471 q 54 543 76 517 q -3 572 32 569 l -18 574 l -18 606 l 129 601 l 265 606 l 265 574 l 251 572 q 182 519 182 567 q 183 501 182 511 q 189 481 185 492 l 324 107 l 478 456 q 490 487 485 472 q 494 513 494 501 q 438 572 494 569 l 394 574 l 394 606 l 443 606 q 518 564 494 606 q 556 597 528 588 q 608 606 585 606 l 672 606 l 672 574 l 651 572 q 615 558 626 571 q 604 525 604 544 q 615 478 604 507 l 760 108 l 904 475 q 912 499 907 485 q 917 521 917 513 q 849 571 917 563 l 826 574 l 826 606 l 957 601 l 1067 606 l 1067 574 l 1044 571 q 976 536 996 565 q 940 471 956 507 l 754 0 l 701 0 l 521 465 l 317 0 l 264 0 m 365 722 l 496 986 l 526 986 l 657 722 l 624 722 l 515 858 l 507 858 l 399 722 l 365 722 z "},"ẅ":{"ha":1067,"x_min":-18,"x_max":1067,"o":"m 264 0 l 93 471 q 54 543 76 517 q -3 572 32 569 l -18 574 l -18 606 l 129 601 l 265 606 l 265 574 l 251 572 q 182 519 182 567 q 183 501 182 511 q 189 481 185 492 l 324 107 l 478 456 q 490 487 485 472 q 494 513 494 501 q 438 572 494 569 l 394 574 l 394 606 l 443 606 q 518 564 494 606 q 556 597 528 588 q 608 606 585 606 l 672 606 l 672 574 l 651 572 q 615 558 626 571 q 604 525 604 544 q 615 478 604 507 l 760 108 l 904 475 q 912 499 907 485 q 917 521 917 513 q 849 571 917 563 l 826 574 l 826 606 l 957 601 l 1067 606 l 1067 574 l 1044 571 q 976 536 996 565 q 940 471 956 507 l 754 0 l 701 0 l 521 465 l 317 0 l 264 0 m 376 788 q 324 810 343 788 q 306 867 306 833 q 324 922 306 899 q 376 944 343 944 q 429 922 413 944 q 446 867 446 899 q 429 810 446 833 q 376 788 413 788 m 640 788 q 588 810 607 788 q 569 867 569 833 q 588 922 569 899 q 640 944 607 944 q 693 922 676 944 q 710 867 710 899 q 693 810 710 833 q 640 788 676 788 z "},"ẁ":{"ha":1067,"x_min":-18,"x_max":1067,"o":"m 264 0 l 93 471 q 54 543 76 517 q -3 572 32 569 l -18 574 l -18 606 l 129 601 l 265 606 l 265 574 l 251 572 q 182 519 182 567 q 183 501 182 511 q 189 481 185 492 l 324 107 l 478 456 q 490 487 485 472 q 494 513 494 501 q 438 572 494 569 l 394 574 l 394 606 l 443 606 q 518 564 494 606 q 556 597 528 588 q 608 606 585 606 l 672 606 l 672 574 l 651 572 q 615 558 626 571 q 604 525 604 544 q 615 478 604 507 l 760 108 l 904 475 q 912 499 907 485 q 917 521 917 513 q 849 571 917 563 l 826 574 l 826 606 l 957 601 l 1067 606 l 1067 574 l 1044 571 q 976 536 996 565 q 940 471 956 507 l 754 0 l 701 0 l 521 465 l 317 0 l 264 0 m 557 722 l 526 722 l 424 888 q 407 922 414 904 q 400 956 400 939 q 413 993 400 981 q 443 1006 426 1006 q 476 989 460 1006 q 503 928 492 972 l 557 722 z "},"x":{"ha":729,"x_min":0,"x_max":736,"o":"m 0 -4 l 0 28 l 18 31 q 123 74 82 40 q 197 146 164 108 l 319 283 l 124 499 q 69 552 90 535 q 18 572 47 569 l 6 574 l 6 606 l 161 601 l 317 606 l 317 574 l 294 569 q 275 564 289 568 q 249 552 261 560 q 238 531 238 544 q 261 486 238 514 l 388 347 l 511 486 q 531 528 531 507 q 510 556 531 544 q 461 572 489 568 l 453 574 l 453 606 l 614 601 l 719 606 l 719 574 l 704 572 q 605 532 647 567 q 526 457 563 497 l 408 324 l 576 139 q 644 71 608 104 q 721 31 681 38 l 736 28 l 736 -3 l 599 0 l 426 -3 l 426 29 l 449 32 q 503 63 503 39 q 499 80 503 69 q 485 101 496 90 l 340 260 l 217 117 q 201 95 207 107 q 194 72 194 83 q 206 47 194 58 q 243 32 217 35 l 265 29 l 265 -4 l 135 0 l 0 -4 z "},"y":{"ha":726,"x_min":-42,"x_max":726,"o":"m 53 -408 q -18 -385 6 -408 q -42 -335 -42 -362 q -22 -288 -42 -307 q 29 -269 -1 -269 q 60 -276 49 -269 q 81 -289 71 -282 q 103 -303 90 -296 q 132 -311 115 -311 q 184 -292 157 -311 q 240 -211 211 -272 l 332 -14 l 101 492 q 71 544 88 524 q 19 569 54 565 l -12 574 l -12 606 l 132 601 l 272 606 l 272 574 l 253 571 q 194 528 194 563 q 210 478 194 511 l 383 97 l 557 471 q 572 525 572 506 q 504 571 572 563 l 482 574 l 482 606 l 615 601 l 726 606 l 726 574 l 706 571 q 631 533 654 564 q 589 458 608 503 l 275 -226 q 223 -315 253 -274 q 152 -383 193 -357 q 53 -408 111 -408 z "},"ý":{"ha":726,"x_min":-42,"x_max":726,"o":"m 53 -408 q -18 -385 6 -408 q -42 -335 -42 -362 q -22 -288 -42 -307 q 29 -269 -1 -269 q 60 -276 49 -269 q 81 -289 71 -282 q 103 -303 90 -296 q 132 -311 115 -311 q 184 -292 157 -311 q 240 -211 211 -272 l 332 -14 l 101 492 q 71 544 88 524 q 19 569 54 565 l -12 574 l -12 606 l 132 601 l 272 606 l 272 574 l 253 571 q 194 528 194 563 q 210 478 194 511 l 383 97 l 557 471 q 572 525 572 506 q 504 571 572 563 l 482 574 l 482 606 l 615 601 l 726 606 l 726 574 l 706 571 q 631 533 654 564 q 589 458 608 503 l 275 -226 q 223 -315 253 -274 q 152 -383 193 -357 q 53 -408 111 -408 m 333 722 l 388 928 q 415 989 399 972 q 447 1006 431 1006 q 477 993 464 1006 q 490 956 490 981 q 484 922 490 939 q 467 888 478 904 l 364 722 l 333 722 z "},"ŷ":{"ha":726,"x_min":-42,"x_max":726,"o":"m 53 -408 q -18 -385 6 -408 q -42 -335 -42 -362 q -22 -288 -42 -307 q 29 -269 -1 -269 q 60 -276 49 -269 q 81 -289 71 -282 q 103 -303 90 -296 q 132 -311 115 -311 q 184 -292 157 -311 q 240 -211 211 -272 l 332 -14 l 101 492 q 71 544 88 524 q 19 569 54 565 l -12 574 l -12 606 l 132 601 l 272 606 l 272 574 l 253 571 q 194 528 194 563 q 210 478 194 511 l 383 97 l 557 471 q 572 525 572 506 q 504 571 572 563 l 482 574 l 482 606 l 615 601 l 726 606 l 726 574 l 706 571 q 631 533 654 564 q 589 458 608 503 l 275 -226 q 223 -315 253 -274 q 152 -383 193 -357 q 53 -408 111 -408 m 236 722 l 367 986 l 397 986 l 528 722 l 494 722 l 386 858 l 378 858 l 269 722 l 236 722 z "},"ÿ":{"ha":726,"x_min":-42,"x_max":726,"o":"m 53 -408 q -18 -385 6 -408 q -42 -335 -42 -362 q -22 -288 -42 -307 q 29 -269 -1 -269 q 60 -276 49 -269 q 81 -289 71 -282 q 103 -303 90 -296 q 132 -311 115 -311 q 184 -292 157 -311 q 240 -211 211 -272 l 332 -14 l 101 492 q 71 544 88 524 q 19 569 54 565 l -12 574 l -12 606 l 132 601 l 272 606 l 272 574 l 253 571 q 194 528 194 563 q 210 478 194 511 l 383 97 l 557 471 q 572 525 572 506 q 504 571 572 563 l 482 574 l 482 606 l 615 601 l 726 606 l 726 574 l 706 571 q 631 533 654 564 q 589 458 608 503 l 275 -226 q 223 -315 253 -274 q 152 -383 193 -357 q 53 -408 111 -408 m 247 788 q 195 810 214 788 q 176 867 176 833 q 195 922 176 899 q 247 944 214 944 q 300 922 283 944 q 317 867 317 899 q 300 810 317 833 q 247 788 283 788 m 511 788 q 459 810 478 788 q 440 867 440 833 q 459 922 440 899 q 511 944 478 944 q 564 922 547 944 q 581 867 581 899 q 564 810 581 833 q 511 788 547 788 z "},"ỳ":{"ha":726,"x_min":-42,"x_max":726,"o":"m 53 -408 q -18 -385 6 -408 q -42 -335 -42 -362 q -22 -288 -42 -307 q 29 -269 -1 -269 q 60 -276 49 -269 q 81 -289 71 -282 q 103 -303 90 -296 q 132 -311 115 -311 q 184 -292 157 -311 q 240 -211 211 -272 l 332 -14 l 101 492 q 71 544 88 524 q 19 569 54 565 l -12 574 l -12 606 l 132 601 l 272 606 l 272 574 l 253 571 q 194 528 194 563 q 210 478 194 511 l 383 97 l 557 471 q 572 525 572 506 q 504 571 572 563 l 482 574 l 482 606 l 615 601 l 726 606 l 726 574 l 706 571 q 631 533 654 564 q 589 458 608 503 l 275 -226 q 223 -315 253 -274 q 152 -383 193 -357 q 53 -408 111 -408 m 428 722 l 397 722 l 294 888 q 278 922 285 904 q 271 956 271 939 q 284 993 271 981 q 314 1006 297 1006 q 347 989 331 1006 q 374 928 363 972 l 428 722 z "},"ỹ":{"ha":726,"x_min":-42,"x_max":726,"o":"m 53 -408 q -18 -385 6 -408 q -42 -335 -42 -362 q -22 -288 -42 -307 q 29 -269 -1 -269 q 60 -276 49 -269 q 81 -289 71 -282 q 103 -303 90 -296 q 132 -311 115 -311 q 184 -292 157 -311 q 240 -211 211 -272 l 332 -14 l 101 492 q 71 544 88 524 q 19 569 54 565 l -12 574 l -12 606 l 132 601 l 272 606 l 272 574 l 253 571 q 194 528 194 563 q 210 478 194 511 l 383 97 l 557 471 q 572 525 572 506 q 504 571 572 563 l 482 574 l 482 606 l 615 601 l 726 606 l 726 574 l 706 571 q 631 533 654 564 q 589 458 608 503 l 275 -226 q 223 -315 253 -274 q 152 -383 193 -357 q 53 -408 111 -408 m 488 768 q 436 781 461 768 q 393 803 411 793 l 357 825 q 312 851 332 840 q 272 861 292 861 q 219 835 242 861 q 190 783 197 808 l 164 783 q 176 838 164 804 q 215 900 189 872 q 283 928 242 928 q 336 914 310 928 q 376 892 363 900 l 428 861 q 460 845 439 856 q 499 835 481 835 q 545 856 526 835 q 574 906 564 876 l 600 906 q 561 806 593 843 q 488 768 529 768 z "},"z":{"ha":647,"x_min":49,"x_max":594,"o":"m 58 0 l 49 28 l 469 572 l 368 572 q 233 558 290 572 q 141 502 176 543 q 90 382 106 461 l 58 382 l 89 507 l 104 606 l 585 606 l 594 579 l 172 35 l 322 35 q 434 48 385 35 q 517 101 483 61 q 560 219 550 140 l 592 219 l 575 74 l 574 0 l 58 0 z "},"ź":{"ha":647,"x_min":49,"x_max":594,"o":"m 58 0 l 49 28 l 469 572 l 368 572 q 233 558 290 572 q 141 502 176 543 q 90 382 106 461 l 58 382 l 89 507 l 104 606 l 585 606 l 594 579 l 172 35 l 322 35 q 434 48 385 35 q 517 101 483 61 q 560 219 550 140 l 592 219 l 575 74 l 574 0 l 58 0 m 289 722 l 343 928 q 370 989 354 972 q 403 1006 386 1006 q 433 993 419 1006 q 446 956 446 981 q 440 922 446 939 q 422 888 433 904 l 319 722 l 289 722 z "},"ž":{"ha":647,"x_min":49,"x_max":594,"o":"m 58 0 l 49 28 l 469 572 l 368 572 q 233 558 290 572 q 141 502 176 543 q 90 382 106 461 l 58 382 l 89 507 l 104 606 l 585 606 l 594 579 l 172 35 l 322 35 q 434 48 385 35 q 517 101 483 61 q 560 219 550 140 l 592 219 l 575 74 l 574 0 l 58 0 m 193 988 l 226 988 l 335 851 l 343 851 l 451 988 l 485 988 l 354 724 l 324 724 l 193 988 z "},"ż":{"ha":647,"x_min":49,"x_max":594,"o":"m 58 0 l 49 28 l 469 572 l 368 572 q 233 558 290 572 q 141 502 176 543 q 90 382 106 461 l 58 382 l 89 507 l 104 606 l 585 606 l 594 579 l 172 35 l 322 35 q 434 48 385 35 q 517 101 483 61 q 560 219 550 140 l 592 219 l 575 74 l 574 0 l 58 0 m 333 785 q 276 810 297 785 q 256 869 256 835 q 276 930 256 906 q 333 954 297 954 q 392 930 374 954 q 411 869 411 906 q 392 810 411 835 q 333 785 374 785 z "},"ﬁ":{"ha":788,"x_min":35,"x_max":774,"o":"m 46 -4 l 46 28 l 68 31 q 130 44 108 36 q 160 78 151 51 q 168 168 168 106 l 168 571 l 35 571 l 35 606 l 168 606 l 168 700 q 190 849 168 779 q 269 962 213 918 q 432 1006 326 1006 q 534 988 483 1006 q 619 935 585 971 q 653 843 653 899 q 635 787 653 808 q 585 765 617 765 q 542 781 560 765 q 524 821 524 796 q 531 847 524 838 q 544 863 538 856 q 550 883 550 871 q 516 943 550 915 q 432 971 482 971 q 323 931 358 971 q 276 826 288 890 q 265 693 265 763 l 265 606 l 432 606 q 542 609 489 606 q 651 622 594 613 l 651 168 q 660 78 651 106 q 690 44 668 51 q 751 31 711 36 l 774 28 l 774 -4 l 603 0 l 432 -4 l 432 28 l 454 31 q 516 44 494 36 q 546 78 538 51 q 554 168 554 106 l 554 461 q 535 542 554 518 q 482 571 515 565 l 265 571 l 265 168 q 272 78 265 106 q 296 44 278 51 q 346 31 314 36 l 368 28 l 368 -4 l 217 0 l 46 -4 z "},"ﬂ":{"ha":796,"x_min":35,"x_max":775,"o":"m 35 -4 l 35 28 l 57 31 q 119 44 97 36 q 149 78 140 51 q 157 168 157 106 l 157 571 l 38 571 l 38 606 l 157 606 l 157 674 q 181 837 157 761 q 265 959 206 913 q 428 1006 324 1006 q 505 994 468 1006 q 564 964 542 983 l 653 1007 l 653 168 q 661 78 653 106 q 691 44 669 51 q 753 31 713 36 l 775 28 l 775 -4 l 604 0 l 450 -4 l 450 28 l 472 31 q 522 44 504 36 q 548 78 540 51 q 556 168 556 106 l 556 825 q 536 915 556 883 q 487 958 517 946 q 426 971 457 971 q 317 933 354 971 q 267 828 281 896 q 254 674 254 761 l 254 606 l 382 606 l 382 571 l 254 571 l 254 168 q 263 78 254 106 q 291 43 271 51 q 346 31 311 35 l 368 28 l 368 -4 l 206 0 l 35 -4 z "},"ª":{"ha":553,"x_min":49,"x_max":574,"o":"m 189 400 q 88 425 128 400 q 49 503 49 450 q 83 576 49 542 q 171 640 118 611 q 278 690 224 668 q 369 725 332 711 l 369 744 q 365 806 369 776 q 340 853 360 835 q 274 872 319 872 q 200 864 231 872 q 167 844 169 856 q 169 826 163 833 q 175 796 175 818 q 161 760 175 776 q 125 743 147 743 q 89 756 104 743 q 74 788 74 769 q 106 855 74 829 q 183 892 138 881 q 271 904 229 904 q 392 886 351 904 q 447 835 432 868 q 461 754 461 801 q 460 732 461 744 q 460 706 460 719 l 460 540 q 461 498 460 522 q 472 456 463 474 q 504 439 482 439 q 530 450 519 439 q 549 475 540 461 l 574 461 q 538 417 561 435 q 469 400 514 400 q 392 428 413 400 q 369 501 371 456 q 294 429 346 458 q 189 400 242 400 m 224 444 q 281 460 251 444 q 334 499 310 475 q 369 549 358 522 l 369 696 q 270 649 321 676 q 185 585 219 621 q 150 507 150 550 q 172 461 150 478 q 224 444 193 444 z "},"º":{"ha":614,"x_min":42,"x_max":572,"o":"m 307 400 q 173 434 233 400 q 77 525 113 468 q 42 651 42 582 q 77 779 42 722 q 173 870 113 836 q 307 904 233 904 q 442 870 382 904 q 537 779 501 836 q 572 651 572 722 q 537 525 572 582 q 442 434 501 468 q 307 400 382 400 m 307 433 q 435 496 397 433 q 472 651 472 558 q 435 809 472 746 q 307 872 397 872 q 181 809 218 872 q 143 651 143 746 q 181 496 143 558 q 307 433 218 433 z "},"⁄":{"ha":404,"x_min":-153,"x_max":603,"o":"m -153 0 l 529 1003 l 603 1003 l -79 0 l -153 0 z "}}}
